<svg xmlns="http://www.w3.org/2000/svg" xmlns:xlink="http://www.w3.org/1999/xlink" fill="none" version="1.1" width="34" height="34" viewBox="0 0 34 34"><defs><clipPath id="master_svg0_43_3992"><rect x="0" y="0" width="34" height="34" rx="0"/></clipPath></defs><g clip-path="url(#master_svg0_43_3992)"><g><path d="M18.699951171875,25.499951171875L18.699951171875,28.899951171875L23.799951171875,28.899951171875C24.738851171875,28.899951171875,25.499951171875,29.661051171875,25.499951171875,30.599951171875C25.499951171875,31.538851171875,24.738851171875,32.299951171875,23.799951171875,32.299951171875L10.199951171875,32.299951171875C9.261071171874999,32.299951171875,8.499951171875,31.538851171875,8.499951171875,30.599951171875C8.499951171875,29.661051171875,9.261071171874999,28.899951171875,10.199951171875,28.899951171875L15.299951171875,28.899951171875L15.299951171875,25.499951171875L6.799951171875,25.499951171875C3.983301171875,25.499951171875,1.699951171875,23.216651171875,1.699951171875,20.399951171875L1.699951171875,6.799951171875C1.699951171875,3.983301171875,3.983301171875,1.699951171875,6.799951171875,1.699951171875L27.199951171875,1.699951171875C30.016651171875,1.699951171875,32.299951171875,3.983301171875,32.299951171875,6.799951171875L32.299951171875,20.399951171875C32.299951171875,23.216651171875,30.016651171875,25.499951171875,27.199951171875,25.499951171875L18.699951171875,25.499951171875ZM23.884951171875,8.539051171875C23.392551171875,8.012681171875,22.562051171875,7.998821171875,22.052351171875,8.508451171875L15.143551171875,15.420651171875L11.835351171875,12.115851171875C11.337561171875,11.618681171875,10.531141171875,11.618681171875,10.033351171875,12.115851171875L4.6239511718749995,17.525251171875C4.155851171875,18.027651171875,4.169661171875,18.810451171875,4.6552011718749995,19.296051171875C5.140741171875,19.781551171875,5.923581171875,19.795351171875,6.425951171875,19.327251171875L10.934351171875,14.820551171875L14.240851171875,18.125351171875C14.738651171875,18.622551171875,15.545051171875,18.622551171875,16.042851171875,18.125351171875L22.955051171875,11.213151171875L27.522951171875,15.781051171875C28.025351171875,16.249151171875,28.808151171875,16.235351171875,29.293751171875,15.749851171875C29.779251171875,15.264251171875,29.793051171875,14.481451171875,29.324951171875,13.979051171875L23.918951171875,8.567951171875C23.908951171875,8.557581171875,23.898751171875,8.547381171875,23.888351171875,8.537351171874999L23.884951171875,8.539051171875Z" fill="#00CC90" fill-opacity="1"/></g></g></svg>