<svg xmlns="http://www.w3.org/2000/svg" xmlns:xlink="http://www.w3.org/1999/xlink" fill="none" version="1.1" width="16" height="16" viewBox="0 0 16 16"><defs><clipPath id="master_svg0_324_5308"><rect x="0" y="0" width="16" height="16" rx="0"/></clipPath></defs><g clip-path="url(#master_svg0_324_5308)"><g><path d="M14.593836328125,14.692225L13.112536328125,14.692225L13.112536328125,14.109425L14.011036328125,14.109425L14.011036328125,13.514025L14.593836328125,13.514025L14.593836328125,14.692225ZM11.921936328125,14.692225L10.731296328125,14.692225L10.731296328125,14.109425L11.921936328125,14.109425L11.921936328125,14.692225ZM9.540676328125,14.692225L8.350046328125,14.692225L8.350046328125,14.109425L9.540676328125,14.109425L9.540676328125,14.692225ZM7.160986328125,14.692225L5.970356328125,14.692225L5.970356328125,14.109425L7.160986328125,14.109425L7.160986328125,14.692225ZM4.781296328125,14.692225L3.590676328125,14.692225L3.590676328125,14.109425L4.781296328125,14.109425L4.781296328125,14.692225ZM2.4000463281249997,14.692225L1.292236328125,14.692225L1.292236328125,14.026525L1.875048328125,14.026525L1.875048328125,14.107825L2.4000463281249997,14.107825L2.4000463281249997,14.692225ZM1.875048328125,12.837525L1.292236328125,12.837525L1.292236328125,11.646925L1.875048328125,11.646925L1.875048328125,12.837525ZM14.593836328125,12.323425L14.011036328125,12.323425L14.011036328125,11.132815L14.593836328125,11.132815L14.593836328125,12.323425ZM1.875048328125,10.456255L1.292236328125,10.456255L1.292236328125,9.265625L1.875048328125,9.265625L1.875048328125,10.456255ZM14.593836328125,9.943755L14.011036328125,9.943755L14.011036328125,8.753125L14.593836328125,8.753125L14.593836328125,9.943755ZM1.875048328125,8.076565L1.292236328125,8.076565L1.292236328125,6.885935L1.875048328125,6.885935L1.875048328125,8.076565ZM14.593836328125,7.562505L14.011036328125,7.562505L14.011036328125,6.371875L14.593836328125,6.371875L14.593836328125,7.562505ZM1.875048328125,5.696875L1.292236328125,5.696875L1.292236328125,4.5062549999999995L1.875048328125,4.5062549999999995L1.875048328125,5.696875ZM14.593836328125,5.182815L14.011036328125,5.182815L14.011036328125,3.992185L14.593836328125,3.992185L14.593836328125,5.182815ZM1.875048328125,3.315625L1.292236328125,3.315625L1.292236328125,2.125L1.875048328125,2.125L1.875048328125,3.315625ZM14.593836328125,2.803125L14.011036328125,2.803125L14.011036328125,1.682813L14.232836328125,1.682813L14.232836328125,1.390625L14.593836328125,1.390625L14.593836328125,2.803125ZM13.042236328125,1.973437L11.851636328125,1.973437L11.851636328125,1.390625L13.042236328125,1.390625L13.042236328125,1.973437ZM10.660986328125,1.973437L9.470366328125,1.973437L9.470366328125,1.390625L10.660986328125,1.390625L10.660986328125,1.973437ZM8.281296328125,1.973437L7.090676328125,1.973437L7.090676328125,1.390625L8.281296328125,1.390625L8.281296328125,1.973437ZM5.900046328125,1.973437L4.709426328125,1.973437L4.709426328125,1.390625L5.900046328125,1.390625L5.900046328125,1.973437ZM3.520366328125,1.973437L2.329736328125,1.973437L2.329736328125,1.390625L3.520366328125,1.390625L3.520366328125,1.973437ZM2.4000463281249997,2.440625L13.484436328125,2.440625L13.484436328125,13.642225L2.4000463281249997,13.642225L2.4000463281249997,2.440625Z" fill="#FFFFFF" fill-opacity="1"/></g></g></svg>