<svg xmlns="http://www.w3.org/2000/svg" xmlns:xlink="http://www.w3.org/1999/xlink" fill="none" version="1.1" width="16" height="16" viewBox="0 0 16 16"><defs><clipPath id="master_svg0_3_3429"><rect x="0" y="0" width="16" height="16" rx="0"/></clipPath></defs><g clip-path="url(#master_svg0_3_3429)"><g><path d="M6.6519261328125,0L6.6504061328125,0C6.4540561328125,0.000479183,6.2678861328125,0.0874495,6.1415161328125,0.237734C5.5794461328125,0.906469,0.6495361328125,6.86155,0.6495361328125,9.97439C0.6495361328125,13.2969,3.3526561328125,16,6.6751461328125,16C9.9976261328125,16,12.7007361328125,13.2969,12.7007361328125,9.97439C12.7007361328125,6.86003,7.7274461328125,0.904407,7.1603961328125,0.235563C7.0336161328125,0.0861401,6.8476861328125,0,6.6519261328125,0ZM6.6751461328125,14.6667C4.0878061328125,14.6667,1.9828661328125,12.5618,1.9828661328125,9.97439C1.9828661328125,7.97547,4.9955661328125,3.79231,6.6542961328125,1.71691C8.326836132812499,3.79069,11.3674361328125,7.97428,11.3674361328125,9.97439C11.3674361328125,12.5617,9.2623961328125,14.6667,6.6751461328125,14.6667ZM13.5563361328125,0Q11.7777361328125,2.116,11.7777361328125,3.10256C11.7777361328125,4.08913,12.5775361328125,4.88889,13.5640361328125,4.88889C14.5506361328125,4.88889,15.3503361328125,4.08913,15.3503361328125,3.10256Q15.3503361328125,2.116,13.5563361328125,0Z" fill="#FFFFFF" fill-opacity="1"/></g><g><path d="M3.9097829296875,7.209271996875C3.6733429296875,7.151162696875,3.4279249296875,7.263912996875,3.3129089296875,7.478506796875C2.8089409296875,8.418911796875,2.4530029296875,9.322221796875,2.4530029296875,9.999941796875C2.4530029296875,12.331821796875001,4.3433629296875,14.222161796875,6.6752229296875,14.222161796875C9.007082929687499,14.222161796875,10.8974429296875,12.331821796875001,10.8974429296875,9.999941796875C10.8974429296875,9.587521796875,10.7639729296875,9.091291796875,10.5451929296875,8.554141796875C10.423782929687501,8.256071796875,10.0690129296875,8.138239796875,9.7860929296875,8.291711796875C9.498112929687501,8.447931796875,9.1589829296875,8.602361796875,8.7735029296875,8.666611796875C7.4401729296875,8.888831796875,7.0551129296875,8.696301796875,6.1068329296875,8.222181796875C5.2179529296875,7.777724796875,4.4656429296875,7.345865796875,3.9097829296875,7.209271996875Z" fill="#FFFFFF" fill-opacity="1"/></g></g></svg>