<svg xmlns="http://www.w3.org/2000/svg" xmlns:xlink="http://www.w3.org/1999/xlink" fill="none" version="1.1" width="16" height="16" viewBox="0 0 16 16"><defs><clipPath id="master_svg0_3_3309"><rect x="0" y="0" width="16" height="16" rx="0"/></clipPath></defs><g clip-path="url(#master_svg0_3_3309)"><g><path d="M11.81428359375,8.156871835937501L13.47143359375,8.156871835937501C13.80423359375,8.1818518359375,14.10253359375,7.9754118359375,14.15633359375,7.6836618359375C14.15653359375,7.5436718359375,14.08683359375,7.4128218359375,13.97063359375,7.3348718359375C13.83143359375,7.2367018359375,13.66483359375,7.1850618359375,13.49453359375,7.1873518359375L11.79967359375,7.1873518359375C11.62942359375,7.1837318359375,11.46252359375,7.2349518359375,11.32363359375,7.3334618359375C11.20765359375,7.4124218359375,11.14022359375,7.5453118359375,11.14499359375,7.6855418359375C11.15400359375,7.8255418359375,11.23069359375,7.9523618359375,11.35049359375,8.0253718359375C11.48812359375,8.115861835937501,11.65591359375,8.1620518359375,11.82653359375,8.156401835937501L11.80627359375,8.156401835937501L11.81428359375,8.156871835937501ZM11.81428359375,6.3276518359375L13.47143359375,6.3276518359375C13.80423359375,6.3526318359375,14.10253359375,6.1461918359375,14.15633359375,5.8539718359375C14.15633359375,5.7141718359375,14.08663359375,5.5835618359375,13.97063359375,5.5056618359375005C13.83143359375,5.407451835937501,13.66483359375,5.3558118359375,13.49453359375,5.3581318359375L11.79967359375,5.3581318359375C11.62941359375,5.3544418359375,11.46250359375,5.4056718359375004,11.32363359375,5.5042418359375C11.20765359375,5.5832018359374995,11.14022359375,5.7160918359375,11.14499359375,5.8563218359375C11.15423359375,5.9961318359375,11.23088359375,6.1227118359375,11.35049359375,6.1956818359375C11.48812359375,6.2866418359375,11.65591359375,6.3323618359375,11.82653359375,6.3267118359375L11.80627359375,6.3267118359375L11.81428359375,6.3276518359375ZM11.81428359375,4.498431835937501L13.47143359375,4.498431835937501C13.80423359375,4.5229418359375,14.10253359375,4.316971835937499,14.15633359375,4.0247518359375C14.15633359375,3.8849518359375,14.08663359375,3.7543418359375,13.97063359375,3.6764418359375C13.83153359375,3.5782018359375,13.66483359375,3.5265618359374997,13.49453359375,3.5289118359375L11.79967359375,3.5289118359375C11.62941359375,3.5252218359375,11.46250359375,3.5764518359375,11.32363359375,3.6750218359375C11.20765359375,3.7539818359375,11.14022359375,3.8868718359375,11.14499359375,4.027101835937501C11.15423359375,4.1669118359374995,11.23088359375,4.2934918359375,11.35049359375,4.3664618359375C11.48812359375,4.456951835937501,11.65591359375,4.5031418359375,11.82653359375,4.4974918359375L11.80627359375,4.4974918359375L11.81428359375,4.498431835937501ZM8.90619359375,13.0138818359375C8.48529359375,13.2730818359375,7.99888359375,13.4380818359375,7.49032359375,13.4922818359375C6.57124359375,13.6129818359375,5.63801359375,13.3791818359375,4.92630359375,12.8498818359375C4.32253359375,12.4275818359375,3.91436359375,11.8228818359375,3.77957359375,11.1516818359375C3.52505359375,10.0992118359375,3.95066359375,9.009031835937499,4.883883593749999,8.3204218359375C4.97626359375,8.2709318359375,5.05686359375,8.2063618359375,5.1219135937499995,8.130001835937499C5.14771359375,8.032811835937501,5.15206359375,7.9311618359375,5.134633593749999,7.8321218359375L5.134633593749999,3.9653618359375C5.117663593750001,3.5736818359375,5.34579359375,3.2055818359375,5.72756359375,3.0076218359375C6.20722359375,2.7432918359375,6.75713359375,2.6344318359375,7.30132359375,2.6960718359375C7.72080359375,2.7234118359375,8.12237359375,2.8568018359375,8.45796359375,3.0806818359375C8.766213593749999,3.2762818359375,8.94484359375,3.5944218359375,8.934473593749999,3.9300118359375C8.92646359375,4.8736018359374995,8.934473593749999,5.9175918359375,8.934473593749999,6.8644918359375L8.934473593749999,8.0192418359375C8.92839359375,8.0886218359375,8.96267359375,8.155341835937499,9.02261359375,8.1908018359375C9.49393359375,8.5047118359375,9.86345359375,8.9232518359375,10.09440359375,9.4040018359375C10.34650359375,9.9115318359375,10.42436359375,10.4879918359375,10.31593359375,11.0442218359375C10.17783359375,11.8463818359375,9.66550359375,12.5604818359375,8.90619359375,13.0143818359375L8.90619359375,13.0138818359375ZM10.14672359375,7.5531018359375L10.14672359375,3.8814618359375C10.14927359375,3.4559318359375,10.00023359375,3.0434018359375,9.72630359375,2.7177618359375C9.40580359375,2.3237288359375,8.96133359375,2.0225508359375,8.44759359375,1.8528728359375C7.37155359375,1.4579008359375,6.14798359375,1.5361411359375,5.147363593750001,2.0640278359375C4.79716359375,2.2431318359375,4.50022359375,2.4929348359375,4.28106359375,2.7945818359375C4.03697359375,3.1241618359375,3.90961359375,3.5256518359375,3.91908359375,3.9356718359375L3.91908359375,7.5436718359375C3.91957359375,7.6080418359375,3.89014359375,7.6689918359375,3.8394235937500003,7.7086418359375C2.71578359375,8.6720318359375,2.24398559375,10.0874318359375,2.59700959375,11.4373118359375C3.09567359375,13.5134818359375,5.334003593749999,14.8859818359375,7.70242359375,14.5673818359375C8.579563593749999,14.4608818359375,9.39920359375,14.1186818359375,10.05151359375,13.5869818359375C11.21852359375,12.6858818359375,11.77516359375,11.3128718359375,11.52205359375,9.9592218359375C11.38725359375,9.0919818359375,10.92488359375,8.2912018359375,10.21035359375,7.6874318359375C10.16933359375,7.6550518359375,10.14579359375,7.6053618359375,10.14672359375,7.5531018359375Z" fill="#FFFFFF" fill-opacity="1"/></g><g><path d="M8.1304912890625,8.46417453125C8.0630912890625,8.44013453125,8.0230312890625,8.378394531249999,8.0324612890625,8.314764531249999L8.0324612890625,4.18169653125C8.0423512890625,3.9540455312500002,7.912741289062501,3.73864953125,7.6935712890625005,3.61893253125C7.3819012890625,3.43464508125,7.0064512890625,3.39195673125,6.6613712890625,3.50157203125C6.2762912890625,3.59253853125,6.0161212890625,3.91162653125,6.0406312890625,4.26417953125C6.0547712890625,6.04108453125,6.0406312890625,6.54587453125,6.0406312890625,8.321364531250001C6.0524112890624995,8.37603453125,6.0194212890625,8.43070453125,5.9614512890625,8.45191453125C4.8132942890625,8.98216453125,4.2755102890625,10.17650453125,4.6973472890625,11.261024531250001C5.0824222890625,12.34036453125,6.3375612890625,12.97854453125,7.5842212890625,12.72779453125C8.8323012890625,12.44028453125,9.6458112890625,11.37650453125,9.4841412890625,10.24249453125C9.4082612890625,9.48176453125,8.8940412890625,8.80965453125,8.1238912890625,8.46558453125L8.1304912890625,8.46417453125Z" fill="#FFFFFF" fill-opacity="1"/></g></g></svg>