<svg xmlns="http://www.w3.org/2000/svg" xmlns:xlink="http://www.w3.org/1999/xlink" fill="none" version="1.1" width="20" height="20" viewBox="0 0 20 20"><defs><clipPath id="master_svg0_3_3612"><rect x="2" y="2" width="16" height="16" rx="0"/></clipPath></defs><g style="mix-blend-mode:passthrough"><g style="mix-blend-mode:passthrough"></g><g style="mix-blend-mode:passthrough" clip-path="url(#master_svg0_3_3612)"><g style="mix-blend-mode:passthrough"><path d="M8.63912,17.4142C9.014199999999999,17.7893,9.522929999999999,18,10.05333,18L10.05533,18C10.58573,18,11.09447,17.7893,11.46953,17.4142C11.8446,17.039099999999998,12.0553,16.5304,12.0553,16L12.0553,15.8867C12.0557,15.8021,12.0807,15.7195,12.1273,15.6491C12.1741,15.5786,12.2403,15.5233,12.318,15.49L12.3247,15.49C12.4035,15.4552,12.4908,15.4447,12.5756,15.4598C12.6603,15.4749,12.7387,15.5149,12.8007,15.5747L12.8373,15.6113C13.0231,15.7971,13.2437,15.9445,13.4864,16.045099999999998C13.7291,16.145699999999998,13.9893,16.197499999999998,14.2521,16.197499999999998C14.5149,16.1976,14.7751,16.145899999999997,15.0178,16.045299999999997C15.2606,15.9448,15.4812,15.7975,15.667,15.6117C15.8528,15.4259,16.0002,15.2053,16.1008,14.9626C16.2014,14.7199,16.2532,14.4597,16.2532,14.1969C16.2533,13.9341,16.2015,13.6739,16.101,13.4312C16.000500000000002,13.1884,15.8531,12.9678,15.6673,12.782L15.6307,12.7453C15.5709,12.6834,15.5309,12.605,15.5158,12.5203C15.5007,12.4355,15.5112,12.3481,15.546,12.2693L15.546,12.2627C15.5791,12.1854,15.634,12.1194,15.7039,12.0727C15.7739,12.0261,15.8559,12.0009,15.94,12L16,12C16.5304,12,17.039099999999998,11.78927,17.4142,11.4142C17.7893,11.03913,18,10.5304,18,10C18,9.4696,17.7893,8.96087,17.4142,8.58579C17.039099999999998,8.210709999999999,16.5304,8,16,8L15.8893,8C15.8188,7.99955,15.7495,7.98188,15.6873,7.94853C15.6251,7.91519,15.5721,7.86718,15.5327,7.80867C15.5231,7.76285,15.5089,7.71816,15.49,7.67533C15.4552,7.59656,15.4447,7.50921,15.4598,7.42443C15.4749,7.33965,15.5149,7.26128,15.5747,7.19933L15.6113,7.16267C15.7971,6.97689,15.9445,6.75633,16.045099999999998,6.51359C16.145699999999998,6.27084,16.197499999999998,6.01066,16.197499999999998,5.7479C16.1976,5.48515,16.145899999999997,5.22495,16.045299999999997,4.98218C15.9448,4.7394099999999995,15.7975,4.51882,15.6117,4.333C15.4259,4.1471800000000005,15.2053,3.99977,14.9626,3.89919C14.7199,3.79861,14.4597,3.74682,14.1969,3.74679C13.9341,3.74676,13.6739,3.79848,13.4312,3.89901C13.1884,3.99953,12.9678,4.14689,12.782,4.33267L12.7453,4.36933C12.6834,4.42914,12.605,4.4691399999999994,12.5203,4.4842200000000005C12.4355,4.4993,12.3481,4.48878,12.2693,4.454000000000001L12.2627,4.454000000000001C12.1854,4.42089,12.1194,4.36601,12.0727,4.29605C12.0261,4.22609,12.0009,4.14407,12,4.0600000000000005L12,4C12,3.46957,11.78927,2.9608600000000003,11.4142,2.585787C11.03913,2.210713,10.5304,2,10,2C9.4696,2,8.96087,2.210713,8.58579,2.585787C8.210709999999999,2.9608600000000003,8,3.46957,8,4L8,4.11067C7.99977,4.18102,7.98241,4.25026,7.94942,4.3124C7.91643,4.37455,7.86881,4.42772,7.81067,4.4673300000000005C7.76485,4.47684,7.72016,4.49114,7.67733,4.51C7.59856,4.544779999999999,7.51121,4.5553,7.42643,4.54022C7.34165,4.52514,7.26329,4.48515,7.20133,4.425330000000001L7.16467,4.388669999999999C6.78947,4.01321,6.2805,3.8021700000000003,5.74971,3.80199C5.21892,3.8018,4.70979,4.01247,4.33433,4.38767C3.95887,4.76286,3.74784,5.27183,3.74765,5.802630000000001C3.74747,6.33341,3.95814,6.84254,4.33333,7.218L4.372669999999999,7.254C4.43248,7.31595,4.4724699999999995,7.39431,4.487550000000001,7.47909C4.50263,7.56387,4.49211,7.65123,4.45733,7.73C4.45155,7.74289,4.44622,7.756,4.44133,7.76933C4.41165,7.84997,4.35865,7.91997,4.28909,7.97042C4.21953,8.02087,4.13654,8.0495,4.05067,8.052669999999999L4,8.052669999999999C3.46957,8.052669999999999,2.9608600000000003,8.26338,2.585787,8.638449999999999C2.210713,9.01353,2,9.522269999999999,2,10.05267C2,10.58313,2.210713,11.0918,2.585787,11.46687C2.9608600000000003,11.84193,3.46957,12.0527,4,12.0527L4.116,12.0527C4.2005300000000005,12.053,4.28312,12.078,4.35361,12.1247C4.42409,12.1714,4.479369999999999,12.2376,4.51267,12.3153L4.51267,12.322C4.5474499999999995,12.4008,4.55797,12.4881,4.54289,12.5729C4.527810000000001,12.6577,4.48781,12.7361,4.428,12.798L4.39133,12.8347C4.01605,13.2099,3.80519,13.7187,3.80513,14.2494C3.80506,14.7801,4.01581,15.2891,4.391,15.6643C4.76619,16.0396,5.2751,16.250500000000002,5.80577,16.250500000000002C6.33643,16.2506,6.84539,16.0399,7.22067,15.6647L7.25733,15.628C7.31929,15.5682,7.39765,15.5282,7.48243,15.5131C7.56721,15.4981,7.65456,15.5085,7.73333,15.5433L7.77,15.5587C7.85064,15.5883,7.92063,15.6413,7.97108,15.7109C8.02153,15.7805,8.05016,15.8635,8.053329999999999,15.9493L8.053329999999999,16C8.053329999999999,16.5304,8.264050000000001,17.039099999999998,8.63912,17.4142ZM9.061530000000001,14.9475C8.859729999999999,14.6609,8.57725,14.4409,8.25,14.3153L8.24933,14.3153C7.92799,14.1781,7.57318,14.1393,7.22976,14.2037C6.88634,14.2681,6.56975,14.4329,6.32,14.6773L6.27467,14.7227C6.21268,14.7846,6.13911,14.8337,6.05813,14.8673C5.97717,14.9007,5.89039,14.918,5.802770000000001,14.9179C5.71514,14.9179,5.62837,14.9006,5.54743,14.8671C5.46648,14.8335,5.392939999999999,14.7843,5.3309999999999995,14.7223C5.26906,14.6603,5.21993,14.5868,5.18643,14.5058C5.15293,14.4249,5.13569,14.3381,5.135730000000001,14.2504C5.135759999999999,14.1628,5.15305,14.0761,5.18661,13.9951C5.2201699999999995,13.9141,5.26935,13.8406,5.3313299999999995,13.7787L5.37667,13.7333C5.62129,13.4841,5.78693,13.1682,5.852790000000001,12.8253C5.91866,12.4823,5.88183,12.1275,5.74693,11.8054C5.61203,11.48327,5.38506,11.20813,5.09446,11.01447C4.80386,10.8208,4.46256,10.7172,4.1133299999999995,10.71667L4,10.71667C3.8231900000000003,10.71667,3.65362,10.6464,3.52859,10.5214C3.40357,10.3964,3.33333,10.2268,3.33333,10.05C3.33333,9.8732,3.40357,9.7036,3.52859,9.5786C3.65362,9.4536,3.8231900000000003,9.38333,4,9.38333L4.0760000000000005,9.38333C4.42642,9.375399999999999,4.7665500000000005,9.2634,5.0531299999999995,9.061530000000001C5.339700000000001,8.859729999999999,5.55977,8.57725,5.68533,8.25C5.82255,7.92866,5.86139,7.57385,5.79696,7.23043C5.732530000000001,6.88701,5.5677,6.57041,5.32333,6.32067L5.2780000000000005,6.27533C5.15308,6.15015,5.08301,5.98047,5.0832,5.80363C5.08339,5.62678,5.15382,5.45725,5.279,5.33233C5.40418,5.207409999999999,5.57386,5.13735,5.75071,5.13753C5.92755,5.13772,6.09708,5.20815,6.222,5.33333L6.26133,5.37133L6.26667,5.37667C6.50213,5.6071100000000005,6.79733,5.76713,7.11894,5.83863C7.44055,5.91015,7.77575,5.89029,8.08667,5.7813300000000005C8.14725,5.77347,8.206479999999999,5.75732,8.26267,5.7333300000000005C8.57985,5.597379999999999,8.85027,5.37152,9.04053,5.083629999999999C9.2308,4.79573,9.3326,4.45842,9.33333,4.1133299999999995L9.33333,4C9.33333,3.8231900000000003,9.4036,3.65362,9.5286,3.52859C9.6536,3.40357,9.8232,3.33333,10,3.33333C10.1768,3.33333,10.3464,3.40357,10.4714,3.52859C10.5964,3.65362,10.66667,3.8231900000000003,10.66667,4L10.66667,4.06267C10.66833,4.41099,10.77253,4.751110000000001,10.96627,5.04061C11.16,5.3301,11.43467,5.55617,11.756,5.6906C12.0773,5.8250399999999996,12.4311,5.8619,12.7733,5.79659C13.1154,5.73128,13.4308,5.56668,13.68,5.32333L13.7253,5.2780000000000005C13.7871,5.21607,13.8605,5.16691,13.9413,5.13333C14.0223,5.0997699999999995,14.1091,5.0825,14.1967,5.0825C14.2843,5.0825,14.3711,5.0997699999999995,14.452,5.13333C14.5535,5.17521,14.643,5.24148,14.7127,5.32627C14.7823,5.4110499999999995,14.83,5.51173,14.8515,5.61936C14.8729,5.72699,14.8674,5.83825,14.8355,5.94327C14.8037,6.04827,14.7463,6.14379,14.6687,6.22133L14.6233,6.26667C14.3929,6.50213,14.2329,6.79733,14.1613,7.11894C14.0899,7.44055,14.1097,7.77575,14.2187,8.08667C14.2265,8.14725,14.2427,8.206479999999999,14.2667,8.26267C14.4026,8.57985,14.6285,8.85027,14.9164,9.04053C15.2043,9.2308,15.5416,9.3326,15.8867,9.33333L16,9.33333C16.1768,9.33333,16.3464,9.4036,16.4714,9.5286C16.5964,9.6536,16.6667,9.8232,16.6667,10C16.6667,10.1768,16.5964,10.3464,16.4714,10.4714C16.3464,10.5964,16.1768,10.66667,16,10.66667L15.9373,10.66667C15.5891,10.66847,15.2492,10.77273,14.9598,10.9664C14.6705,11.16007,14.4445,11.43467,14.3101,11.75587C14.1757,12.0771,14.1388,12.4307,14.2039,12.7727C14.2691,13.1148,14.4335,13.4301,14.6767,13.6793L14.7227,13.7253C14.7846,13.7873,14.8337,13.8609,14.8673,13.9419C14.9007,14.0229,14.918,14.1096,14.9179,14.1973C14.9179,14.2849,14.9006,14.3716,14.8671,14.4526C14.8335,14.5335,14.7843,14.6071,14.7223,14.669C14.6603,14.7309,14.5868,14.7801,14.5058,14.8136C14.4249,14.8471,14.3381,14.8643,14.2504,14.8643C14.1628,14.8643,14.0761,14.8469,13.9951,14.8134C13.9141,14.7798,13.8406,14.7307,13.7787,14.6687L13.7333,14.6233C13.4841,14.3787,13.1682,14.2131,12.8253,14.1472C12.4823,14.0813,12.1275,14.1181,11.8054,14.2531C11.48327,14.3879,11.20813,14.6149,11.01447,14.9055C10.8208,15.1961,10.7172,15.5375,10.71667,15.8867L10.71667,16C10.71667,16.1768,10.6464,16.3464,10.5214,16.4714C10.3964,16.5964,10.2268,16.6667,10.05,16.6667C9.8732,16.6667,9.7036,16.5964,9.5786,16.4714C9.4536,16.3464,9.38333,16.1768,9.38333,16L9.38333,15.9247C9.375399999999999,15.5743,9.2634,15.2341,9.061530000000001,14.9475ZM8.51848,12.2173C8.957,12.5103,9.4726,12.6667,10,12.6667C10.70727,12.6667,11.38553,12.3857,11.8856,11.8856C12.3857,11.38553,12.6667,10.70727,12.6667,10C12.6667,9.4726,12.5103,8.957,12.2173,8.51848C11.92427,8.07995,11.50773,7.73815,11.02047,7.53632C10.5332,7.33449,9.99707,7.28168,9.47973,7.38457C8.96247,7.48747,8.48732,7.74144,8.11438,8.11438C7.74144,8.48732,7.48747,8.96247,7.38457,9.47973C7.28168,9.99707,7.33449,10.5332,7.53632,11.02047C7.73815,11.50773,8.07995,11.92427,8.51848,12.2173ZM9.25927,8.8914C9.47853,8.744869999999999,9.736270000000001,8.66667,10,8.66667C10.3536,8.66667,10.69273,8.80713,10.9428,9.0572C11.19287,9.307269999999999,11.33333,9.6464,11.33333,10C11.33333,10.26373,11.25513,10.52147,11.1086,10.74073C10.96213,10.96,10.75387,11.13093,10.51027,11.23187C10.2666,11.33273,9.998529999999999,11.35913,9.73987,11.30773C9.48127,11.25627,9.24367,11.12927,9.0572,10.9428C8.87073,10.75633,8.74373,10.51873,8.69227,10.26013C8.64084,10.00147,8.66727,9.7334,8.76813,9.48973C8.86907,9.24613,9.04,9.03787,9.25927,8.8914Z" fill-rule="evenodd" fill="#999999" fill-opacity="1"/></g></g></g></svg>