<svg xmlns="http://www.w3.org/2000/svg" xmlns:xlink="http://www.w3.org/1999/xlink" fill="none" version="1.1" width="45" height="45" viewBox="0 0 45 45"><defs><clipPath id="master_svg0_1_05495"><rect x="0" y="0" width="45" height="45" rx="0"/></clipPath></defs><g clip-path="url(#master_svg0_1_05495)"><g><path d="M22.49563203125,11.33350491578125L11.047852031249999,11.33350491578125C9.24609203125,11.33350491578125,8.11670203125,12.46729017578125,8.11670203125,14.26466017578125L8.11670203125,24.411630175781248C8.11670203125,26.147430175781253,9.26367203125,27.29443017578125,10.99512203125,27.29443017578125C18.676732031249998,27.29443017578125,26.35843203125,27.298830175781248,34.04003203125,27.29443017578125C35.70553203125,27.29443017578125,36.87013203125,26.138730175781248,36.87453203125,24.46433017578125C36.88333203125,21.03223017578125,36.87893203125,17.60011017578125,36.87893203125,14.16798017578125C36.87893203125,12.50684017578125,35.70993203125,11.33350491578125,34.04443203125,11.33350491578125C30.19483203125,11.32471585578125,26.34523203125,11.32911038378125,22.49563203125,11.33350491578125Q22.49563203125,11.32911038378125,22.49563203125,11.33350491578125ZM5.71728521125,18.15382017578125C5.71728521125,19.019540175781252,5.71289068125,19.885260175781248,5.71728521125,20.74659017578125C5.72167975125,21.32667017578125,6.04248003125,21.70023017578125,6.51269503125,21.69143017578125C6.96533203125,21.68263017578125,7.27734203125,21.32227017578125,7.27734203125,20.76417017578125C7.28174203125,18.98438017578125,7.28174203125,17.204600175781252,7.27734203125,15.42481017578125C7.27295203125,14.88429017578125,6.93457203125,14.51954017578125,6.48193403125,14.52833017578125C6.02929703125,14.54151017578125,5.72167975125,14.90186017578125,5.71728521125,15.45557017578125C5.71289068125,16.360850175781252,5.71728521125,17.25733017578125,5.71728521125,18.15382017578125ZM39.27393203125,18.074720175781252C39.27393203125,17.20899017578125,39.27833203125,16.34327017578125,39.27393203125,15.48194017578125C39.26953203125,14.90186017578125,38.94433203125,14.52833017578125,38.47413203125,14.53712017578125C38.02153203125,14.54591017578125,37.71383203125,14.91065017578125,37.71383203125,15.46436017578125C37.70943203125,17.226570175781248,37.70943203125,18.98878017578125,37.71383203125,20.755380175781248C37.71383203125,21.335430175781248,38.04343203125,21.70903017578125,38.51363203125,21.70023017578125C38.96633203125,21.68703017578125,39.27393203125,21.33103017578125,39.27833203125,20.77296017578125C39.27833203125,19.86768017578125,39.27393203125,18.97120017578125,39.27393203125,18.074720175781252ZM10.54248203125,33.71923017578125L10.54248203125,28.15133017578125L34.44873203125,28.15133017578125L34.44873203125,33.71923017578125L10.54248203125,33.71923017578125Z" fill="#00CC90" fill-opacity="1"/></g></g></svg>