<svg xmlns="http://www.w3.org/2000/svg" xmlns:xlink="http://www.w3.org/1999/xlink" fill="none" version="1.1" width="38" height="38" viewBox="0 0 38 38"><defs><clipPath id="master_svg0_1_05352"><rect x="0" y="0" width="38" height="38" rx="0"/></clipPath></defs><g clip-path="url(#master_svg0_1_05352)"><g><path d="M19.036814453125,18.172423657226563L22.339614453125,18.172423657226563C22.803414453125,18.172423657226563,22.896214453125,18.27262365722656,22.896214453125,18.73282365722656L22.896214453125,19.69022365722656C22.896214453125,19.961123657226562,23.003814453125,20.180023657226563,23.219114453125,20.335923657226562C24.080014453125,20.966823657226563,24.774014453125,21.746123657226562,25.300914453125,22.677523657226562C25.460514453125,22.959523657226562,25.709114453125,23.093123657226563,26.043114453125,23.08942365722656C27.193514453125,23.082023657226564,28.343914453125,23.08942365722656,29.490614453125,23.085723657226563C29.898814453125,23.085723657226563,30.095414453125,22.89272365722656,30.095414453125,22.480823657226562C30.099214453125,21.37132365722656,30.095414453125,20.258023657226563,30.095414453125,19.148423657226562C30.095414453125,18.747623657226562,30.206814453125,18.63262365722656,30.611314453125,18.628923657226565C30.967514453125,18.625223657226563,31.327514453125,18.625223657226563,31.683714453125,18.628923657226565C32.054814453125005,18.63262365722656,32.169914453125,18.74392365722656,32.169914453125,19.111323657226563C32.169914453125,20.26172365722656,32.177314453125,21.412123657226562,32.166114453125005,22.55882365722656C32.162414453124995,22.881623657226562,32.270014453125,23.100623657226564,32.566914453125,23.26012365722656C33.038214453125,23.512523657226563,33.283114453124995,23.920723657226564,33.283114453124995,24.466223657226564C33.283114453124995,25.828123657226563,33.279414453125,27.19002365722656,33.283114453124995,28.551923657226563C33.283114453124995,29.11972365722656,33.034514453125,29.53902365722656,32.544714453124996,29.802523657226562C32.270014453125,29.950923657226564,32.166114453125005,30.15502365722656,32.169914453125,30.459323657226562C32.177314453125,31.609723657226564,32.173614453125,32.76012365722656,32.173614453125,33.90682365722657C32.173614453125,34.311323657226566,32.065914453125,34.418923657226564,31.661514453125,34.418923657226564C31.305214453125,34.418923657226564,30.945214453125,34.422623657226566,30.589014453125,34.418923657226564C30.229014453125,34.41522365722656,30.102914453125,34.29272365722656,30.102914453125,33.932823657226564L30.102914453125,30.630023657226563C30.102914453125,30.143923657226562,29.921014453125,29.95842365722656,29.442314453125,29.95842365722656C28.195414453125,29.95842365722656,26.948614453125,29.96582365722656,25.701714453125,29.954723657226562C25.326914453125,29.950923657226564,25.063414453125,30.088223657226564,24.844514453125,30.388823657226563C23.597614453125,32.09962365722656,21.905414453125,33.09782365722656,19.812414453125,33.29822365722656C17.188814453124998,33.55432365722656,14.984514453125,32.663623657226566,13.340574453125,30.567023657226564C12.991744453125,30.12162365722656,12.635494453125,29.93242365722656,12.075144453124999,29.947223657226562C10.917334453125001,29.980623657226563,9.755804453125,29.95842365722656,8.597994453125,29.95842365722656C8.115574453125,29.95842365722656,7.937444453125,30.140223657226564,7.937444453125,30.626323657226564L7.937444453125,33.90312365722656C7.937444453125,34.30022365722657,7.8186944531249996,34.418923657226564,7.421624453125,34.422623657226566C7.0542444531249995,34.422623657226566,6.6868644531250006,34.42632365722656,6.319474453125,34.422623657226566C5.989204453125,34.418923657226564,5.863034453125,34.29652365722656,5.863034453125,33.96992365722656C5.859324453125,32.81952365722656,5.855614453125,31.669123657226564,5.8667444531249995,30.52242365722656C5.870454453125,30.177323657226562,5.766544453125,29.943523657226564,5.443697453125,29.776523657226562C4.990962453125,29.53902365722656,4.753462963125,29.134523657226563,4.749752023125,28.618723657226564C4.746041083125,27.219723657226563,4.746041083125,25.817023657226564,4.753462963125,24.41422365722656C4.757173893125,23.894723657226564,5.013228453125,23.505023657226563,5.462252453125,23.267523657226562C5.7591244531250005,23.108023657226564,5.8667444531249995,22.889023657226563,5.863034453125,22.566223657226562C5.855614453125,21.41582365722656,5.859324453125,20.265423657226563,5.859324453125,19.11872365722656C5.859324453125,18.751323657226564,5.974364453125,18.636323657226562,6.345454453125,18.63262365722656C6.723974453125,18.628923657226565,7.098774453124999,18.628923657226565,7.477294453124999,18.63262365722656C7.807564453125,18.636323657226562,7.933734453125,18.76622365722656,7.933734453125,19.092723657226564C7.937444453125,20.202323657226565,7.933734453125,21.315623657226563,7.933734453125,22.425223657226564C7.933734453125,22.911323657226564,8.111864453125,23.085723657226563,8.597994453125,23.085723657226563C9.718694453125,23.085723657226563,10.839404453124999,23.078323657226562,11.960104453125,23.08942365722656C12.331194453125,23.093123657226563,12.583544453125,22.941023657226562,12.761664453125,22.625623657226562C13.266354453125,21.727523657226563,13.938034453125,20.97792365722656,14.769314453125,20.369323657226563C15.032714453125,20.17632365722656,15.151514453125,19.924023657226563,15.140414453125,19.597423657226564C15.132914453125,19.278323657226565,15.136714453125,18.959123657226563,15.140414453125,18.640023657226564C15.144114453125,18.283823657226563,15.262814453125,18.168723657226565,15.641314453125,18.165023657226563C16.676714453125,18.16132365722656,17.708314453125,18.165023657226563,18.743714453125,18.16132365722656C18.843914453125002,18.172423657226563,18.940414453125,18.172423657226563,19.036814453125,18.172423657226563ZM19.033114453125002,4.764834597226563C20.896014453125,4.764834597226563,22.762614453125,4.7611236572265625,24.625514453125,4.764834597226563C25.386314453125,4.764834597226563,25.839014453125,5.340029657226562,25.675714453125,6.0785036572265625C25.575514453125,6.531243657226563,25.204414453125,6.828113657226563,24.707214453125,6.831823657226563C23.809114453125,6.839243657226563,22.911114453125,6.831823657226563,22.013014453125,6.835533657226563C21.564014453125,6.835533657226563,21.445214453125,6.954283657226563,21.441514453125,7.395893657226562L21.441514453125,8.004483657226562C21.441514453125,8.264243657226562,21.307914453125,8.394133657226563,21.048214453125,8.401553657226563C20.903414453125,8.405263657226563,20.758714453125,8.397843657226563,20.614014453125,8.412683657226562C20.261514453125002,8.442373657226563,20.157514453125,8.549993657226562,20.157514453125,8.906243657226563C20.153814453125,9.696673657226562,20.157514453125,10.490813657226562,20.157514453125,11.281243657226563C20.157514453125,11.774793657226564,20.057414453125,11.871283657226563,19.563814453124998,11.871283657226563L18.406014453125,11.871283657226563C18.023814453125,11.867573657226561,17.897614453125,11.752533657226563,17.897614453125,11.370303657226563C17.893914453125,10.557603657226561,17.897614453125,9.748623657226563,17.893914453125,8.935923657226564C17.893914453125,8.535143657226563,17.782514453125,8.427533657226562,17.381814453125,8.401553657226563C16.609914453125,8.357023657226563,16.609914453125,8.357023657226563,16.609914453125,7.596283657226563L16.609914453125,7.336513657226563C16.606214453125,6.969133657226562,16.472614453125,6.831823657226563,16.101514453125,6.831823657226563C15.192314453125,6.828113657226563,14.286864453125,6.835533657226563,13.377684453125,6.828113657226563C12.557564453125,6.820693657226562,12.086274453125,6.019133657226563,12.461084453125,5.291787657226562C12.668894453124999,4.891006657226563,13.021434453125,4.7611236572265625,13.448184453125,4.7611236572265625C15.307414453125,4.768545527226562,17.170214453125,4.764834597226563,19.033114453125002,4.764834597226563ZM19.010914453125,17.326323657226563L17.214814453125,17.326323657226563C16.765814453125,17.326323657226563,16.528314453125,17.096323657226563,16.528314453125,16.654723657226562C16.524514453125,15.522823657226562,16.524514453125,14.394713657226562,16.528314453125,13.262883657226563C16.528314453125,12.791593657226562,16.747214453125,12.572643657226562,17.225914453125,12.572643657226562C18.424514453125,12.568933657226562,19.623214453125,12.568933657226562,20.821814453125,12.572643657226562C21.315414453125,12.576353657226562,21.523214453125,12.791593657226562,21.523214453125,13.285143657226563C21.526914453125,14.387293657226563,21.526914453125,15.489423657226563,21.523214453125,16.58792365722656C21.523214453125,17.11852365722656,21.315414453125,17.322623657226565,20.784714453125,17.326323657226563C20.190914453125,17.330023657226562,19.600914453125,17.326323657226563,19.010914453125,17.326323657226563Z" fill="#00CC90" fill-opacity="1"/></g></g></svg>