<svg xmlns="http://www.w3.org/2000/svg" xmlns:xlink="http://www.w3.org/1999/xlink" fill="none" version="1.1" width="16" height="16" viewBox="0 0 16 16"><defs><clipPath id="master_svg0_3_2892"><rect x="0" y="0" width="16" height="16" rx="0"/></clipPath></defs><g clip-path="url(#master_svg0_3_2892)"><g><path d="M7.9953608203125,2.5250244140625C7.8063008203125,2.5250244140625,7.6500508203125,2.6797124140625,7.6500508203125,2.8703374140625L7.6500508203125,4.4672144140625C7.6500508203125,4.6562744140625,7.8047408203125,4.8125244140625,7.9953608203125,4.8125244140625C8.1844208203125,4.8125244140625,8.3406708203125,4.6578344140625,8.3406708203125,4.4672144140625L8.3406708203125,2.8703374140625C8.3406708203125,2.6812744140625,8.185990820312501,2.5250244140625,7.9953608203125,2.5250244140625ZM5.3844208203125,3.4703374140625C5.2891108203125,3.3062744140625,5.0781708203125,3.2484624140625,4.9125508203125,3.3437744140625C4.7484908203125,3.4390874140625,4.6906708203125,3.6515844140625,4.785990820312501,3.8156544140625L5.5844208203125,5.198464414062499C5.6797408203124995,5.3625244140625,5.8906708203125,5.4203344140625,6.0563008203125,5.3250244140625C6.2203608203125,5.229714414062499,6.2781708203125,5.0187744140625,6.1828608203125,4.8531544140625L5.3844208203125,3.4703374140625ZM4.5078608203125,6.2672144140625L3.1234858203125,5.4687744140625C2.9594238203125,5.3734644140625,2.7469238203125,5.4312744140625,2.6516111203125,5.5953344140625C2.5562986203125,5.7594044140625,2.6141111403125,5.9719044140625,2.7781738203125,6.0672144140625L4.1609908203125,6.8656544140625C4.3250508203125,6.9609644140625,4.5375508203125,6.9031544140625,4.6328608203125,6.7390844140625C4.7281708203125,6.5750244140625,4.6719208203125,6.3625244140625,4.5078608203125,6.2672144140625ZM11.0531708203125,3.3437744140625C10.8891108203125,3.2484624140625,10.6766108203125,3.3062744140625,10.5813008203125,3.4703374140625L9.7828608203125,4.8531544140625C9.687550820312499,5.0172144140625,9.7453608203125,5.229714414062499,9.9094208203125,5.3250244140625C10.0734908203125,5.4203344140625,10.285990820312499,5.3625244140625,10.3813008203125,5.198464414062499L11.1797408203125,3.8156544140625C11.2734908203125,3.6515844140625,11.2172408203125,3.4390874140625,11.0531708203125,3.3437744140625ZM11.3313008203125,6.7390844140625C11.4266108203125,6.9031544140625,11.6375508203125,6.9609644140625,11.8031708203125,6.8656544140625L13.1859908203125,6.0672144140625C13.3500908203125,5.9719044140625,13.4078908203125,5.7594044140625,13.3125908203125,5.5953344140625C13.2171908203125,5.4312744140625,13.0046908203125,5.3734644140625,12.8406908203125,5.4687744140625L11.4578608203125,6.2672144140625C11.2938008203125,6.3625244140625,11.2375508203125,6.5750244140625,11.3313008203125,6.7390844140625Z" fill="#FFFFFF" fill-opacity="1"/></g><g><path d="M12.8344,0.628173828125L3.15781,0.628173828125C1.42031,0.628173828125,0,2.0484838281249997,0,3.785983828125L0,12.214073828125C0,13.950073828125,1.42031,15.371973828125,3.15781,15.371973828125L12.8344,15.371973828125C14.5703,15.371973828125,15.9922,13.951573828125,15.9922,12.214073828125L15.9922,3.785983828125C15.9906,2.0484838281249997,14.5703,0.628173828125,12.8344,0.628173828125ZM13.9328,1.921923828125C14.3141,1.921923828125,14.625,2.231293828125,14.625,2.6141138281250003C14.625,2.996923828125,14.3156,3.306303828125,13.9328,3.306303828125C13.55,3.306303828125,13.2406,2.996923828125,13.2406,2.6141138281250003C13.2406,2.231293828125,13.5516,1.921923828125,13.9328,1.921923828125ZM2.15156,1.921923828125C2.53437,1.921923828125,2.84375,2.231293828125,2.84375,2.6141138281250003C2.84375,2.996923828125,2.53437,3.306303828125,2.15156,3.306303828125C1.76875,3.306303828125,1.45938,2.996923828125,1.45938,2.6141138281250003C1.45938,2.231293828125,1.77031,1.921923828125,2.15156,1.921923828125ZM2.15156,13.729773828125C1.76875,13.729773828125,1.45938,13.420373828125,1.45938,13.037573828125C1.45938,12.654773828125,1.76875,12.345373828125,2.15156,12.345373828125C2.53437,12.345373828125,2.84375,12.656273828125,2.84375,13.037573828125C2.84375,13.420373828125,2.53437,13.729773828125,2.15156,13.729773828125ZM8.7,14.217273828125L7.18906,14.217273828125Q5.525,10.168803828125,5.55156,10.168803828125L6.91875,10.168803828125L7.98125,13.307873828125L9.02344,10.168803828125L10.3906,10.168803828125L8.7,14.217273828125ZM13.9328,13.729773828125C13.55,13.729773828125,13.2406,13.420373828125,13.2406,13.037573828125C13.2406,12.654773828125,13.55,12.345373828125,13.9328,12.345373828125C14.3141,12.345373828125,14.625,12.654773828125,14.625,13.037573828125C14.625,13.420373828125,14.3156,13.729773828125,13.9328,13.729773828125ZM14.6234,8.815673828125L9.41719,8.815673828125C9.41875,8.789113828125,9.42188,8.762553828125,9.42188,8.735983828125C9.42188,8.528173828125,9.37656,8.332863828125,9.29688,8.154733828125C9.30156,8.092233828125,9.31094,7.973483828125,9.32812,7.860983828125C9.35313,7.700053828125,10.6687,6.087543828125,10.8641,5.773483828125Q11.0594,5.459423828125,10.8719,5.476613828125C10.0828,5.773483828125,8.63906,7.089113828125,8.49531,7.190673828125C8.37813,7.273483828125,8.16719,7.304733828125,8.09219,7.314113828125C8.05937,7.312553828125,8.02812,7.309423828125,7.99531,7.309423828125C7.20781,7.309423828125,6.56875,7.948483828125,6.56875,8.735983828125C6.56875,8.762553828125,6.57188,8.789113828125,6.57344,8.815673828125L1.36719,8.815673828125C1.36094,8.698483828125,1.35781,8.581293828125,1.35781,8.464113828125C1.35781,4.798483828125,4.32969,1.826613828125,7.99531,1.826613828125C11.6609,1.826613828125,14.6328,4.798483828125,14.6328,8.464113828125C14.6328,8.581293828125,14.6297,8.698483828125,14.6234,8.815673828125Z" fill="#FFFFFF" fill-opacity="1"/></g></g></svg>