<svg xmlns="http://www.w3.org/2000/svg" xmlns:xlink="http://www.w3.org/1999/xlink" fill="none" version="1.1" width="16" height="16" viewBox="0 0 16 16"><defs><clipPath id="master_svg0_3_2760"><rect x="0" y="0" width="16" height="16" rx="0"/></clipPath></defs><g clip-path="url(#master_svg0_3_2760)"><g><path d="M2.99457525,8.99651980702877L7.33769125,8.99651980702877L6.85791125,15.277319807028771C6.83042125,15.57261980702877,7.00409125,15.84961980702877,7.28178125,15.95361980702877C7.55948125,16.057519807028772,7.87238125,15.962619807028771,8.045501250000001,15.721819807028771Q10.04730125,12.93071980702877,13.53893125,8.05953980702877C13.68483125,7.8576698070287705,13.70603125,7.59127980702877,13.59373125,7.36891980702877C13.48153125,7.146559807028771,13.25463125,7.0053798070287705,13.00553125,7.00289980702877L8.66131125,7.00289980702877L9.14108125,0.7200788070287705C9.169091250000001,0.42397780702877047,8.99494125,0.14591580702877044,8.71632125,0.041853307028770444C8.43770125,-0.06220949297122955,8.123911249999999,0.033614507028770446,7.95095125,0.27557980702877044L2.45948325,7.937899807028771C2.31235715,8.14024980702877,2.29092125,8.407949807028771,2.40397185,8.63112980702877C2.51702225,8.854319807028771,2.74552325,8.99540980702877,2.99570425,8.99651980702877L2.99457525,8.99651980702877Z" fill="#FFFFFF" fill-opacity="1"/></g></g></svg>