<svg xmlns="http://www.w3.org/2000/svg" xmlns:xlink="http://www.w3.org/1999/xlink" fill="none" version="1.1" width="120" height="112.800048828125" viewBox="0 0 120 112.800048828125"><defs><clipPath id="master_svg0_136_3338"><rect x="0" y="0" width="120" height="78.11824035644531" rx="0"/></clipPath></defs><g style="mix-blend-mode:passthrough"><g clip-path="url(#master_svg0_136_3338)"><g><path d="M12.765625,53.03363671875L14.356525,53.03363671875C14.785225,53.04133671875,15.128225,53.38713671875,15.128225,53.81103671875C15.128225,54.23973671875,14.790025,54.58843671875,14.356525,54.58843671875L12.765625,54.58843671875L12.765625,56.15843671875C12.754225,56.58453671875,12.404025,56.92323671875,11.977725,56.92053671875C11.771225,56.92363671875,11.571825,56.84493671875,11.423325,56.70143671875C11.275825,56.55913671875,11.191925,56.36333671875,11.190825,56.15843671875L11.190825,54.58743671875L9.599895,54.58743671875C9.173875,54.58173671875,8.830795,54.23613671875,8.828235,53.81013671875C8.828235,53.38143671875,9.166435,53.03273671875,9.599895,53.03273671875L11.190825,53.03273671875L11.190825,51.46273671875C11.202225,51.03693671875,11.551825,50.69843671875,11.977725,50.70063671875C12.413125,50.70063671875,12.765625,51.03593671875,12.765625,51.46273671875L12.765625,53.03363671875ZM116.720125,46.81473671875L116.720125,45.24473671875C116.719125,45.03983671875,116.635125,44.84393671875,116.487125,44.70173671875C116.339125,44.55803671875,116.139125,44.47923671875,115.932125,44.48263671875C115.506125,44.48033671875,115.157125,44.81893671875,115.145125,45.24473671875L115.145125,46.81473671875L113.554125,46.81473671875C113.348125,46.81503671875,113.150125,46.89723671875,113.004125,47.04333671875C112.859125,47.18883671875,112.779125,47.38683671875,112.783125,47.59203671875C112.783125,48.00843671875,113.128125,48.36943671875,113.554125,48.36943671875L115.145125,48.36943671875L115.145125,49.93943671875C115.145125,50.36713671875,115.498125,50.70153671875,115.932125,50.70153671875C116.361125,50.70153671875,116.711125,50.36243671875,116.720125,49.93943671875L116.720125,48.36943671875L118.311125,48.36943671875C118.744125,48.36943671875,119.082125,48.02073671875,119.082125,47.59203671875C119.080125,47.16603671875,118.737125,46.82043671875,118.311125,46.81473671875L116.720125,46.81473671875ZM59.501225,72.46603671875L19.848625,72.46603671875C19.431325,72.46603671875,19.031225,72.30313671875,18.735925,72.01163671875C18.441925,71.72123671875,18.277125,71.32463671875,18.278625,70.91133671875C18.278625,70.05393671875,18.992225,69.35753671875,19.848625,69.35753671875L26.991725,69.35753671875C26.440825,68.41683671875,26.151325,67.34583671875,26.153325,66.25563671875L26.153325,21.15573671875C26.154325,19.50573671875,26.820225,17.92433671875,28.002425,16.75923671875C29.192125,15.59143671875,30.793925,14.93943671875,32.460925,14.94433671875L37.179425,14.94433671875L37.179425,13.38203671875C37.179425,11.73293671875,37.845325,10.15153671875,39.027625,8.98642671875C40.217225,7.81871671875,41.819125,7.16669671875,43.486025,7.17160671875L81.274325,7.17160671875C82.941225,7.16612671875,84.543125,7.81784671875,85.732825,8.98547671875C86.913225,10.14405671875,87.579025,11.72803671875,87.580925,13.38203671875L87.580925,58.48193671875C87.580925,59.61273671875,87.276125,60.67113671875,86.742625,61.58383671875L95.454725,61.58383671875C96.320225,61.57593671875,97.027225,62.27303671875,97.031325,63.13853671875C97.031325,63.99593671875,96.331125,64.69333671875,95.456625,64.69333671875L76.555825,64.69333671875L76.555825,66.25563671875C76.555825,67.38553671875,76.250925,68.44483671875,75.716525,69.35753671875L76.560525,69.35753671875C77.427525,69.35753671875,78.130525,70.04723671875,78.130525,70.91133671875C78.130525,71.76963671875,77.417025,72.46603671875,76.560525,72.46603671875L68.274325,72.46603671875C69.012225,73.68723671875,68.811725,75.25573671875,67.790325,76.25193671875C67.197425,76.83813671875,66.396925,77.16653671875,65.563025,77.16553671875C64.729525,77.16623671875,63.929425,76.83793671875,63.336625,76.25193671875L59.501225,72.46603671875ZM65.259125,69.35753671875L70.268225,69.35753671875C71.996925,69.36703671875,73.403825,67.96913671875,73.405325,66.24043671875L73.405325,21.08233671875C73.405325,19.40553671875,72.043225,18.04763671875,70.366325,18.05293671875L32.342825000000005,18.05293671875C30.666625,18.04973671875,29.305425,19.40623671875,29.302825,21.08233671875L29.302825,66.24043671875C29.302825,67.96093671875,30.720425,69.35753671875,32.439025,69.35753671875L56.347925,69.35753671875L55.538225,68.55733671875C54.740425,67.77803671875,54.427025,66.62793671875,54.718925,65.55163671875L53.232725,64.08263671875C48.599925,67.48553671875,42.091325,66.78533671875,38.310225,62.47643671875C34.529525,58.18383671875,34.758625,51.68593671875,38.832325,47.67023671875C42.919225,43.62143671875,49.483025,43.38323671875,53.860525,47.12523671875C58.237125,50.86633671875,58.936325,57.31303671875,55.460025,61.88393671875L56.948125,63.35293671875C58.034325,63.06243671875,59.193025,63.36953671875,59.992825,64.15983671875L65.258225,69.35753671875L65.259125,69.35753671875ZM76.555825,61.58383671875L81.295325,61.58383671875C83.029125,61.57523671875,84.429525,60.18623671875,84.431425,58.47433671875L84.431425,13.38963671875C84.431425,11.66723671875,83.026325,10.28014671875,81.295325,10.28014671875L43.463225,10.28014671875C41.730325,10.28967671875,40.329925,11.67863671875,40.328925,13.38963671875L40.328925,14.94433671875L70.249225,14.94433671875C71.916125,14.93893671875,73.518025,15.59063671875,74.707625,16.75823671875C75.888325,17.91703671875,76.554125,19.50143671875,76.555825,21.15573671875L76.555825,61.58383671875ZM21.034725,4.45080671875L23.381125,4.45080671875C24.043225,4.45080671875,24.578625,4.96810671875,24.578625,5.61686671875C24.578625,6.25991671875,24.043225,6.78292671875,23.381125,6.78292671875L21.034725,6.78292671875L21.034725,9.09789671875C21.034725,9.75141671875,20.510725,10.27919671875,19.853425,10.27919671875C19.539025,10.27762671875,19.237825,10.15236671875,19.015025,9.93051671875C18.793825,9.71009671875,18.670325,9.41015671875,18.672125,9.09789671875L18.672125,6.78292671875L16.325725,6.78292671875C16.010424999999998,6.78611671875,15.706725,6.66454671875,15.480625,6.44472671875C15.256625,6.22699671875,15.129625,5.92830671875,15.128225,5.61591671875C15.128225,4.97286671875,15.663625,4.45080671875,16.325725,4.45080671875L18.672125,4.45080671875L18.672125,2.1339367187500002C18.672125,1.48152271875,19.201025,0.95263671875,19.853425,0.95263671875C20.505825,0.95263671875,21.034725,1.48152271875,21.034725,2.1339367187500002L21.034725,4.45080671875ZM2.527335,70.91133671875C2.527335,70.05393671875,3.241835,69.35753671875,4.098275,69.35753671875L13.558225,69.35753671875C14.424125,69.35753671875,15.128225,70.04723671875,15.128225,70.91133671875C15.128225,71.76963671875,14.414625,72.46603671875,13.558225,72.46603671875L4.098275,72.46603671875C3.681005,72.46603671875,3.279935,72.30313671875,2.985565,72.01163671875C2.691535,71.72123671875,2.526735,71.32463671875,2.528285,70.91133671875L2.527335,70.91133671875ZM52.199125,60.86263671875C54.185525,58.91153671875,54.964825,56.04063671875,54.237825,53.35283671875C53.509025,50.67013671875,51.386525,48.57523671875,48.668525,47.85593671875C45.954925,47.13543671875,43.062425,47.90033671875,41.059625,49.86803671875C37.984225,52.88733671875,37.984225,57.84233671875,41.059625,60.86173671875C44.136725,63.89883671875,49.122925,63.89883671875,52.199125,60.86173671875L52.199125,60.86263671875ZM35.603725,24.27183671875C35.603725,23.41453671875,36.308725,22.71903671875,37.177525,22.71813671875L54.504525,22.71813671875C55.374325,22.71813671875,56.080225,23.41353671875,56.080225,24.27183671875C56.080225,25.13113671875,55.375325,25.82663671875,54.504525,25.82663671875L37.179425,25.82663671875C36.762625,25.82823671875,36.362125,25.66533671875,36.064825,25.37313671875C35.769225,25.08303671875,35.603025,24.68603671875,35.603725,24.27183671875ZM35.603725,32.04563671875C35.603725,31.18823671875,36.304925,30.49083671875,37.168025,30.49083671875L62.391625,30.49083671875C63.254725,30.49083671875,63.954925,31.18153671875,63.954925,32.04563671875C63.954925,32.90303671875,63.254725,33.60033671875,62.391625,33.60033671875L37.168025,33.60033671875C36.751725,33.60033671875,36.352525,33.43553671875,36.059125,33.14303671875C35.766125,32.85323671875,35.602025,32.45773671875,35.603725,32.04563671875ZM35.603725,39.81933671875C35.603725,38.96093671875,36.306825,38.26453671875,37.175625,38.26453671875L48.207425,38.26453671875C49.075325,38.26453671875,49.779325,38.95433671875,49.779325,39.81833671875C49.779325,40.67673671875,49.077225,41.37313671875,48.207425,41.37313671875L37.175625,41.37313671875C36.758325,41.37403671875,36.357325,41.21113671875,36.061925,40.91873671875C35.767925,40.62823671875,35.603125,40.23163671875,35.603725,39.81933671875L35.603725,39.81933671875ZM5.677785,30.48993671875C3.996685,30.49373671875,2.439505,29.60613671875,1.5861070000000002,28.15783671875C0.742131,26.71793671875,0.742131,24.93433671875,1.5861070000000002,23.49453671875C2.439505,22.04613671875,3.996685,21.15853671875,5.677785,21.16243671875C8.288084999999999,21.16243671875,10.402985,23.25063671875,10.402985,25.82563671875C10.402985,28.40163671875,8.288084999999999,30.48993671875,5.677785,30.48993671875ZM5.677785,28.15783671875C6.521845,28.15783671875,7.302075,27.71383671875,7.724105,26.99173671875C8.146275,26.27163671875,8.146275,25.37963671875,7.724105,24.65963671875C7.297075,23.93563671875,6.518315,23.49223671875,5.677785,23.49453671875C4.372645,23.49453671875,3.315185,24.53863671875,3.315185,25.82563671875C3.315185,27.11363671875,4.372645,28.15783671875,5.677785,28.15783671875ZM103.332125,21.16243671875C100.721925,21.16243671875,98.607025,19.07413671875,98.607025,16.49813671875C98.607025,13.92213671875,100.721925,11.83393671875,103.332125,11.83393671875C105.941125,11.83393671875,108.057125,13.92213671875,108.057125,16.49813671875C108.057125,19.07413671875,105.941125,21.16243671875,103.332125,21.16243671875ZM103.332125,18.83023671875C104.176125,18.83023671875,104.956125,18.38543671875,105.378125,17.66423671875C105.801125,16.944136718750002,105.801125,16.05213671875,105.378125,15.33213671875C104.952125,14.60773671875,104.173125,14.16393671875,103.332125,14.16603671875C102.027125,14.16603671875,100.970125,15.21013671875,100.970125,16.49813671875C100.970125,17.78613671875,102.027125,18.83023671875,103.332125,18.83023671875Z" fill="#999999" fill-opacity="1"/></g></g><g style="mix-blend-mode:passthrough"><path d="M36.96029,102.9384L36.96029,101.80367L33.82487,102.068L33.701823,101.22945Q35.39258,101.13374999999999,36.96029,100.99247L36.96029,99.95797L34.49935,99.95797L34.49935,99.25615Q34.90495,98.73661,35.49284,97.66109L34.02083,97.66109L34.02083,96.86357L35.91211,96.86357Q36.27669,96.09338,36.45898,95.62854L37.39779,95.85185Q37.14258,96.43974,36.93294,96.86357L39.94531,96.86357L39.94531,97.66109L36.52734,97.66109Q36.00781,98.65458,35.63411,99.17411L36.96029,99.17411L36.96029,98.12138L37.9401,98.1624L37.9401,99.17411L39.73568,99.17411L39.73568,99.95797L37.9401,99.95797L37.9401,100.90588Q38.75586,100.8512,39.85872,100.72815L39.8724,101.21578L39.886070000000004,101.52568L37.9401,101.72164000000001L37.9401,102.9384L36.96029,102.9384ZM46.102199999999996,99.18779L46.102199999999996,100.03999999999999L44.2428,100.03999999999999L44.2428,102.7835L43.2357,102.7835L43.2357,100.03999999999999L41.35807,100.03999999999999Q41.28971,100.96513,41.020830000000004,101.61682Q40.75651,102.264,40.113929999999996,103.0797L39.29818,102.5875Q39.81771,101.98596,40.05469,101.51656Q40.29622,101.04716,40.35547,100.52307Q40.41927,99.99898,40.41927,99.01917L40.41927,96.86357Q42.675129999999996,96.72229,45.168,96.12073L45.4323,97.03219Q43.5137,97.51982,41.37174,97.74312L41.37174,99.18779L46.102199999999996,99.18779ZM36.64128,108.4117L35.57487,108.4117L35.57487,103.2028L44.1882,103.2028L44.1882,108.3981L43.1081,108.3981L43.1081,107.7418L36.64128,107.7418L36.64128,108.4117ZM43.1081,105.094L43.1081,104.0322L36.64128,104.0322L36.64128,105.094L43.1081,105.094ZM36.64128,105.8916L36.64128,106.999L43.1081,106.999L43.1081,105.8916L36.64128,105.8916ZM59.1543,101.46643L53.4714,101.46643Q53.1888,102.9795,52.5326,104.1643Q51.8763,105.3447,50.7598,106.3746Q49.647800000000004,107.4046,47.9525,108.4254L47.2689,107.5322Q49.552099999999996,106.2425,50.727900000000005,104.8297Q51.9036,103.4124,52.322900000000004,101.46643L47.897800000000004,101.46643L47.897800000000004,100.45927L52.4915,100.45927Q52.5736,99.74378,52.587199999999996,99.29716Q52.600899999999996,99.1012,52.600899999999996,98.80953Q52.600899999999996,98.51331,52.614599999999996,98.23531L52.628299999999996,97.67476L48.7227,97.67476L48.7227,96.6676L58.3294,96.6676L58.3294,97.67476L53.722,97.67476Q53.722,98.70927,53.681,99.38375Q53.6673,99.762,53.6081,100.45927L59.1543,100.45927L59.1543,101.46643ZM59.5462,105.1351Q59.5189,105.7229,59.4186,106.4248Q59.336600000000004,107.0263,59.1543,107.3317Q58.972,107.6416,58.598299999999995,107.7828Q58.2292,107.9241,57.5182,107.9515Q56.8438,107.9788,56.4655,107.9788Q56.114599999999996,107.9788,55.4173,107.9515Q54.4648,107.9059,54.059200000000004,107.5413Q53.6536,107.1813,53.6536,106.2561L53.6536,102.0862L54.7428,102.1272L54.7428,105.9599Q54.7428,106.5068,54.975300000000004,106.7255Q55.2077,106.9397,55.7819,106.9716Q56.0326,106.9853,56.538399999999996,106.9853Q57.039699999999996,106.9853,57.263000000000005,106.9716Q57.714200000000005,106.9397,57.9375,106.8577Q58.160799999999995,106.7757,58.2565,106.5797Q58.3568,106.3837,58.411500000000004,105.9782Q58.498000000000005,105.3584,58.498000000000005,104.816L59.5462,105.1351ZM73.6465,107.66890000000001L72.9173,108.4254Q71.3086,107.1676,70.3014,105.764Q69.33529999999999,107.0263,67.41669999999999,108.3981L66.7741,107.6142Q68.7337,106.3245,69.74090000000001,104.8844Q68.7474,103.1481,68.3965,100.79651Q68.0866,101.32971,67.9225,101.59404L67.1387,100.93779Q67.8906,100.01266,68.4648,98.57711Q69.03909999999999,97.14156,69.26689999999999,95.83818L70.2467,96.07971Q70.0189,97.04586,69.6589,98.08036L73.42320000000001,98.08036L73.42320000000001,99.08753L72.34309999999999,99.08753Q72.1608,101.12008,71.8372,102.469Q71.51820000000001,103.818,70.88929999999999,104.8981Q71.8555,106.2972,73.6465,107.66890000000001ZM60.726600000000005,101.99963Q61.660799999999995,101.53935,62.4674,100.92867Q63.274100000000004,100.31799,63.875699999999995,99.64807L61.1732,99.64807L61.1732,98.79586L64.0853,98.79586L64.0853,95.92476L65.0241,95.97945L65.0241,98.79586L67.58529999999999,98.79586L67.58529999999999,99.64807L65.0241,99.64807L65.0241,102.2503L64.0853,102.2503L64.0853,100.55953Q62.9095,101.84469,61.227900000000005,102.7561L60.726600000000005,101.99963ZM67.4987,96.59469Q67.3027,97.04586,66.96090000000001,97.63375Q66.6191,98.22164,66.3229,98.58622L65.5983,98.18974Q65.8763,97.82971,66.1908,97.26917Q66.5052,96.70862,66.6875,96.24378L67.4987,96.59469ZM62.5723,98.56799Q62.4447,98.13505,62.1849,97.56995Q61.9297,97.00029,61.6927,96.60836L62.462900000000005,96.33036Q62.6589,96.65393,62.9277,97.24182Q63.2012,97.82971,63.3698,98.30367L62.5723,98.56799ZM70.3014,103.9183Q70.74799999999999,102.9795,71.0078,101.81734Q71.2676,100.65523,71.4089,99.08753L69.235,99.08753L69.0664,99.47945Q69.2214,100.81018,69.513,101.90393Q69.8092,102.9931,70.3014,103.9183ZM66.9837,102.4782Q66.09960000000001,101.39807,65.2201,100.62789000000001L65.78059999999999,100.10836Q66.12700000000001,100.39091,66.6237,100.87398Q67.12039999999999,101.35706,67.54429999999999,101.83100999999999L66.9837,102.4782ZM66.5052,107.6416Q65.5527,107.0947,64.8555,106.762Q63.620400000000004,107.6005,61.3828,108.3571L60.8906,107.4729Q62.8548,106.9261,63.9167,106.2972Q62.822900000000004,105.7959,61.8294,105.4039Q62.2214,104.7841,62.613299999999995,104.0595L61.0182,104.0595L61.0182,103.2164L63.0326,103.2164Q63.3151,102.5739,63.4427,102.2503L64.3359,102.5465Q64.2539,102.7698,64.0579,103.2164L67.0658,103.2164L67.0658,104.014Q66.7467,104.6884,66.40950000000001,105.1943Q66.0723,105.6956,65.612,106.1422Q66.1862,106.3837,66.8835,106.7301L66.5052,107.6416ZM64.7279,105.7503Q65.1471,105.4039,65.4479,104.9983Q65.7487,104.5882,66.0312,104.0595L63.666,104.0595Q63.552099999999996,104.2692,63.1055,105.0667Q63.903,105.3903,64.7279,105.7503ZM78.96940000000001,102.0999Q78.2812,102.41890000000001,77.584,102.7151L77.584,106.7757Q77.584,107.3499,77.4473,107.6507Q77.3151,107.9515,76.9779,108.0836Q76.6452,108.2158,75.9889,108.2568L75.3691,108.316L75.1048,107.3636L75.793,107.3043Q76.30789999999999,107.2633,76.46289999999999,107.1175Q76.6178,106.9716,76.6178,106.5068L76.6178,103.1071Q75.30080000000001,103.622,74.7402,103.7907L74.53059999999999,102.7972Q75.14580000000001,102.6149,76.6178,102.0407L76.6178,99.39742L74.99090000000001,99.39742L74.99090000000001,98.43128L76.6178,98.43128L76.6178,95.89742L77.584,95.92476L77.584,98.43128L78.90100000000001,98.43128L78.90100000000001,99.39742L77.584,99.39742L77.584,101.6624Q78.21289999999999,101.39807,78.78710000000001,101.12008L78.8828,101.67607L78.96940000000001,102.0999ZM87.24090000000001,102.3505L84.1328,102.3505L84.1328,103.9046L86.3203,103.9046L86.3203,108.4391L85.3815,108.4391L85.3815,107.7099L81.9499,107.7099L81.9499,108.4528L81.0111,108.4528L81.0111,103.9046L83.1849,103.9046L83.1849,102.3505L80.4551,102.3505Q80.3548,104.3375,79.9902,105.6546Q79.6257,106.9716,78.78710000000001,108.3297L77.88929999999999,107.7965Q78.53649999999999,106.7164,78.8783,105.7594Q79.2201,104.7978,79.36590000000001,103.5901Q79.5163,102.3779,79.5163,100.51396L79.5163,96.60836L86.5436,96.60836L86.5436,99.99898L80.4824,99.99898L80.4824,100.64156Q80.4824,101.22945,80.4688,101.49378L83.1849,101.49378L83.1849,100.31799L84.1328,100.3499L84.1328,101.49378L87.24090000000001,101.49378L87.24090000000001,102.3505ZM85.5638,99.11487L85.5638,97.50615L80.4824,97.50615L80.4824,99.11487L85.5638,99.11487ZM81.9499,106.844L85.3815,106.844L85.3815,104.7978L81.9499,104.7978L81.9499,106.844Z" fill="#999999" fill-opacity="1"/></g></g></svg>