<svg xmlns="http://www.w3.org/2000/svg" xmlns:xlink="http://www.w3.org/1999/xlink" fill="none" version="1.1" width="24" height="24" viewBox="0 0 24 24"><g style="mix-blend-mode:passthrough"><g style="mix-blend-mode:passthrough"></g><g style="mix-blend-mode:passthrough"><path d="M2,9.00003353816986L2,4.000033538169861Q2,3.171603538169861,2.585786,2.5858135381698606Q3.17157,2.000028538169861,4,2.000028538169861L9,2.000028538169861Q9.82843,2.000028538169861,10.41421,2.5858135381698606Q11,3.171603538169861,11,4.000033538169861L11,9.00003353816986Q11,9.82845353816986,10.41421,10.414243538169861Q9.82843,11.00003353816986,9,11.00003353816986L4,11.00003353816986Q3.17157,11.00003353816986,2.585786,10.414243538169861Q2.0000000596046,9.82845353816986,2,9.00003353816986ZM4,9.00003353816986L4,9.00003353816986L9,9.00003353816986L9,9.00003353816986L9,4.000033538169861L9,4.000033538169861L4,4.000033538169861L4,4.000033538169861L4,9.00003353816986ZM2,20.00001353816986L2,15.000013538169862Q2,14.171613538169861,2.585786,13.58581353816986Q3.17157,13.000013538169862,4,13.000013538169862L9,13.000013538169862Q9.82843,13.000013538169862,10.41421,13.58581353816986Q11,14.171613538169861,11,15.000013538169862L11,20.00001353816986Q11,20.828413538169862,10.41421,21.41421353816986Q9.82843,22.00001353816986,9,22.00001353816986L4,22.00001353816986Q3.17157,22.00001353816986,2.585786,21.41421353816986Q2.0000000596046,20.828413538169862,2,20.00001353816986ZM4,20.00001353816986L4,20.00001353816986L9,20.00001353816986L9,20.00001353816986L9,15.000013538169862L9,15.000013538169862L4,15.000013538169862L4,15.000013538169862L4,20.00001353816986ZM12.7574,4.82845353816986L15.5858,2.000028538169861Q16.171599999999998,1.4142426252698608,17,1.414242506069861Q17.828400000000002,1.4142425656698607,18.4142,2.000028538169861L21.2426,4.82845353816986Q21.8284,5.414243538169861,21.8284,6.242673538169861Q21.8284,7.071093538169861,21.2426,7.656883538169861L18.4142,10.48531353816986Q17.828400000000002,11.07109353816986,17,11.07109353816986Q16.171599999999998,11.07109353816986,15.5858,10.48531353816986L12.7574,7.656883538169861Q12.1716,7.071093538169861,12.1716,6.242673538169861Q12.1716,5.414243538169861,12.7574,4.82845353816986ZM14.1716,6.242673538169861L14.1716,6.242673538169861L17,9.071093538169862L17,9.071093538169862L19.8284,6.242673538169861L19.8284,6.242673538169861L17,3.414243538169861L17,3.414243538169861L14.1716,6.242673538169861ZM13,20.00001353816986L13,15.000013538169862Q13,14.171613538169861,13.5858,13.58581353816986Q14.1716,13.000013538169862,15,13.000013538169862L20,13.000013538169862Q20.8284,13.000013538169862,21.4142,13.58581353816986Q22,14.171613538169861,22,15.000013538169862L22,20.00001353816986Q22,20.828413538169862,21.4142,21.41421353816986Q20.8284,22.00001353816986,20,22.00001353816986L15,22.00001353816986Q14.1716,22.00001353816986,13.5858,21.41421353816986Q13,20.828413538169862,13,20.00001353816986ZM15,20.00001353816986L15,20.00001353816986L20,20.00001353816986L20,20.00001353816986L20,15.000013538169862L20,15.000013538169862L15,15.000013538169862L15,15.000013538169862L15,20.00001353816986Z" fill="#999999" fill-opacity="1"/></g></g></svg>