<svg xmlns="http://www.w3.org/2000/svg" xmlns:xlink="http://www.w3.org/1999/xlink" fill="none" version="1.1" width="25.029052734375" height="25.212890625" viewBox="0 0 25.029052734375 25.212890625"><g style="mix-blend-mode:passthrough"><g style="mix-blend-mode:passthrough"></g><g style="mix-blend-mode:passthrough" transform="matrix(0.7071067690849304,0.7071068286895752,-0.7071068286895752,0.7071067690849304,4.431324619872271,-10.698164273248494)"><path d="M29.129487991333008,6.33323Q29.129487991333008,4.92811,28.050087991333008,4.02857L24.050037991333006,0.695237Q23.215637991333008,-0.0000992119,22.129487991333008,-0.0000991523Q21.043337991333008,-0.0000990927,20.20893799133301,0.695237L16.20893799133301,4.02857Q15.129487991333008,4.92811,15.129487991333008,6.33323L15.129487991333008,18.3962Q15.129487991333008,19.6389,16.008167991333007,20.5176Q16.886847991333006,21.3962,18.129487991333008,21.3962L26.129487991333008,21.3962Q27.372087991333007,21.3962,28.250787991333006,20.5176Q29.129487991333008,19.6389,29.129487991333008,18.3962L29.129487991333008,6.33323ZM22.76966799133301,2.23168L26.769687991333008,5.56501Q27.129487991333008,5.86486,27.129487991333008,6.33323L27.129487991333008,18.3962Q27.129487991333008,18.8104,26.83658799133301,19.1033Q26.54368799133301,19.3962,26.129487991333008,19.3962L18.129487991333008,19.3962Q17.715277991333007,19.3962,17.422377991333008,19.1033Q17.129487991333008,18.8104,17.129487991333008,18.3962L17.129487991333008,6.33323Q17.129487991333008,5.86486,17.489307991333007,5.56501L21.489307991333007,2.23168Q21.767437991333008,1.9999,22.129487991333008,1.9999Q22.491537991333008,1.9999,22.76966799133301,2.23168ZM22.129487991333008,8.39648Q22.203177991333007,8.39648,22.27651799133301,8.38926Q22.349847991333007,8.38204,22.422117991333007,8.36766Q22.49439799133301,8.35329,22.564917991333008,8.33189Q22.635427991333007,8.3105,22.70350799133301,8.2823Q22.771597991333007,8.2541,22.83657799133301,8.21937Q22.901567991333007,8.18463,22.962837991333007,8.14369Q23.024117991333007,8.10275,23.081077991333007,8.056Q23.138037991333007,8.00925,23.190147991333006,7.95714Q23.242257991333005,7.90504,23.28900799133301,7.84807Q23.335747991333008,7.79111,23.376687991333007,7.72984Q23.417627991333006,7.66857,23.452367991333006,7.60358Q23.48710799133301,7.53859,23.51530799133301,7.47051Q23.54350799133301,7.40243,23.564897991333005,7.33191Q23.58628799133301,7.26139,23.600667991333008,7.18912Q23.615037991333008,7.11684,23.622267991333008,7.04351Q23.629487991333008,6.97017,23.629487991333008,6.89648Q23.629487991333008,6.82279,23.622267991333008,6.74946Q23.615037991333008,6.67612,23.600667991333008,6.60385Q23.58628799133301,6.53157,23.564897991333005,6.46106Q23.54350799133301,6.39054,23.51530799133301,6.32246Q23.48710799133301,6.25438,23.452367991333006,6.18939Q23.417627991333006,6.1244,23.376687991333007,6.06313Q23.335747991333008,6.00186,23.28900799133301,5.94489Q23.242257991333005,5.88793,23.190147991333006,5.83582Q23.138037991333007,5.78372,23.081077991333007,5.73697Q23.024117991333007,5.69022,22.962837991333007,5.64928Q22.901567991333007,5.60834,22.83657799133301,5.5736Q22.771597991333007,5.53886,22.70350799133301,5.51066Q22.635427991333007,5.48247,22.564917991333008,5.46107Q22.49439799133301,5.43968,22.422117991333007,5.42531Q22.349847991333007,5.41093,22.27651799133301,5.40371Q22.203177991333007,5.39648,22.129487991333008,5.39648Q22.05579799133301,5.39648,21.982457991333007,5.40371Q21.90912799133301,5.41093,21.83684799133301,5.42531Q21.764577991333006,5.43968,21.694057991333008,5.46107Q21.62354799133301,5.48247,21.555457991333007,5.51066Q21.48737799133301,5.53886,21.422387991333007,5.5736Q21.35740799133301,5.60834,21.29612799133301,5.64928Q21.23485799133301,5.69022,21.17789799133301,5.73697Q21.120937991333008,5.78372,21.06882799133301,5.83582Q21.016717991333007,5.88793,20.969967991333007,5.94489Q20.923227991333007,6.00186,20.88228799133301,6.06313Q20.84134799133301,6.1244,20.80660799133301,6.18939Q20.771867991333007,6.25438,20.74366799133301,6.32246Q20.715467991333007,6.39054,20.694077991333007,6.46106Q20.672687991333007,6.53157,20.658307991333007,6.60385Q20.643937991333008,6.67612,20.636707991333008,6.74946Q20.629487991333008,6.82279,20.629487991333008,6.89648Q20.629487991333008,6.97017,20.636707991333008,7.04351Q20.643937991333008,7.11684,20.658307991333007,7.18912Q20.672687991333007,7.26139,20.694077991333007,7.33191Q20.715467991333007,7.40243,20.74366799133301,7.47051Q20.771867991333007,7.53859,20.80660799133301,7.60358Q20.84134799133301,7.66857,20.88228799133301,7.72984Q20.923227991333007,7.79111,20.969967991333007,7.84807Q21.016717991333007,7.90504,21.06882799133301,7.95714Q21.120937991333008,8.00925,21.17789799133301,8.056Q21.23485799133301,8.10275,21.29612799133301,8.14369Q21.35740799133301,8.18463,21.422387991333007,8.21937Q21.48737799133301,8.2541,21.555457991333007,8.2823Q21.62354799133301,8.3105,21.694057991333008,8.33189Q21.764577991333006,8.35329,21.83684799133301,8.36766Q21.90912799133301,8.38204,21.982457991333007,8.38926Q22.05579799133301,8.39648,22.129487991333008,8.39648Z" fill-rule="evenodd" fill="#999999" fill-opacity="1"/></g></g></svg>