<svg xmlns="http://www.w3.org/2000/svg" xmlns:xlink="http://www.w3.org/1999/xlink" fill="none" version="1.1" width="24" height="24" viewBox="0 0 24 24"><g style="mix-blend-mode:passthrough"><g style="mix-blend-mode:passthrough"></g><g style="mix-blend-mode:passthrough" transform="matrix(0.7071067690849304,0.7071068286895752,-0.7071068286895752,0.7071067690849304,4.535701322430413,-10.547658657828215)"><path d="M17,19.597646619224548C15.895429,19.597646619224548,15,18.70214661922455,15,17.597646619224548L15,5.534606619224548C15,4.941046619224548,15.263646,4.378146619224548,15.719631,3.9981566192245483L19.719630000000002,0.6648276192245484C20.46132,0.046750619224548345,21.53868,0.046750619224548345,22.280369999999998,0.6648276192245484L26.2804,3.9981566192245483C26.7364,4.378146619224548,27,4.941046619224548,27,5.534606619224548L27,17.597646619224548C27,18.70214661922455,26.104599999999998,19.597646619224548,25,19.597646619224548L17,19.597646619224548ZM20.99988,7.597726619224549Q21.07357,7.597726619224549,21.1469,7.5905066192245485Q21.22024,7.583286619224548,21.29251,7.568906619224548Q21.36479,7.554536619224549,21.435299999999998,7.533136619224548Q21.50582,7.511746619224549,21.573900000000002,7.483546619224549Q21.64198,7.4553466192245486,21.70697,7.420616619224548Q21.77196,7.385876619224549,21.83323,7.344936619224549Q21.8945,7.303996619224549,21.95147,7.257246619224548Q22.00843,7.210496619224548,22.06054,7.158386619224548Q22.112650000000002,7.106286619224548,22.159390000000002,7.049316619224548Q22.20614,6.992356619224548,22.24708,6.931086619224549Q22.28802,6.869816619224548,22.32276,6.804826619224548Q22.3575,6.7398366192245485,22.3857,6.671756619224548Q22.413899999999998,6.603676619224548,22.435290000000002,6.533156619224548Q22.45668,6.462636619224548,22.47106,6.390366619224548Q22.48543,6.318096619224549,22.49266,6.244756619224549Q22.49988,6.171416619224549,22.49988,6.097726619224549Q22.49988,6.024036619224549,22.49266,5.950706619224548Q22.48543,5.877366619224548,22.47106,5.805096619224549Q22.45668,5.732816619224549,22.435290000000002,5.662306619224548Q22.413899999999998,5.591786619224548,22.3857,5.523706619224549Q22.3575,5.455626619224549,22.32276,5.390636619224549Q22.28802,5.325646619224548,22.24708,5.2643766192245485Q22.20614,5.203106619224548,22.159390000000002,5.146136619224548Q22.112650000000002,5.089176619224548,22.06054,5.037066619224548Q22.00843,4.984966619224548,21.95147,4.938216619224549Q21.8945,4.891466619224548,21.83323,4.850526619224548Q21.77196,4.809586619224548,21.70697,4.774846619224548Q21.64198,4.7401166192245485,21.573900000000002,4.711906619224548Q21.50582,4.6837166192245485,21.435299999999998,4.662316619224549Q21.36479,4.640926619224548,21.29251,4.626556619224548Q21.22024,4.612176619224548,21.1469,4.604956619224549Q21.07357,4.597726619224549,20.99988,4.597726619224549Q20.92619,4.597726619224549,20.85285,4.604956619224549Q20.779519999999998,4.612176619224548,20.70724,4.626556619224548Q20.63497,4.640926619224548,20.56445,4.662316619224549Q20.49393,4.6837166192245485,20.42585,4.711906619224548Q20.357770000000002,4.7401166192245485,20.29278,4.774846619224548Q20.22779,4.809586619224548,20.16652,4.850526619224548Q20.105249999999998,4.891466619224548,20.04829,4.938216619224549Q19.99132,4.984966619224548,19.93922,5.037066619224548Q19.88711,5.089176619224548,19.84036,5.146136619224548Q19.79361,5.203106619224548,19.752670000000002,5.2643766192245485Q19.71173,5.325646619224548,19.677,5.390636619224549Q19.64226,5.455626619224549,19.614060000000002,5.523706619224549Q19.58586,5.591786619224548,19.56447,5.662306619224548Q19.54308,5.732816619224549,19.5287,5.805096619224549Q19.514319999999998,5.877366619224548,19.5071,5.950706619224548Q19.49988,6.024036619224549,19.49988,6.097726619224549Q19.49988,6.171416619224549,19.5071,6.244756619224549Q19.514319999999998,6.318096619224549,19.5287,6.390366619224548Q19.54308,6.462636619224548,19.56447,6.533156619224548Q19.58586,6.603676619224548,19.614060000000002,6.671756619224548Q19.64226,6.7398366192245485,19.677,6.804826619224548Q19.71173,6.869816619224548,19.752670000000002,6.931086619224549Q19.79361,6.992356619224548,19.84036,7.049316619224548Q19.88711,7.106286619224548,19.93922,7.158386619224548Q19.99132,7.210496619224548,20.04829,7.257246619224548Q20.105249999999998,7.303996619224549,20.16652,7.344936619224549Q20.22779,7.385876619224549,20.29278,7.420616619224548Q20.357770000000002,7.4553466192245486,20.42585,7.483546619224549Q20.49393,7.511746619224549,20.56445,7.533136619224548Q20.63497,7.554536619224549,20.70724,7.568906619224548Q20.779519999999998,7.583286619224548,20.85285,7.5905066192245485Q20.92619,7.597726619224549,20.99988,7.597726619224549Z" fill-rule="evenodd" fill="#FFFFFF" fill-opacity="1"/></g></g></svg>