<svg xmlns="http://www.w3.org/2000/svg" xmlns:xlink="http://www.w3.org/1999/xlink" fill="none" version="1.1" width="36" height="36" viewBox="0 0 36 36"><defs><clipPath id="master_svg0_1_05594"><rect x="0" y="0" width="36" height="36" rx="0"/></clipPath></defs><g clip-path="url(#master_svg0_1_05594)"><g><path d="M8.549951171875,21.749392041015625Q8.549951171875,25.664392041015624,11.318351171875001,28.432792041015624Q14.084951171875,31.199392041015624,17.999951171875,31.199392041015624Q21.914951171875,31.199392041015624,24.681551171875,28.432792041015624Q27.449951171875,25.664392041015624,27.449951171875,21.749392041015625Q27.449951171875,12.162592041015625,16.936151171875,4.451392041015625L17.999951171875,3.000592041015625L19.063751171874998,4.451392041015625Q8.549951171875,12.162592041015625,8.549951171875,21.749392041015625ZM4.949951171875,21.749392041015625Q4.949951171875,10.337392041015624,16.936151171875,1.547992041015625Q17.051351171874998,1.463392041015625,17.177351171875,1.398592041015625Q17.303351171875,1.333792041015625,17.440151171875,1.290592041015625Q17.575151171875,1.243792041015625,17.715551171875,1.222192041015625Q17.857751171875,1.200592041015625,17.999951171875,1.200592041015625Q18.143951171875003,1.200592041015625,18.284351171875002,1.222192041015625Q18.424751171875002,1.243792141015625,18.559751171875,1.288792041015625Q18.694751171874998,1.333792041015625,18.822551171875,1.398592041015625Q18.948551171875,1.463392041015625,19.063751171874998,1.547992041015625Q31.049951171875,10.337392041015624,31.049951171875,21.749392041015625Q31.049951171875,27.154792041015625,27.228551171875,30.977992041015625Q23.405351171875,34.79939204101562,17.999951171875,34.79939204101562Q12.594551171875,34.79939204101562,8.771351171875,30.977992041015625Q4.949951601028,27.154792041015625,4.949951171875,21.749392041015625Z" fill="#00CC90" fill-opacity="1"/></g><g><path d="M6.75,21.749404907226562C6.749999570847,27.962604907226563,11.7868,32.99940490722656,18,32.99940490722656C24.2132,32.99940490722656,29.25,27.962604907226563,29.25,21.749404907226562Q22.5,23.999404907226562,18,21.749404907226562Q13.5,19.499404907226562,6.75,21.749404907226562Z" fill="#00CC90" fill-opacity="1"/></g><g><path d="M17.195351171875,23.360398833007814Q13.361351171875,21.443398833007812,7.318751171875,23.457598833007815L6.749951171875,21.749398833007813L8.549951171875,21.749398833007813Q8.549951171875,25.664398833007812,11.318351171875001,28.432798833007812Q14.084951171875,31.199428833007815,17.999951171875,31.199428833007815Q21.914951171875,31.199428833007815,24.681551171875,28.432798833007812Q27.449951171875,25.664398833007812,27.449951171875,21.749398833007813L29.249951171875,21.749398833007813L29.818751171875,23.45939883300781Q22.361351171875,25.943398833007812,17.195351171875,23.360398833007814ZM18.804551171874998,20.140198833007812Q22.638551171875,22.057198833007813,28.681151171875,20.04299883300781Q28.958351171875,19.949398833007812,29.249951171875,19.949398833007812Q29.428151171875,19.949398833007812,29.600951171875,19.985398833007814Q29.775551171875,20.019598833007812,29.939351171875,20.087998833007813Q30.101351171875,20.154598833007814,30.250751171875,20.253598833007814Q30.396551171875,20.35259883300781,30.522551171875,20.476798833007813Q30.648551171875,20.602788833007814,30.745751171875,20.75039883300781Q30.844751171875,20.89799883300781,30.913151171875,21.061798833007813Q30.981551171875,21.223798833007812,31.015751171875,21.39839883300781Q31.049951171875,21.572998833007812,31.049951171875,21.749398833007813Q31.049951171875,27.156598833007813,27.228551171875,30.978028833007812Q23.405351171875,34.79942883300781,17.999951171875,34.79942883300781Q12.594551171875,34.79942883300781,8.771351171875,30.978028833007812Q4.949951171875,27.156588833007813,4.949951171875,21.749398833007813Q4.949951171875,21.608988833007814,4.971551271875,21.470398833007813Q4.993151471875,21.331798833007813,5.036351371875,21.196788833007812Q5.079551171875,21.063588833007813,5.144351171875,20.937588833007812Q5.207351171875,20.811598833007814,5.288351171875,20.698188833007812Q5.371151171875,20.582988833007814,5.471951171875,20.48218883300781Q5.570951171875,20.383188833007814,5.684351171875,20.300388833007812Q5.797751171875,20.217598833007813,5.9219511718749995,20.15279883300781Q6.047951171875,20.087988833007813,6.181151171875,20.04299883300781Q13.638551171875,17.557198833007813,18.804551171874998,20.140198833007812Z" fill="#00CC90" fill-opacity="1"/></g></g></svg>