<svg xmlns="http://www.w3.org/2000/svg" xmlns:xlink="http://www.w3.org/1999/xlink" fill="none" version="1.1" width="14" height="14" viewBox="0 0 14 14"><defs><clipPath id="master_svg0_324_5306"><rect x="0" y="0" width="14" height="14" rx="0"/></clipPath></defs><g clip-path="url(#master_svg0_324_5306)"><g><path d="M5.415344453125,0.125732421875L1.237324453125,0.125732421875C0.623402453125,0.125732421875,0.122314453125,0.6251664218749999,0.122314453125,1.240752421875L0.122314453125,7.507782421875C0.122314453125,8.121702421875,0.6217484531249999,8.622802421875,1.237324453125,8.622802421875L5.415344453125,8.622802421875C6.029274453125,8.622802421875,6.530364453125,8.123372421875,6.530364453125,7.507782421875L6.530364453125,1.240772421875C6.528704453125,0.626847421875,6.029274453125,0.125746096675,5.415344453125,0.125732421875ZM5.415344453125,9.596782421875L1.237324453125,9.596782421875C0.623402453125,9.596782421875,0.122314453125,10.096222421875,0.122314453125,10.711832421875L0.122314453125,12.800832421875C0.122314453125,13.414732421875,0.6217484531249999,13.915832421875,1.237324453125,13.915832421875L5.415344453125,13.915832421875C6.029274453125,13.915832421875,6.530364453125,13.416432421875,6.530364453125,12.800832421875L6.530364453125,10.711832421875C6.528704453125,10.096222421875,6.029274453125,9.596782421875,5.415344453125,9.596782421875ZM12.795714453125,0.125732421875L8.757084453125,0.125732421875C8.143164453125,0.125732421875,7.642064453125,0.6251664218749999,7.642064453125,1.240752421875L7.642064453125,4.305412421875C7.642064453125,4.919342421875,8.141494453125,5.420422421875,8.757084453125,5.420422421875L12.795714453125,5.420422421875C13.409614453125,5.420422421875,13.910714453125,4.920992421875,13.910714453125,4.305412421875L13.910714453125,1.240752421875C13.910714453125,0.626834421875,13.411314453125,0.1257324114442,12.795714453125,0.125732421875ZM12.795714453125,6.532142421875L8.757084453125,6.532142421875C8.143164453125,6.532142421875,7.642064453125,7.031572421875,7.642064453125,7.647162421875L7.642064453125,12.800832421875C7.642064453125,13.414732421875,8.141494453125,13.915832421875,8.757084453125,13.915832421875L12.795714453125,13.915832421875C13.409614453125,13.915832421875,13.910714453125,13.416432421875,13.910714453125,12.800832421875L13.910714453125,7.647162421875C13.910714453125,7.033232421875,13.411314453125,6.532142421875,12.795714453125,6.532142421875Z" fill="#FFFFFF" fill-opacity="1"/></g></g></svg>