<svg xmlns="http://www.w3.org/2000/svg" xmlns:xlink="http://www.w3.org/1999/xlink" fill="none" version="1.1" width="32" height="32" viewBox="0 0 32 32"><g style="mix-blend-mode:passthrough"><path d="M2,0L12,0L12,4L4,4L4,12L0,12L0,2Q0,1.90175,0.00963055,1.80397Q0.0192611,1.70619,0.0384294,1.60982Q0.0575978,1.51345,0.0861193,1.41943Q0.114641,1.32541,0.152241,1.23463Q0.189841,1.14386,0.236157,1.05721Q0.282474,0.970554,0.337061,0.888859Q0.391648,0.807164,0.453979,0.731213Q0.516311,0.655262,0.585786,0.585786Q0.655262,0.516311,0.731213,0.453979Q0.807164,0.391648,0.888859,0.337061Q0.970554,0.282474,1.05721,0.236157Q1.14386,0.189841,1.23463,0.152241Q1.32541,0.114641,1.41943,0.0861193Q1.51345,0.0575978,1.60982,0.0384294Q1.70619,0.0192611,1.80397,0.00963055Q1.90175,0,2,0ZM30,0L20,0L20,4L28,4L28,12L32,12L32,2Q32,1.90175,31.9904,1.80397Q31.9807,1.70619,31.9616,1.60982Q31.9424,1.51345,31.9139,1.41943Q31.8854,1.32541,31.8478,1.23463Q31.8102,1.14386,31.7638,1.05721Q31.7175,0.970554,31.6629,0.888859Q31.6084,0.807164,31.546,0.731213Q31.4837,0.655262,31.4142,0.585786Q31.3447,0.516311,31.2688,0.453979Q31.1928,0.391648,31.1111,0.337061Q31.0294,0.282474,30.9428,0.236157Q30.8561,0.189841,30.7654,0.152241Q30.6746,0.114641,30.5806,0.0861193Q30.4865,0.0575978,30.3902,0.0384294Q30.2938,0.0192611,30.196,0.00963055Q30.0983,0,30,0ZM16,20Q16.1965,20,16.3921,19.9807Q16.5876,19.9615,16.7804,19.9231Q16.9731,19.8848,17.1611,19.8278Q17.3492,19.7707,17.5307,19.6955Q17.7123,19.6203,17.8856,19.5277Q18.0589,19.435,18.2223,19.3259Q18.3857,19.2167,18.5376,19.092Q18.6895,18.9674,18.8284,18.8284Q18.9674,18.6895,19.092,18.5376Q19.2167,18.3857,19.3259,18.2223Q19.435,18.0589,19.5277,17.8856Q19.6203,17.7123,19.6955,17.5307Q19.7707,17.3492,19.8278,17.1611Q19.8848,16.9731,19.9231,16.7804Q19.9615,16.5876,19.9807,16.3921Q20,16.1965,20,16Q20,15.8035,19.9807,15.6079Q19.9615,15.4124,19.9231,15.2196Q19.8848,15.0269,19.8278,14.8389Q19.7707,14.6508,19.6955,14.4693Q19.6203,14.2877,19.5277,14.1144Q19.435,13.9411,19.3259,13.7777Q19.2167,13.6143,19.092,13.4624Q18.9674,13.3105,18.8284,13.1716Q18.6895,13.0326,18.5376,12.908Q18.3857,12.7833,18.2223,12.6741Q18.0589,12.5649,17.8856,12.4723Q17.7123,12.3797,17.5307,12.3045Q17.3492,12.2293,17.1611,12.1722Q16.9731,12.1152,16.7804,12.0769Q16.5876,12.0385,16.3921,12.0193Q16.1965,12,16,12Q15.8035,12,15.6079,12.0193Q15.4124,12.0385,15.2196,12.0769Q15.0269,12.1152,14.8389,12.1722Q14.6508,12.2293,14.4693,12.3045Q14.2877,12.3797,14.1144,12.4723Q13.9411,12.5649,13.7777,12.6741Q13.6143,12.7833,13.4624,12.908Q13.3105,13.0326,13.1716,13.1716Q13.0326,13.3105,12.908,13.4624Q12.7833,13.6143,12.6741,13.7777Q12.5649,13.9411,12.4723,14.1144Q12.3797,14.2877,12.3045,14.4693Q12.2293,14.6508,12.1722,14.8389Q12.1152,15.0269,12.0769,15.2196Q12.0385,15.4124,12.0193,15.6079Q12,15.8035,12,16Q12,16.1965,12.0193,16.3921Q12.0385,16.5876,12.0769,16.7804Q12.1152,16.9731,12.1722,17.1611Q12.2293,17.3492,12.3045,17.5307Q12.3797,17.7123,12.4723,17.8856Q12.5649,18.0589,12.6741,18.2223Q12.7833,18.3857,12.908,18.5376Q13.0326,18.6895,13.1716,18.8284Q13.3105,18.9674,13.4624,19.092Q13.6143,19.2167,13.7777,19.3259Q13.9411,19.435,14.1144,19.5277Q14.2877,19.6203,14.4693,19.6955Q14.6508,19.7707,14.8389,19.8278Q15.0269,19.8848,15.2196,19.9231Q15.4124,19.9615,15.6079,19.9807Q15.8035,20,16,20ZM4,28L4,20L0,20L0,30Q0,30.0983,0.00963055,30.196Q0.0192611,30.2938,0.0384294,30.3902Q0.0575978,30.4865,0.0861193,30.5806Q0.114641,30.6746,0.152241,30.7654Q0.189841,30.8561,0.236157,30.9428Q0.282474,31.0294,0.337061,31.1111Q0.391648,31.1928,0.453979,31.2688Q0.516311,31.3447,0.585786,31.4142Q0.655262,31.4837,0.731213,31.546Q0.807164,31.6084,0.888859,31.6629Q0.970554,31.7175,1.05721,31.7638Q1.14386,31.8102,1.23463,31.8478Q1.32541,31.8854,1.41943,31.9139Q1.51345,31.9424,1.60982,31.9616Q1.70619,31.9807,1.80397,31.9904Q1.90175,32,2,32L12,32L12,28L4,28ZM28,28L20,28L20,32L30,32Q30.0983,32,30.196,31.9904Q30.2938,31.9807,30.3902,31.9616Q30.4865,31.9424,30.5806,31.9139Q30.6746,31.8854,30.7654,31.8478Q30.8561,31.8102,30.9428,31.7638Q31.0294,31.7175,31.1111,31.6629Q31.1928,31.6084,31.2688,31.546Q31.3447,31.4837,31.4142,31.4142Q31.4837,31.3447,31.546,31.2688Q31.6084,31.1928,31.6629,31.1111Q31.7175,31.0294,31.7638,30.9428Q31.8102,30.8561,31.8478,30.7654Q31.8854,30.6746,31.9139,30.5806Q31.9424,30.4865,31.9616,30.3902Q31.9807,30.2938,31.9904,30.196Q32,30.0983,32,30L32,20L28,20L28,28Z" fill-rule="evenodd" fill="#00CC90" fill-opacity="1"/></g></svg>