<svg xmlns="http://www.w3.org/2000/svg" xmlns:xlink="http://www.w3.org/1999/xlink" fill="none" version="1.1" width="22" height="21" viewBox="0 0 22 21"><g style="mix-blend-mode:passthrough"><path d="M20.0701,10.66774L11.04,2.03916Q11.3709,2.35533,11.715,2.05365L1.915839,10.64372Q2.17249,10.41874,2.05647,10.09776L2.32116,10.83003Q2.20186,10.5,1.850931,10.5L3.5,10.5Q4.12132,10.5,4.56066,10.93934Q5,11.3787,5,12L5,19.5Q5,19.2929,4.85355,19.1464Q4.70711,19,4.5,19L8.30752,19Q8.10041,19,7.95397,19.1464Q7.80752,19.2929,7.80752,19.5L7.80753,15.0873Q7.80753,14.466,8.246870000000001,14.0267Q8.686209999999999,13.5873,9.30752,13.5873L12.6068,13.5873Q13.2281,13.5873,13.6674,14.0267Q14.1068,14.466,14.1068,15.0873L14.1068,19.5Q14.1068,19.2929,13.9603,19.1464Q13.8139,19,13.6068,19L17.5,19Q17.2929,19,17.1464,19.1464Q17,19.2929,17,19.5L17,12Q17,11.3787,17.4393,10.93934Q17.8787,10.5,18.5,10.5L20.1541,10.5Q19.8082,10.5,19.6862,10.82368L19.9476,10.12993Q19.8311,10.43933,20.0701,10.66774L20.0701,10.66774ZM21.4518,9.22175Q22.1689,9.907,21.8192,10.83519L21.5577,11.5289Q21.3926,11.9671,21.0075,12.2336Q20.6224,12.5,20.1541,12.5L18.5,12.5Q18.7071,12.5,18.8536,12.3536Q19,12.2071,19,12L19,19.5Q19,20.1213,18.5607,20.5607Q18.1213,21,17.5,21L13.6068,21Q12.9854,21,12.5461,20.5607Q12.1068,20.1213,12.1068,19.5L12.1068,15.0873Q12.1068,15.2944,12.2532,15.4409Q12.3997,15.5873,12.6068,15.5873L9.30752,15.5873Q9.51463,15.5873,9.66108,15.4409Q9.80753,15.2944,9.80753,15.0873L9.80752,19.5Q9.80752,20.1213,9.36818,20.5607Q8.928840000000001,21,8.30752,21L4.5,21Q3.87868,21,3.43934,20.5607Q3,20.1213,3,19.5L3,12Q3,12.2071,3.14645,12.3536Q3.29289,12.5,3.5,12.5L1.850931,12.5Q1.377068,12.5,0.9892045,12.2278Q0.60134,11.9555,0.440257,11.5099L0.17557,10.77763Q0.018132000000000037,10.34207,0.13366,9.89356Q0.24918700000000005,9.44506,0.597461,9.13976L10.39667,0.5497000000000001Q10.83495,0.16550299999999996,11.4176,0.17801100000000003Q12.0003,0.190519,12.4217,0.59317L21.4518,9.22175L21.4518,9.22175Z" fill="#999999" fill-opacity="1"/></g></svg>