<svg xmlns="http://www.w3.org/2000/svg" xmlns:xlink="http://www.w3.org/1999/xlink" fill="none" version="1.1" width="20" height="19" viewBox="0 0 20 19"><g style="mix-blend-mode:passthrough"><path d="M0.25665,8.89174C0.101861,9.02743,0.0460469,9.24411,0.11602,9.4377L0.380706,10.17C0.452299,10.368,0.640325,10.5,0.850931,10.5L2.5,10.5C2.77614,10.5,3,10.7239,3,11L3,18.5C3,18.7761,3.22386,19,3.5,19L7.30752,19C7.58366,19,7.80752,18.7761,7.80752,18.5L7.80753,14.0873C7.80753,13.8112,8.03138,13.5873,8.30752,13.5873L11.6068,13.5873C11.8829,13.5873,12.1068,13.8112,12.1068,14.0873L12.1068,18.5C12.1068,18.7761,12.3306,19,12.6068,19L16.5,19C16.7761,19,17,18.7761,17,18.5L17,11C17,10.7239,17.2239,10.5,17.5,10.5L19.1541,10.5C19.3622,10.5,19.5486,10.3711,19.622,10.1763L19.8834,9.48256C19.9541,9.29495,19.9059,9.08325,19.761,8.94475L10.7309,0.316167C10.5436,0.137211,10.2506,0.130923,10.0559,0.301677L0.25665,8.89174Z" fill="#FFFFFF" fill-opacity="1"/></g></svg>