<svg xmlns="http://www.w3.org/2000/svg" xmlns:xlink="http://www.w3.org/1999/xlink" fill="none" version="1.1" width="32" height="32" viewBox="0 0 32 32"><defs><clipPath id="master_svg0_1_05261"><rect x="0" y="0" width="32" height="32" rx="0"/></clipPath></defs><g clip-path="url(#master_svg0_1_05261)"><g><path d="M31.103865234375,18.0639931640625C31.103865234375,18.3839931640625,30.991865234375,18.6559931640625,30.751865234375,18.8959931640625C30.527865234375,19.1199931640625,30.223865234375,19.2479931640625,29.903865234375,19.2479931640625L25.679865234375,19.2479931640625C25.679865234375,21.3439931640625,25.263865234375,23.1199931640625,24.415865234375,24.5919931640625L28.335865234375,28.4319931640625C28.575865234375,28.6719931640625,28.687865234375,28.9439931640625,28.687865234375,29.2639931640625C28.687865234375,29.5839931640625,28.575865234375,29.8559931640625,28.335865234375,30.0959931640625C28.111865234375,30.3359931640625,27.823865234375,30.4479931640625,27.487865234375,30.4479931640625C27.151865234375,30.4479931640625,26.863865234375,30.3359931640625,26.639865234375,30.0959931640625L22.895865234375,26.4639931640625L22.607865234375,26.7039931640625C22.479865234375,26.7999931640625,22.223865234375,26.9759931640625,21.807865234375,27.2319931640625C21.407865234375,27.4719931640625,21.007865234375,27.6959931640625,20.575865234375,27.9039931640625C20.159865234375,28.0959931640625,19.647865234375,28.2719931640625,19.023865234375,28.4319931640625C18.431865234375,28.5919931640625,17.807865234375,28.6719931640625,17.199865234375,28.6719931640625L17.199865234375,12.1759931640625L14.783865234375,12.1759931640625L14.783865234375,28.6719931640625C14.143865234375,28.6719931640625,13.487865234375,28.5919931640625,12.863865234375,28.4319931640625C12.223865234375,28.2719931640625,11.679865234375,28.0639931640625,11.215865234375,27.8239931640625C10.751865234375,27.5839931640625,10.335865234375,27.3439931640625,9.967865234375,27.1039931640625C9.599865234375,26.8639931640625,9.327865234375,26.6719931640625,9.151865234375,26.5119931640625L8.863865234375,26.2559931640625L5.407865234375,30.0639931640625C5.167865234375,30.3199931640625,4.847865234375,30.4479931640625,4.495865234375,30.4479931640625C4.191865234374999,30.4479931640625,3.903865234375,30.3519931640625,3.679865234375,30.1599931640625C3.439865234375,29.9519931640625,3.311865234375,29.6479931640625,3.295865234375,29.3439931640625C3.279865234375,29.0239931640625,3.375865234375,28.7199931640625,3.583865234375,28.4959931640625L7.391865234375,24.3199931640625C6.655865234375,22.9279931640625,6.303865234375,21.2319931640625,6.303865234375,19.2799931640625L2.111865234375,19.2799931640625C1.791865234375,19.2799931640625,1.487865234375,19.1519931640625,1.2638652343749999,18.9279931640625C1.023865234375,18.6879931640625,0.911865234375,18.4159931640625,0.911865234375,18.0959931640625C0.911865234375,17.7759931640625,1.023865234375,17.5039931640625,1.2638652343749999,17.263993164062498C1.487865234375,17.0399931640625,1.791865234375,16.9119931640625,2.111865234375,16.9119931640625L6.335865234375,16.9119931640625L6.335865234375,11.4719931640625L3.071865234375,8.287993164062499C2.831865234375,8.0479931640625,2.719865234375,7.7759931640625,2.719865234375,7.4559931640625C2.719865234375,7.1359931640625,2.831865234375,6.8639931640625,3.071865234375,6.6239931640625C3.535865234375,6.1599931640625,4.3038652343749995,6.1599931640625,4.767865234375,6.6239931640625L8.031865234375001,9.8079931640625L23.967865234375,9.8079931640625L27.231865234375,6.6239931640625C27.695865234375,6.1599931640625,28.463865234375,6.1599931640625,28.927865234375,6.6239931640625C29.167865234375,6.8639931640625,29.279865234375,7.1359931640625,29.279865234375,7.4559931640625C29.279865234375,7.7759931640625,29.167865234375,8.0479931640625,28.927865234375,8.287993164062499L25.663865234375,11.4719931640625L25.663865234375,16.879993164062498L29.887865234375,16.879993164062498C30.207865234375,16.879993164062498,30.511865234375,17.007993164062498,30.735865234375,17.2319931640625C30.975865234375,17.4719931640625,31.103865234375,17.7439931640625,31.103865234375,18.0639931640625ZM22.047865234375,7.4559931640625L9.951865234375,7.4559931640625C9.951865234375,5.8239931640625,10.543865234375,4.4319931640625,11.711865234375,3.2799931640624997C12.879865234375,2.1279931640625,14.319865234375,1.5679931640625,15.999865234375,1.5679931640625C17.679865234375,1.5679931640625,19.103865234375,2.1439931640625,20.271865234375,3.2959931640624998C21.455865234375,4.4319931640625,22.031865234375,5.8239931640625,22.047865234375,7.4559931640625Z" fill="#00CC90" fill-opacity="1"/></g></g></svg>