<svg xmlns="http://www.w3.org/2000/svg" xmlns:xlink="http://www.w3.org/1999/xlink" fill="none" version="1.1" width="24" height="24" viewBox="0 0 24 24"><g style="mix-blend-mode:passthrough"><g style="mix-blend-mode:passthrough"></g><g style="mix-blend-mode:passthrough"><g style="mix-blend-mode:passthrough"></g><g style="mix-blend-mode:passthrough"><path d="M12,22C15,22,21,15.9706,21,11C21,6.02944,16.970599999999997,2,12,2C7.02944,2,3,6.02944,3,11C3,15.9706,9,22,12,22ZM16.9497,6.05025Q19,8.1005,19,11Q19,12.3166,18.214,13.9473Q17.4452,15.5422,16.124200000000002,17.042Q14.878,18.4569,13.5782,19.3057Q12.51525,20,12,20Q11.48475,20,10.42178,19.3057Q9.12205,18.4569,7.87581,17.042Q6.55478,15.5422,5.78601,13.9473Q5,12.3166,5,11Q5,8.1005,7.05025,6.05025Q9.1005,4,12,4Q14.8995,4,16.9497,6.05025Z" fill-rule="evenodd" fill="#999999" fill-opacity="1"/></g><g style="mix-blend-mode:passthrough"><ellipse cx="12" cy="11" rx="2" ry="2" fill-opacity="0" stroke-opacity="1" stroke="#999999" fill="none" stroke-width="2"/></g></g></g></svg>