<svg xmlns="http://www.w3.org/2000/svg" xmlns:xlink="http://www.w3.org/1999/xlink" fill="none" version="1.1" width="24" height="24" viewBox="0 0 24 24"><g style="mix-blend-mode:passthrough"><g style="mix-blend-mode:passthrough"></g><g style="mix-blend-mode:passthrough"><g style="mix-blend-mode:passthrough"></g><g style="mix-blend-mode:passthrough"><path d="M12,22C15,22,21,15.9706,21,11C21,6.02944,16.970599999999997,2,12,2C7.02944,2,3,6.02944,3,11C3,15.9706,9,22,12,22ZM12,14Q12.14738,14,12.29405,13.9856Q12.44072,13.9711,12.58527,13.9424Q12.72982,13.9136,12.87085,13.8708Q13.0119,13.828,13.148,13.7716Q13.2842,13.7152,13.4142,13.6458Q13.5442,13.5763,13.6667,13.4944Q13.7893,13.4125,13.9032,13.319Q14.0171,13.2255,14.1213,13.1213Q14.2255,13.0171,14.319,12.9032Q14.4125,12.7893,14.4944,12.6667Q14.5763,12.5442,14.6458,12.4142Q14.7152,12.2842,14.7716,12.148Q14.828,12.0119,14.8708,11.87085Q14.9136,11.72982,14.9424,11.58527Q14.9711,11.44072,14.9856,11.29405Q15,11.14738,15,11Q15,10.85262,14.9856,10.70595Q14.9711,10.55928,14.9424,10.41473Q14.9136,10.27018,14.8708,10.12915Q14.828,9.988109999999999,14.7716,9.85195Q14.7152,9.71579,14.6458,9.58581Q14.5763,9.455829999999999,14.4944,9.33329Q14.4125,9.21075,14.319,9.096820000000001Q14.2255,8.982890000000001,14.1213,8.87868Q14.0171,8.77447,13.9032,8.68097Q13.7893,8.58747,13.6667,8.50559Q13.5442,8.42371,13.4142,8.35424Q13.2842,8.28476,13.148,8.22836Q13.0119,8.17196,12.87085,8.12918Q12.72982,8.086400000000001,12.58527,8.05764Q12.44072,8.02889,12.29405,8.01445Q12.14738,8,12,8Q11.85262,8,11.70595,8.01445Q11.55928,8.02889,11.41473,8.05764Q11.27018,8.086400000000001,11.12915,8.12918Q10.988109999999999,8.17196,10.85195,8.22836Q10.71579,8.28476,10.58581,8.35424Q10.455829999999999,8.42371,10.33329,8.50559Q10.21075,8.58747,10.096820000000001,8.68097Q9.982890000000001,8.77447,9.87868,8.87868Q9.77447,8.982890000000001,9.68097,9.096820000000001Q9.58747,9.21075,9.50559,9.33329Q9.42371,9.455829999999999,9.35424,9.58581Q9.28476,9.71579,9.22836,9.85195Q9.17196,9.988109999999999,9.12918,10.12915Q9.086400000000001,10.27018,9.05764,10.41473Q9.02889,10.55928,9.01445,10.70595Q9,10.85262,9,11Q9,11.14738,9.01445,11.29405Q9.02889,11.44072,9.05764,11.58527Q9.086400000000001,11.72982,9.12918,11.87085Q9.17196,12.0119,9.22836,12.148Q9.28476,12.2842,9.35424,12.4142Q9.42371,12.5442,9.50559,12.6667Q9.58747,12.7893,9.68097,12.9032Q9.77447,13.0171,9.87868,13.1213Q9.982890000000001,13.2255,10.096820000000001,13.319Q10.21075,13.4125,10.33329,13.4944Q10.455829999999999,13.5763,10.58581,13.6458Q10.71579,13.7152,10.85195,13.7716Q10.988109999999999,13.828,11.12915,13.8708Q11.27018,13.9136,11.41473,13.9424Q11.55928,13.9711,11.70595,13.9856Q11.85262,14,12,14Z" fill-rule="evenodd" fill="#FFFFFF" fill-opacity="1"/></g></g></g></svg>