<svg xmlns="http://www.w3.org/2000/svg" xmlns:xlink="http://www.w3.org/1999/xlink" fill="none" version="1.1" width="32" height="32" viewBox="0 0 32 32"><defs><clipPath id="master_svg0_43_3281"><rect x="0" y="0" width="32" height="32" rx="0"/></clipPath></defs><g clip-path="url(#master_svg0_43_3281)"><g><path d="M27.2344490234375,12.02503896484375C28.3813490234375,12.02503896484375,29.3094490234375,12.95313896484375,29.3094490234375,14.10003896484375L29.3094490234375,27.92503896484375C29.3094490234375,29.07183896484375,28.3813490234375,30.00003896484375,27.2344490234375,30.00003896484375L24.4688490234375,30.00003896484375C23.3219490234375,30.00003896484375,22.3938490234375,29.07183896484375,22.3938490234375,27.92503896484375L22.3938490234375,14.09683896484375C22.3938490234375,12.95003896484375,23.3219490234375,12.02183896484375,24.4688490234375,12.02183896484375L27.2344490234375,12.02503896484375ZM7.8781790234375,14.79063896484375C9.0250490234375,14.79063896484375,9.9531790234375,15.71873896484375,9.9531790234375,16.86563896484375L9.9531790234375,27.92503896484375C9.9531790234375,29.07183896484375,9.0250490234375,30.00003896484375,7.8781790234375,30.00003896484375L5.1156790234375,30.00003896484375C3.9687990234374997,30.00003896484375,3.0406770234375,29.07183896484375,3.0406770234375,27.92503896484375L3.0406770234375,16.86253896484375C3.0406770234375,15.71563896484375,3.9687990234374997,14.78753896484375,5.1156790234375,14.78753896484375L7.8781790234375,14.79063896484375ZM17.556349023437498,17.55313896484375C18.7031490234375,17.55313896484375,19.6313490234375,18.48123896484375,19.6313490234375,19.62813896484375L19.6313490234375,27.92183896484375C19.6313490234375,29.06873896484375,18.7031490234375,29.99683896484375,17.556349023437498,29.99683896484375L14.7938490234375,29.99683896484375C13.6469490234375,29.99683896484375,12.7188490234375,29.06873896484375,12.7188490234375,27.92183896484375L12.7188490234375,19.62813896484375C12.7188490234375,18.48123896484375,13.6469490234375,17.55313896484375,14.7938490234375,17.55313896484375L17.556349023437498,17.55313896484375ZM24.7125490234375,4.09062896484375L23.0813490234375,4.1000089648437505C22.5094490234375,4.10312896484375,22.0438490234375,3.64375896484375,22.0375490234375,3.06875896484375C22.0313490234375,2.50313296484375,22.4938490234375,2.03750796484375,23.0625490234375,2.03125796484375L27.2219490234375,2.00000801084375C27.4906490234375,1.99688301484375,27.7594490234375,2.10000796484375,27.9625490234375,2.30313296484375C28.0625490234375,2.40313296484375,28.1406490234375,2.52188296484375,28.1906490234375,2.64375796484375C28.2375490234375,2.75313296484375,28.2688490234375,2.89063296484375,28.2688490234375,3.03437896484375L28.2688490234375,7.20000896484375C28.2688490234375,7.77187896484375,27.8031490234375,8.23750896484375,27.2344490234375,8.23750896484375C26.6625490234375,8.23750896484375,26.1969490234375,7.77187896484375,26.1969490234375,7.20000896484375L26.1969490234375,5.5375089648437505L16.9063490234375,14.83123896484375C16.6031490234375,15.13433896484375,16.1438490234375,15.21873896484375,15.7531490234375,15.04373896484375L3.3094270234375,9.51562896484375C2.7875521234375,9.28437896484375,2.5500520234375,8.67187896484375,2.7813020234375,8.14687896484375C3.0125520234375,7.62500896484375,3.6250520234375,7.38750896484375,4.1500490234375,7.61875896484375L15.9406490234375,12.85933896484375L24.7125490234375,4.09062896484375Z" fill="#00CC90" fill-opacity="1"/></g></g></svg>