<svg xmlns="http://www.w3.org/2000/svg" xmlns:xlink="http://www.w3.org/1999/xlink" fill="none" version="1.1" width="23.46154022216797" height="11.615385055541992" viewBox="0 0 23.46154022216797 11.615385055541992"><g style="mix-blend-mode:passthrough" transform="matrix(-1,0,0,-1,43.92308044433594,20.230770111083984)"><path d="M41.45684022216797,19.878135055541993L31.226110222167968,11.262755055541993L32.19234022216797,10.115385055541992L33.15854022216797,11.262755055541993L22.92774422216797,19.878135055541993L20.995336222167968,17.58340505554199L31.226110222167968,8.968015055541992Q31.32674022216797,8.883275055541992,31.44060022216797,8.817335055541992Q31.55445022216797,8.751405055541992,31.67804022216797,8.706295055541993Q31.80163022216797,8.661195055541992,31.93119022216797,8.638285055541992Q32.060740222167965,8.615385055541992,32.19234022216797,8.615385055541992Q32.323840222167966,8.615385055541992,32.45344022216797,8.638285055541992Q32.583040222167966,8.661195055541992,32.706540222167966,8.706295055541993Q32.83014022216797,8.751405055541992,32.94404022216797,8.817335055541992Q33.05784022216797,8.883275055541992,33.15854022216797,8.968015055541992L43.38924022216797,17.58340505554199L41.45684022216797,19.878135055541993ZM43.92304022216797,18.73077505554199Q43.92304022216797,18.804465055541993,43.91584022216797,18.87779505554199Q43.90864022216797,18.951135055541993,43.894240222167966,19.023405055541993Q43.87984022216797,19.095675055541992,43.85844022216797,19.16619505554199Q43.83714022216797,19.236715055541993,43.80894022216797,19.304795055541994Q43.780740222167964,19.372875055541993,43.745940222167974,19.43786505554199Q43.71124022216797,19.502855055541993,43.67024022216797,19.564125055541993Q43.62934022216797,19.625395055541993,43.58264022216797,19.68235505554199Q43.53584022216797,19.73932505554199,43.48374022216797,19.791435055541992Q43.43164022216797,19.84353505554199,43.37464022216797,19.890285055541995Q43.31774022216797,19.93703505554199,43.25644022216797,19.977975055541993Q43.195140222167964,20.018915055541992,43.13014022216797,20.05365505554199Q43.06514022216797,20.08838505554199,42.99714022216797,20.116585055541993Q42.92904022216797,20.144785055541995,42.85854022216797,20.166185055541995Q42.78794022216797,20.187585055541994,42.715740222167966,20.201985055541993Q42.64344022216797,20.21628505554199,42.570140222167964,20.223585055541992Q42.49674022216797,20.230785055541993,42.42304022216797,20.230785055541993Q42.34944022216797,20.230785055541993,42.276040222167964,20.223585055541992Q42.20274022216797,20.21628505554199,42.13044022216797,20.201985055541993Q42.058140222167964,20.187585055541994,41.98764022216797,20.166185055541995Q41.91714022216797,20.144785055541995,41.84904022216797,20.116585055541993Q41.78094022216797,20.08838505554199,41.71594022216797,20.05365505554199Q41.651040222167964,20.018915055541992,41.58974022216797,19.977975055541993Q41.52844022216797,19.93703505554199,41.47144022216797,19.890285055541995Q41.41454022216797,19.84353505554199,41.36244022216797,19.791435055541992Q41.310340222167966,19.73932505554199,41.26354022216797,19.68235505554199Q41.21684022216797,19.625395055541993,41.17584022216797,19.564125055541993Q41.13494022216797,19.502855055541993,41.10024022216797,19.43786505554199Q41.065440222167965,19.372875055541993,41.037240222167966,19.304795055541994Q41.00904022216797,19.236715055541993,40.98764022216797,19.16619505554199Q40.96624022216797,19.095675055541992,40.95194022216797,19.023405055541993Q40.93754022216797,18.951135055541993,40.93034022216797,18.87779505554199Q40.92304022216797,18.804465055541993,40.92304022216797,18.73077505554199Q40.92304022216797,18.65707505554199,40.93034022216797,18.583745055541993Q40.93754022216797,18.510405055541995,40.95194022216797,18.43813505554199Q40.96624022216797,18.365855055541992,40.98764022216797,18.295345055541993Q41.00904022216797,18.22482505554199,41.037240222167966,18.15674505554199Q41.065440222167965,18.08866505554199,41.10024022216797,18.023675055541993Q41.13494022216797,17.95868505554199,41.17584022216797,17.89741505554199Q41.21684022216797,17.83614505554199,41.26354022216797,17.77917505554199Q41.310340222167966,17.722215055541994,41.36244022216797,17.670105055541992Q41.41454022216797,17.618005055541992,41.47144022216797,17.571255055541993Q41.52844022216797,17.524505055541994,41.58974022216797,17.48356505554199Q41.651040222167964,17.442625055541992,41.71594022216797,17.407885055541993Q41.78094022216797,17.373155055541993,41.84904022216797,17.34495505554199Q41.91714022216797,17.316755055541993,41.98764022216797,17.295365055541993Q42.058140222167964,17.273965055541993,42.13044022216797,17.259595055541993Q42.20274022216797,17.24521505554199,42.276040222167964,17.237995055541994Q42.34944022216797,17.23077505554199,42.42304022216797,17.23077505554199Q42.49674022216797,17.23077505554199,42.570140222167964,17.237995055541994Q42.64344022216797,17.24521505554199,42.715740222167966,17.259595055541993Q42.78794022216797,17.273965055541993,42.85854022216797,17.295355055541993Q42.92904022216797,17.316755055541993,42.99714022216797,17.34495505554199Q43.06514022216797,17.373155055541993,43.13014022216797,17.407885055541993Q43.195140222167964,17.442625055541992,43.25644022216797,17.48356505554199Q43.31774022216797,17.524505055541994,43.37464022216797,17.571255055541993Q43.43164022216797,17.618005055541992,43.48374022216797,17.670105055541992Q43.53584022216797,17.722215055541994,43.58264022216797,17.77917505554199Q43.62934022216797,17.83614505554199,43.67024022216797,17.89741505554199Q43.71124022216797,17.95868505554199,43.745940222167974,18.023675055541993Q43.780740222167964,18.08866505554199,43.80894022216797,18.15674505554199Q43.83714022216797,18.22482505554199,43.85844022216797,18.295345055541993Q43.87984022216797,18.365855055541992,43.894240222167966,18.43813505554199Q43.90864022216797,18.510405055541995,43.91584022216797,18.583745055541993Q43.92304022216797,18.65707505554199,43.92304022216797,18.73077505554199ZM23.46154022216797,18.73077505554199Q23.46154022216797,18.804465055541993,23.45432022216797,18.87779505554199Q23.44709022216797,18.951135055541993,23.43272022216797,19.023405055541993Q23.41834022216797,19.095675055541992,23.39695022216797,19.16619505554199Q23.37556022216797,19.236715055541993,23.347360222167968,19.304795055541994Q23.31916022216797,19.372875055541993,23.28442022216797,19.43786505554199Q23.249680222167967,19.502855055541993,23.208740222167968,19.564125055541993Q23.16780022216797,19.625395055541993,23.12106022216797,19.68235505554199Q23.07431022216797,19.73932505554199,23.022200222167967,19.791435055541992Q22.97009022216797,19.84353505554199,22.91313022216797,19.890285055541995Q22.85616722216797,19.93703505554199,22.79489522216797,19.977975055541993Q22.73362422216797,20.018915055541992,22.668635222167968,20.05365505554199Q22.603646222167967,20.08838505554199,22.535565222167968,20.116585055541993Q22.46748422216797,20.144785055541995,22.39696722216797,20.166185055541995Q22.326450222167967,20.187585055541994,22.25417522216797,20.201985055541993Q22.18190122216797,20.21628505554199,22.10856622216797,20.223585055541992Q22.035230522167968,20.230785055541993,21.96154022216797,20.230785055541993Q21.88784992216797,20.230785055541993,21.81451422216797,20.223585055541992Q21.74117922216797,20.21628505554199,21.668905222167968,20.201985055541993Q21.59663022216797,20.187585055541994,21.526113222167968,20.166185055541995Q21.45559622216797,20.144785055541995,21.38751522216797,20.116585055541993Q21.31943422216797,20.08838505554199,21.25444522216797,20.05365505554199Q21.18945622216797,20.018915055541992,21.128185222167968,19.977975055541993Q21.06691322216797,19.93703505554199,21.00995022216797,19.890285055541995Q20.95299022216797,19.84353505554199,20.90088022216797,19.791435055541992Q20.848770222167968,19.73932505554199,20.802020222167968,19.68235505554199Q20.75528022216797,19.625395055541993,20.71434022216797,19.564125055541993Q20.67340022216797,19.502855055541993,20.638660222167967,19.43786505554199Q20.603920222167968,19.372875055541993,20.57572022216797,19.304795055541994Q20.547520222167968,19.236715055541993,20.526130222167968,19.16619505554199Q20.504740222167968,19.095675055541992,20.49036022216797,19.023405055541993Q20.47599022216797,18.951135055541993,20.46876022216797,18.87779505554199Q20.46154022216797,18.804465055541993,20.46154022216797,18.73077505554199Q20.46154022216797,18.65707505554199,20.46876022216797,18.583745055541993Q20.47599022216797,18.510405055541995,20.49036022216797,18.43813505554199Q20.504740222167968,18.365855055541992,20.526130222167968,18.295345055541993Q20.547520222167968,18.22482505554199,20.57572022216797,18.15674505554199Q20.603920222167968,18.08866505554199,20.638660222167967,18.023675055541993Q20.67340022216797,17.95868505554199,20.71434022216797,17.89741505554199Q20.75528022216797,17.83614505554199,20.802020222167968,17.77917505554199Q20.848770222167968,17.722215055541994,20.90088022216797,17.670105055541992Q20.95299022216797,17.618005055541992,21.00995022216797,17.571255055541993Q21.06691322216797,17.524505055541994,21.128185222167968,17.48356505554199Q21.18945622216797,17.442625055541992,21.25444522216797,17.407885055541993Q21.31943422216797,17.373155055541993,21.38751522216797,17.34495505554199Q21.45559622216797,17.316755055541993,21.526113222167968,17.295365055541993Q21.59663022216797,17.273965055541993,21.668905222167968,17.259595055541993Q21.74117922216797,17.24521505554199,21.81451422216797,17.237995055541994Q21.88784992216797,17.23077505554199,21.96154022216797,17.23077505554199Q22.035230522167968,17.23077505554199,22.10856622216797,17.237995055541994Q22.18190122216797,17.24521505554199,22.25417522216797,17.259595055541993Q22.326450222167967,17.273965055541993,22.39696722216797,17.295355055541993Q22.46748422216797,17.316755055541993,22.535565222167968,17.34495505554199Q22.603646222167967,17.373155055541993,22.668635222167968,17.407885055541993Q22.73362422216797,17.442625055541992,22.79489522216797,17.48356505554199Q22.85616722216797,17.524505055541994,22.91313022216797,17.571255055541993Q22.97009022216797,17.618005055541992,23.022200222167967,17.670105055541992Q23.07431022216797,17.722215055541994,23.12106022216797,17.77917505554199Q23.16780022216797,17.83614505554199,23.208740222167968,17.89741505554199Q23.249680222167967,17.95868505554199,23.28442022216797,18.023675055541993Q23.31916022216797,18.08866505554199,23.347360222167968,18.15674505554199Q23.37556022216797,18.22482505554199,23.39695022216797,18.295345055541993Q23.41834022216797,18.365855055541992,23.43272022216797,18.43813505554199Q23.44709022216797,18.510405055541995,23.45432022216797,18.583745055541993Q23.46154022216797,18.65707505554199,23.46154022216797,18.73077505554199Z" fill="#FFFFFF" fill-opacity="0.6000000238418579"/></g></svg>