<svg xmlns="http://www.w3.org/2000/svg" xmlns:xlink="http://www.w3.org/1999/xlink" fill="none" version="1.1" width="11.615385055541992" height="23.46154022216797" viewBox="0 0 11.615385055541992 23.46154022216797"><g style="mix-blend-mode:passthrough" transform="matrix(0,1,-1,0,11.615385055541992,-8.615385055541992)"><path d="M29.610685055541992,11.26275L19.37995505554199,2.64737L20.346185055541994,1.5L21.31238505554199,2.64737L11.081589055541992,11.26275L9.149181055541993,8.96802L19.37995505554199,0.35263Q19.480585055541994,0.26788999999999996,19.594445055541993,0.20195000000000007Q19.708295055541992,0.13602000000000003,19.831885055541992,0.09091000000000005Q19.955475055541992,0.045809999999999906,20.085035055541994,0.02289999999999992Q20.214585055541992,0,20.346185055541994,0Q20.47768505554199,0,20.607285055541993,0.02289999999999992Q20.73688505554199,0.045809999999999906,20.86038505554199,0.09091000000000005Q20.983985055541993,0.13602000000000003,21.097885055541994,0.20195000000000007Q21.21168505554199,0.26788999999999996,21.31238505554199,0.35263L31.543085055541994,8.96802L29.610685055541992,11.26275ZM32.07688505554199,10.11539Q32.07688505554199,10.18908,32.069685055541996,10.26241Q32.06248505554199,10.33575,32.04808505554199,10.40802Q32.033685055541994,10.48029,32.012285055541994,10.55081Q31.99098505554199,10.62133,31.962785055541993,10.68941Q31.93458505554199,10.75749,31.899785055541994,10.82248Q31.865085055541993,10.88747,31.824085055541993,10.94874Q31.783185055541992,11.01001,31.73648505554199,11.06697Q31.689685055541993,11.12394,31.637585055541994,11.17605Q31.58548505554199,11.22815,31.528485055541992,11.2749Q31.471585055541993,11.32165,31.41028505554199,11.36259Q31.34898505554199,11.40353,31.283985055541994,11.43827Q31.218985055541992,11.473,31.15098505554199,11.5012Q31.082885055541993,11.5294,31.01238505554199,11.5508Q30.94178505554199,11.5722,30.869585055541993,11.5866Q30.79728505554199,11.6009,30.72398505554199,11.6082Q30.650585055541992,11.6154,30.576885055541993,11.6154Q30.50328505554199,11.6154,30.42988505554199,11.6082Q30.35658505554199,11.6009,30.284285055541993,11.5866Q30.21198505554199,11.5722,30.14148505554199,11.5508Q30.070985055541993,11.5294,30.00288505554199,11.5012Q29.934785055541994,11.473,29.869785055541993,11.43827Q29.80488505554199,11.40353,29.743585055541992,11.36259Q29.682285055541993,11.32165,29.62528505554199,11.2749Q29.56838505554199,11.22815,29.516285055541992,11.17605Q29.464185055541993,11.12394,29.417385055541992,11.06697Q29.37068505554199,11.01001,29.329685055541994,10.94874Q29.288785055541993,10.88747,29.254085055541992,10.82248Q29.21928505554199,10.75749,29.191085055541993,10.68941Q29.16288505554199,10.62133,29.14148505554199,10.55081Q29.120085055541992,10.48029,29.105785055541993,10.40802Q29.09138505554199,10.33575,29.084185055541994,10.26241Q29.076885055541993,10.18908,29.076885055541993,10.11539Q29.076885055541993,10.04169,29.084185055541994,9.96836Q29.09138505554199,9.89502,29.105785055541993,9.82275Q29.120085055541992,9.75047,29.14148505554199,9.67996Q29.16288505554199,9.60944,29.191085055541993,9.54136Q29.21928505554199,9.473279999999999,29.254085055541992,9.408290000000001Q29.288785055541993,9.3433,29.329685055541994,9.282029999999999Q29.37068505554199,9.22076,29.417385055541992,9.163789999999999Q29.464185055541993,9.10683,29.516285055541992,9.05472Q29.56838505554199,9.00262,29.62528505554199,8.95587Q29.682285055541993,8.90912,29.743585055541992,8.868179999999999Q29.80488505554199,8.82724,29.869785055541993,8.7925Q29.934785055541994,8.75777,30.00288505554199,8.729569999999999Q30.070985055541993,8.70137,30.14148505554199,8.67998Q30.21198505554199,8.65858,30.284285055541993,8.644210000000001Q30.35658505554199,8.62983,30.42988505554199,8.62261Q30.50328505554199,8.61539,30.576885055541993,8.61539Q30.650585055541992,8.61539,30.72398505554199,8.62261Q30.79728505554199,8.62983,30.869585055541993,8.644210000000001Q30.94178505554199,8.65858,31.01238505554199,8.67997Q31.082885055541993,8.70137,31.15098505554199,8.729569999999999Q31.218985055541992,8.75777,31.283985055541994,8.7925Q31.34898505554199,8.82724,31.41028505554199,8.868179999999999Q31.471585055541993,8.90912,31.528485055541992,8.95587Q31.58548505554199,9.00262,31.637585055541994,9.05472Q31.689685055541993,9.10683,31.73648505554199,9.163789999999999Q31.783185055541992,9.22076,31.824085055541993,9.282029999999999Q31.865085055541993,9.3433,31.899785055541994,9.408290000000001Q31.93458505554199,9.473279999999999,31.962785055541993,9.54136Q31.99098505554199,9.60944,32.012285055541994,9.67996Q32.033685055541994,9.75047,32.04808505554199,9.82275Q32.06248505554199,9.89502,32.069685055541996,9.96836Q32.07688505554199,10.04169,32.07688505554199,10.11539ZM11.615385055541992,10.11539Q11.615385055541992,10.18908,11.608165055541992,10.26241Q11.600935055541992,10.33575,11.586565055541993,10.40802Q11.572185055541992,10.48029,11.550795055541993,10.55081Q11.529405055541993,10.62133,11.501205055541993,10.68941Q11.473005055541993,10.75749,11.438265055541992,10.82248Q11.403525055541992,10.88747,11.362585055541992,10.94874Q11.321645055541993,11.01001,11.274905055541993,11.06697Q11.228155055541992,11.12394,11.176045055541993,11.17605Q11.123935055541992,11.22815,11.066975055541992,11.2749Q11.010012055541992,11.32165,10.948740055541991,11.36259Q10.887469055541992,11.40353,10.822480055541993,11.43827Q10.757491055541992,11.473,10.689410055541993,11.5012Q10.621329055541992,11.5294,10.550812055541993,11.5508Q10.480295055541992,11.5722,10.408020055541993,11.5866Q10.335746055541993,11.6009,10.262411055541993,11.6082Q10.189075355541993,11.6154,10.115385055541992,11.6154Q10.041694755541991,11.6154,9.968359055541992,11.6082Q9.895024055541992,11.6009,9.822750055541992,11.5866Q9.750475055541992,11.5722,9.679958055541992,11.5508Q9.609441055541993,11.5294,9.541360055541992,11.5012Q9.473279055541992,11.473,9.408290055541991,11.43827Q9.343301055541993,11.40353,9.282030055541993,11.36259Q9.220758055541992,11.32165,9.163795055541993,11.2749Q9.106835055541993,11.22815,9.054725055541992,11.17605Q9.002615055541993,11.12394,8.955865055541992,11.06697Q8.909125055541992,11.01001,8.868185055541993,10.94874Q8.827245055541992,10.88747,8.792505055541993,10.82248Q8.757765055541991,10.75749,8.729565055541991,10.68941Q8.701365055541991,10.62133,8.679975055541991,10.55081Q8.658585055541993,10.48029,8.644205055541992,10.40802Q8.629835055541992,10.33575,8.622605055541992,10.26241Q8.615385055541992,10.18908,8.615385055541992,10.11539Q8.615385055541992,10.04169,8.622605055541992,9.96836Q8.629835055541992,9.89502,8.644205055541992,9.82275Q8.658585055541993,9.75047,8.679975055541991,9.67996Q8.701365055541991,9.60944,8.729565055541991,9.54136Q8.757765055541991,9.473279999999999,8.792505055541993,9.408290000000001Q8.827245055541992,9.3433,8.868185055541993,9.282029999999999Q8.909125055541992,9.22076,8.955865055541992,9.163789999999999Q9.002615055541993,9.10683,9.054725055541992,9.05472Q9.106835055541993,9.00262,9.163795055541993,8.95587Q9.220758055541992,8.90912,9.282030055541993,8.868179999999999Q9.343301055541993,8.82724,9.408290055541991,8.7925Q9.473279055541992,8.75777,9.541360055541992,8.729569999999999Q9.609441055541993,8.70137,9.679958055541992,8.67998Q9.750475055541992,8.65858,9.822750055541992,8.644210000000001Q9.895024055541992,8.62983,9.968359055541992,8.62261Q10.041694755541991,8.61539,10.115385055541992,8.61539Q10.189075355541993,8.61539,10.262411055541993,8.62261Q10.335746055541993,8.62983,10.408020055541993,8.644210000000001Q10.480295055541992,8.65858,10.550812055541993,8.67997Q10.621329055541992,8.70137,10.689410055541993,8.729569999999999Q10.757491055541992,8.75777,10.822480055541993,8.7925Q10.887469055541992,8.82724,10.948740055541991,8.868179999999999Q11.010012055541992,8.90912,11.066975055541992,8.95587Q11.123935055541992,9.00262,11.176045055541993,9.05472Q11.228155055541992,9.10683,11.274905055541993,9.163789999999999Q11.321645055541993,9.22076,11.362585055541992,9.282029999999999Q11.403525055541992,9.3433,11.438265055541992,9.408290000000001Q11.473005055541993,9.473279999999999,11.501205055541993,9.54136Q11.529405055541993,9.60944,11.550795055541993,9.67996Q11.572185055541992,9.75047,11.586565055541993,9.82275Q11.600935055541992,9.89502,11.608165055541992,9.96836Q11.615385055541992,10.04169,11.615385055541992,10.11539Z" fill="#FFFFFF" fill-opacity="0.6000000238418579"/></g></svg>