<svg xmlns="http://www.w3.org/2000/svg" xmlns:xlink="http://www.w3.org/1999/xlink" fill="none" version="1.1" width="23.46154022216797" height="11.615385055541992" viewBox="0 0 23.46154022216797 11.615385055541992"><g style="mix-blend-mode:passthrough"><path d="M20.9953,11.26275L10.76457,2.64737L11.7308,1.5L12.697,2.64737L2.466204,11.26275L0.533796,8.96802L10.76457,0.35263Q10.8652,0.26788999999999996,10.97906,0.20195000000000007Q11.09291,0.13602000000000003,11.2165,0.09091000000000005Q11.34009,0.045809999999999906,11.46965,0.02289999999999992Q11.5992,0,11.7308,0Q11.8623,0,11.9919,0.02289999999999992Q12.1215,0.045809999999999906,12.245,0.09091000000000005Q12.3686,0.13602000000000003,12.4825,0.20195000000000007Q12.5963,0.26788999999999996,12.697,0.35263L22.9277,8.96802L20.9953,11.26275ZM23.4615,10.11539Q23.4615,10.18908,23.4543,10.26241Q23.4471,10.33575,23.4327,10.40802Q23.4183,10.48029,23.3969,10.55081Q23.3756,10.62133,23.3474,10.68941Q23.3192,10.75749,23.2844,10.82248Q23.2497,10.88747,23.2087,10.94874Q23.1678,11.01001,23.1211,11.06697Q23.0743,11.12394,23.0222,11.17605Q22.9701,11.22815,22.9131,11.2749Q22.8562,11.32165,22.7949,11.36259Q22.7336,11.40353,22.6686,11.43827Q22.6036,11.473,22.5356,11.5012Q22.4675,11.5294,22.397,11.5508Q22.3264,11.5722,22.2542,11.5866Q22.1819,11.6009,22.1086,11.6082Q22.0352,11.6154,21.9615,11.6154Q21.8879,11.6154,21.8145,11.6082Q21.7412,11.6009,21.6689,11.5866Q21.5966,11.5722,21.5261,11.5508Q21.4556,11.5294,21.3875,11.5012Q21.3194,11.473,21.2544,11.43827Q21.1895,11.40353,21.1282,11.36259Q21.0669,11.32165,21.0099,11.2749Q20.953,11.22815,20.9009,11.17605Q20.8488,11.12394,20.802,11.06697Q20.7553,11.01001,20.7143,10.94874Q20.6734,10.88747,20.6387,10.82248Q20.6039,10.75749,20.5757,10.68941Q20.5475,10.62133,20.5261,10.55081Q20.5047,10.48029,20.4904,10.40802Q20.476,10.33575,20.4688,10.26241Q20.4615,10.18908,20.4615,10.11539Q20.4615,10.04169,20.4688,9.96836Q20.476,9.89502,20.4904,9.82275Q20.5047,9.75047,20.5261,9.67996Q20.5475,9.60944,20.5757,9.54136Q20.6039,9.473279999999999,20.6387,9.408290000000001Q20.6734,9.3433,20.7143,9.282029999999999Q20.7553,9.22076,20.802,9.163789999999999Q20.8488,9.10683,20.9009,9.05472Q20.953,9.00262,21.0099,8.95587Q21.0669,8.90912,21.1282,8.868179999999999Q21.1895,8.82724,21.2544,8.7925Q21.3194,8.75777,21.3875,8.729569999999999Q21.4556,8.70137,21.5261,8.67998Q21.5966,8.65858,21.6689,8.644210000000001Q21.7412,8.62983,21.8145,8.62261Q21.8879,8.61539,21.9615,8.61539Q22.0352,8.61539,22.1086,8.62261Q22.1819,8.62983,22.2542,8.644210000000001Q22.3264,8.65858,22.397,8.67997Q22.4675,8.70137,22.5356,8.729569999999999Q22.6036,8.75777,22.6686,8.7925Q22.7336,8.82724,22.7949,8.868179999999999Q22.8562,8.90912,22.9131,8.95587Q22.9701,9.00262,23.0222,9.05472Q23.0743,9.10683,23.1211,9.163789999999999Q23.1678,9.22076,23.2087,9.282029999999999Q23.2497,9.3433,23.2844,9.408290000000001Q23.3192,9.473279999999999,23.3474,9.54136Q23.3756,9.60944,23.3969,9.67996Q23.4183,9.75047,23.4327,9.82275Q23.4471,9.89502,23.4543,9.96836Q23.4615,10.04169,23.4615,10.11539ZM3,10.11539Q3,10.18908,2.9927799999999998,10.26241Q2.98555,10.33575,2.97118,10.40802Q2.9568000000000003,10.48029,2.93541,10.55081Q2.91402,10.62133,2.88582,10.68941Q2.85762,10.75749,2.82288,10.82248Q2.7881400000000003,10.88747,2.7472000000000003,10.94874Q2.7062600000000003,11.01001,2.65952,11.06697Q2.6127700000000003,11.12394,2.56066,11.17605Q2.50855,11.22815,2.45159,11.2749Q2.394627,11.32165,2.333355,11.36259Q2.272084,11.40353,2.207095,11.43827Q2.142106,11.473,2.074025,11.5012Q2.005944,11.5294,1.935427,11.5508Q1.86491,11.5722,1.792635,11.5866Q1.720361,11.6009,1.6470259999999999,11.6082Q1.5736903,11.6154,1.5,11.6154Q1.4263097,11.6154,1.3529740000000001,11.6082Q1.279639,11.6009,1.207365,11.5866Q1.13509,11.5722,1.064573,11.5508Q0.994056,11.5294,0.925975,11.5012Q0.857894,11.473,0.792905,11.43827Q0.727916,11.40353,0.666645,11.36259Q0.605373,11.32165,0.54841,11.2749Q0.49144999999999994,11.22815,0.43934000000000006,11.17605Q0.38722999999999996,11.12394,0.3404799999999999,11.06697Q0.2937399999999999,11.01001,0.2527999999999999,10.94874Q0.21185999999999994,10.88747,0.17711999999999994,10.82248Q0.14237999999999995,10.75749,0.11417999999999995,10.68941Q0.08597999999999995,10.62133,0.06458999999999993,10.55081Q0.043199999999999905,10.48029,0.028820000000000068,10.40802Q0.014450000000000074,10.33575,0.007220000000000004,10.26241Q0,10.18908,0,10.11539Q0,10.04169,0.007220000000000004,9.96836Q0.014450000000000074,9.89502,0.028820000000000068,9.82275Q0.043199999999999905,9.75047,0.06458999999999993,9.67996Q0.08597999999999995,9.60944,0.11417999999999995,9.54136Q0.14237999999999995,9.473279999999999,0.17711999999999994,9.408290000000001Q0.21185999999999994,9.3433,0.2527999999999999,9.282029999999999Q0.2937399999999999,9.22076,0.3404799999999999,9.163789999999999Q0.38722999999999996,9.10683,0.43934000000000006,9.05472Q0.49144999999999994,9.00262,0.54841,8.95587Q0.605373,8.90912,0.666645,8.868179999999999Q0.727916,8.82724,0.792905,8.7925Q0.857894,8.75777,0.925975,8.729569999999999Q0.994056,8.70137,1.064573,8.67998Q1.13509,8.65858,1.207365,8.644210000000001Q1.279639,8.62983,1.3529740000000001,8.62261Q1.4263097,8.61539,1.5,8.61539Q1.5736903,8.61539,1.6470259999999999,8.62261Q1.720361,8.62983,1.792635,8.644210000000001Q1.86491,8.65858,1.935427,8.67997Q2.005944,8.70137,2.074025,8.729569999999999Q2.142106,8.75777,2.207095,8.7925Q2.272084,8.82724,2.333355,8.868179999999999Q2.394627,8.90912,2.45159,8.95587Q2.50855,9.00262,2.56066,9.05472Q2.6127700000000003,9.10683,2.65952,9.163789999999999Q2.7062600000000003,9.22076,2.7472000000000003,9.282029999999999Q2.7881400000000003,9.3433,2.82288,9.408290000000001Q2.85762,9.473279999999999,2.88582,9.54136Q2.91402,9.60944,2.93541,9.67996Q2.9568000000000003,9.75047,2.97118,9.82275Q2.98555,9.89502,2.9927799999999998,9.96836Q3,10.04169,3,10.11539Z" fill="#FFFFFF" fill-opacity="0.6000000238418579"/></g></svg>