<svg xmlns="http://www.w3.org/2000/svg" xmlns:xlink="http://www.w3.org/1999/xlink" fill="none" version="1.1" width="118.12948608398438" height="76.21290588378906" viewBox="0 0 118.12948608398438 76.21290588378906"><g><path d="M11.8125,52.081L13.4034,52.081C13.8321,52.0887,14.1751,52.4345,14.1751,52.8584C14.1751,53.2871,13.8369,53.6358,13.4034,53.6358L11.8125,53.6358L11.8125,55.2058C11.8011,55.6319,11.4509,55.9706,11.0246,55.9679C10.8181,55.971,10.6187,55.8923,10.4702,55.7488C10.3227,55.6065,10.2388,55.4107,10.2377,55.2058L10.2377,53.6348L8.64677,53.6348C8.22075,53.6291,7.87767,53.2835,7.87511,52.8575C7.87511,52.4288,8.21331,52.0801,8.64677,52.0801L10.2377,52.0801L10.2377,50.5101C10.2491,50.0843,10.5987,49.7458,11.0246,49.748C11.46,49.748,11.8125,50.0833,11.8125,50.5101L11.8125,52.081ZM115.767,45.8621L115.767,44.2921C115.766,44.0872,115.682,43.8913,115.534,43.7491C115.386,43.6054,115.186,43.5266,114.979,43.53C114.553,43.5277,114.204,43.8663,114.192,44.2921L114.192,45.8621L112.601,45.8621C112.395,45.8624,112.197,45.9446,112.051,46.0907C111.906,46.2362,111.826,46.4342,111.83,46.6394C111.83,47.0558,112.175,47.4168,112.601,47.4168L114.192,47.4168L114.192,48.9868C114.192,49.4145,114.545,49.7489,114.979,49.7489C115.408,49.7489,115.758,49.4098,115.767,48.9868L115.767,47.4168L117.358,47.4168C117.791,47.4168,118.129,47.0681,118.129,46.6394C118.127,46.2134,117.784,45.8678,117.358,45.8621L115.767,45.8621ZM58.5481,71.5134L18.8955,71.5134C18.4782,71.5134,18.0781,71.3505,17.7828,71.059C17.4888,70.7686,17.324,70.372,17.3255,69.9587C17.3255,69.1013,18.0391,68.4049,18.8955,68.4049L26.0386,68.4049C25.4877,67.4642,25.1982,66.3932,25.2002,65.303L25.2002,20.2031C25.2012,18.5531,25.8671,16.9717,27.0493,15.8066C28.239,14.6388,29.8408,13.9868,31.5078,13.9917L36.2263,13.9917L36.2263,12.4294C36.2263,10.7803,36.8922,9.1989,38.0745,8.03379C39.2641,6.86608,40.866,6.21406,42.5329,6.21897L80.3212,6.21897C81.9881,6.21349,83.59,6.86521,84.7797,8.03284C85.9601,9.19142,86.6259,10.7754,86.6278,12.4294L86.6278,57.5293C86.6278,58.6601,86.323,59.7185,85.7895,60.6312L94.5016,60.6312C95.3671,60.6233,96.0741,61.3204,96.0782,62.1859C96.0782,63.0433,95.378,63.7407,94.5035,63.7407L75.6027,63.7407L75.6027,65.303C75.6027,66.4329,75.2978,67.4922,74.7634,68.4049L75.6074,68.4049C76.4744,68.4049,77.1774,69.0946,77.1774,69.9587C77.1774,70.817,76.4639,71.5134,75.6074,71.5134L67.3212,71.5134C68.0591,72.7346,67.8586,74.3031,66.8372,75.2993C66.2443,75.8855,65.4438,76.2139,64.6099,76.2129C63.7764,76.2136,62.9763,75.8853,62.3835,75.2993L58.5481,71.5134ZM64.306,68.4049L69.3151,68.4049C71.0438,68.4144,72.4507,67.0165,72.4522,65.2878L72.4522,20.1297C72.4522,18.4529,71.0901,17.095,69.4132,17.1003L31.3897,17.1003C29.7135,17.0971,28.3523,18.4536,28.3497,20.1297L28.3497,65.2878C28.3497,67.0083,29.7673,68.4049,31.4859,68.4049L55.3948,68.4049L54.5851,67.6047C53.7873,66.8254,53.4739,65.6753,53.7658,64.599L52.2796,63.13C47.6468,66.5329,41.1382,65.8327,37.3571,61.5238C33.5764,57.2312,33.8055,50.7333,37.8792,46.7176C41.9661,42.6688,48.5299,42.4306,52.9074,46.1726C57.284,49.9137,57.9832,56.3604,54.5069,60.9313L55.995,62.4003C57.0812,62.1098,58.2399,62.4169,59.0397,63.2072L64.3051,68.4049L64.306,68.4049ZM75.6027,60.6312L80.3422,60.6312C82.076,60.6226,83.4764,59.2336,83.4783,57.5217L83.4783,12.437C83.4783,10.7146,82.0732,9.32751,80.3422,9.32751L42.5101,9.32751C40.7772,9.33704,39.3768,10.726,39.3758,12.437L39.3758,13.9917L69.2961,13.9917C70.963,13.9863,72.5649,14.638,73.7545,15.8056C74.9352,16.9644,75.601,18.5488,75.6027,20.2031L75.6027,60.6312ZM20.0816,3.49817L22.428,3.49817C23.0901,3.49817,23.6255,4.01547,23.6255,4.66423C23.6255,5.30728,23.0901,5.83029,22.428,5.83029L20.0816,5.83029L20.0816,8.14526C20.0816,8.79878,19.5576,9.32656,18.9003,9.32656C18.5859,9.32499,18.2847,9.19973,18.0619,8.97788C17.8407,8.75746,17.7172,8.45752,17.719,8.14526L17.719,5.83029L15.3726,5.83029C15.0573,5.83348,14.7536,5.71191,14.5275,5.49209C14.3035,5.27436,14.1765,4.97567,14.1751,4.66328C14.1751,4.02023,14.7105,3.49817,15.3726,3.49817L17.719,3.49817L17.719,1.1813C17.719,0.528886,18.2479,0,18.9003,0C19.5527,0,20.0816,0.528886,20.0816,1.1813L20.0816,3.49817ZM1.57421,69.9587C1.57421,69.1013,2.28871,68.4049,3.14515,68.4049L12.6051,68.4049C13.471,68.4049,14.1751,69.0946,14.1751,69.9587C14.1751,70.817,13.4615,71.5134,12.6051,71.5134L3.14515,71.5134C2.72788,71.5134,2.32681,71.3505,2.03244,71.059C1.73841,70.7686,1.57361,70.372,1.57516,69.9587L1.57421,69.9587ZM51.246,59.91C53.2324,57.9589,54.0117,55.088,53.2847,52.4002C52.5559,49.7175,50.4334,47.6226,47.7154,46.9033C45.0018,46.1828,42.1093,46.9477,40.1065,48.9154C37.0311,51.9347,37.0311,56.8897,40.1065,59.9091C43.1836,62.9462,48.1698,62.9462,51.246,59.9091L51.246,59.91ZM34.6506,23.3192C34.6506,22.4619,35.3556,21.7664,36.2244,21.7655L53.5514,21.7655C54.4212,21.7655,55.1271,22.4609,55.1271,23.3192C55.1271,24.1785,54.4222,24.874,53.5514,24.874L36.2263,24.874C35.8095,24.8756,35.409,24.7127,35.1117,24.4205C34.8161,24.1304,34.6499,23.7334,34.6506,23.3192ZM34.6506,31.093C34.6506,30.2356,35.3518,29.5382,36.2149,29.5382L61.4385,29.5382C62.3016,29.5382,63.0018,30.2289,63.0018,31.093C63.0018,31.9504,62.3016,32.6477,61.4385,32.6477L36.2149,32.6477C35.7986,32.6477,35.3994,32.4829,35.106,32.1904C34.813,31.9006,34.6489,31.5051,34.6506,31.093ZM34.6506,38.8667C34.6506,38.0083,35.3537,37.3119,36.2225,37.3119L47.2543,37.3119C48.1222,37.3119,48.8262,38.0017,48.8262,38.8657C48.8262,39.7241,48.1241,40.4205,47.2543,40.4205L36.2225,40.4205C35.8052,40.4214,35.4042,40.2585,35.1088,39.9661C34.8148,39.6756,34.65,39.279,34.6506,38.8667L34.6506,38.8667ZM4.72466,29.5373C3.04356,29.5411,1.48638,28.6535,0.632982,27.2052C-0.210994,25.7653,-0.210994,23.9817,0.632982,22.5419C1.48638,21.0935,3.04356,20.2059,4.72466,20.2098C7.33496,20.2098,9.44986,22.298,9.44986,24.873C9.44986,27.449,7.33496,29.5373,4.72466,29.5373ZM4.72466,27.2052C5.56872,27.2052,6.34895,26.7612,6.77098,26.0391C7.19315,25.319,7.19315,24.427,6.77098,23.707C6.34395,22.983,5.56519,22.5396,4.72466,22.5419C3.41952,22.5419,2.36206,23.586,2.36206,24.873C2.36206,26.161,3.41952,27.2052,4.72466,27.2052ZM102.379,20.2098C99.7688,20.2098,97.6539,18.1215,97.6539,15.5455C97.6539,12.9695,99.7688,10.8813,102.379,10.8813C104.988,10.8813,107.104,12.9695,107.104,15.5455C107.104,18.1215,104.988,20.2098,102.379,20.2098ZM102.379,17.8776C103.223,17.8776,104.003,17.4328,104.425,16.7116C104.848,15.9915,104.848,15.0995,104.425,14.3795C103.999,13.6551,103.22,13.2113,102.379,13.2134C101.074,13.2134,100.017,14.2575,100.017,15.5455C100.017,16.8335,101.074,17.8776,102.379,17.8776Z" fill="#999999" fill-opacity="1"/></g></svg>