<svg xmlns="http://www.w3.org/2000/svg" xmlns:xlink="http://www.w3.org/1999/xlink" fill="none" version="1.1" width="16" height="15.156336784362793" viewBox="0 0 16 15.156336784362793"><defs><clipPath id="master_svg0_7_4824"><rect x="0" y="0" width="16" height="15.156336784362793" rx="0"/></clipPath></defs><g clip-path="url(#master_svg0_7_4824)"><g><path d="M5.7102246875,5.4425686328125C4.2074646875,5.4437786328125,2.9883137675,4.2264186328125,2.987305229533,2.7236586328125C2.9862966875,1.2208986328125,4.2038146874999995,0.0019058768125,5.7065746875,0.0010990336025C7.2093346875,0.0002921018125,8.4281646875,1.2179786328125,8.428774687499999,2.7207386328125C8.429374687500001,4.2233586328125,7.2117546875,5.4419586328125,5.709134687500001,5.4425686328125L5.7102246875,5.4425686328125ZM5.7102246875,1.4902186328125C5.0303446874999995,1.4889986328125,4.4783246875,2.0393886328125,4.4775146875,2.7192686328125C4.4767146874999995,3.3991586328125,5.0274246875,3.9508486328125,5.707304687500001,3.9512586328125C6.3871946875,3.9516586328125,6.9385546875,3.4006186328125,6.9385546875,2.7207386328125C6.9385546875,2.0415686328125,6.3883046875,1.4908186328125,5.709134687500001,1.4902186328125L5.7102246875,1.4902186328125Z" fill="#FFFFFF" fill-opacity="1"/></g><g><path d="M7.61154828125,1.8277697178125L15.50968828125,1.8277697178125C15.78968828125,1.7876291578125,16.02978828125,2.0276942578125,15.98958828125,2.3077052578125L15.98958828125,3.1349942578125C16.02888828125,3.4145742578125002,15.78918828125,3.6537942578125,15.50968828125,3.6138342578125L7.61154828125,3.6138342578125C7.33205828125,3.6537942578125,7.09229828125,3.4145742578125002,7.13161828125,3.1349942578125L7.13161828125,2.3077052578125C7.09147828125,2.0276942578125,7.33153828125,1.7876291578125,7.61154828125,1.8277697178125ZM0.48482928125,1.8277697178125L3.73042828125,1.8277697178125C4.01043828125,1.7876294578125,4.25049828125,2.0276942578125,4.21035828125,2.3077052578125L4.21035828125,3.1349942578125C4.24967828125,3.4145742578125002,4.00991828125,3.6537942578125,3.73042828125,3.6138342578125L0.48482928125,3.6138342578125C0.20533528125,3.6537942578125,-0.03442581875,3.4145742578125002,0.00489362125,3.1349942578125L0.00489362125,2.3077052578125C-0.03524691875,2.0276942578125,0.20481828125,1.7876289578125,0.48482928125,1.8277697178125ZM10.28738828125,15.1563642578125C8.78473828125,15.1563642578125,7.56662828125,13.9382642578125,7.56662828125,12.4356642578125C7.56662828125,10.9330542578125,8.78473828125,9.7149342578125,10.28738828125,9.7149342578125C11.78998828125,9.7149342578125,13.00808828125,10.9330542578125,13.00808828125,12.4356642578125C13.00808828125,13.9382642578125,11.78998828125,15.1563642578125,10.28738828125,15.1563642578125ZM10.28738828125,11.2051542578125C11.23528828125,11.2055742578125,11.82738828125,12.2318642578125,11.35328828125,13.0527642578125C10.87928828125,13.8735642578125,9.69437828125,13.8735642578125,9.22028828125,13.0527642578125C8.74619828125,12.2318642578125,9.33832828125,11.2055742578125,10.28628828125,11.2051542578125L10.28738828125,11.2051542578125Z" fill="#FFFFFF" fill-opacity="1"/></g><g><path d="M8.38295828125,13.3286580078125L0.48482928125,13.3286580078125C0.20481828125,13.3687980078125,-0.03524651875,13.1287280078125,0.00489358125,12.8487180078125L0.00489358125,12.0214300078125C-0.03442601875,11.7418450078125,0.20533528125,11.5026311078125,0.48482928125,11.5425897978125L8.38295828125,11.5425897978125C8.66244828125,11.5026304078125,8.90220828125,11.7418450078125,8.86288828125,12.0214300078125L8.86288828125,12.8487180078125C8.90302828125,13.1287280078125,8.66296828125,13.3687980078125,8.38295828125,13.3286580078125ZM15.51188828125,13.3286580078125L12.26408828125,13.3286580078125C11.98448828125,13.3679680078125,11.74528828125,13.1282080078125,11.78528828125,12.8487180078125L11.78528828125,12.0214300078125C11.74608828125,11.7423610078125,11.98498828125,11.5034500078125,12.26408828125,11.5425897978125L15.51078828125,11.5425897978125C15.79028828125,11.5026304078125,16.02998828125,11.7418450078125,15.99068828125,12.0214300078125L15.99068828125,12.8487180078125C16.03088828125,13.1287280078125,15.79078828125,13.3687980078125,15.51078828125,13.3286580078125L15.51188828125,13.3286580078125Z" fill="#FFFFFF" fill-opacity="1"/></g></g></svg>