<svg xmlns="http://www.w3.org/2000/svg" xmlns:xlink="http://www.w3.org/1999/xlink" fill="none" version="1.1" width="34" height="34" viewBox="0 0 34 34"><defs><clipPath id="master_svg0_1_05539"><rect x="0" y="0" width="34" height="34" rx="0"/></clipPath></defs><g clip-path="url(#master_svg0_1_05539)"><g><path d="M11.15634765625,27.73125C11.15634765625,28.58125,11.90009765625,29.32505,12.75009765625,29.32505L20.82509765625,29.32505C21.67509765625,29.32505,22.41889765625,28.58125,22.41889765625,27.73125L22.41889765625,26.77505L11.15634765625,26.77505L11.15634765625,27.73125ZM16.78759765625,1.59375C10.30634765625,1.59375,5.10009765625,6.8,5.10009765625,13.28125C5.10009765625,17.74375,7.54384765625,21.56875,11.15634765625,23.48125L11.15634765625,25.18125L22.41889765625,25.18125L22.41889765625,23.48125C26.03139765625,21.46245,28.47509765625,17.63755,28.47509765625,13.28125C28.47509765625,6.90625,23.26889765625,1.59375,16.78759765625,1.59375ZM19.97509765625,30.60005L13.70634765625,30.60005C13.28134765625,30.60005,12.96259765625,30.91875,12.96259765625,31.34375L12.96259765625,31.55625C12.96259765625,31.98125,13.28134765625,32.30005,13.70634765625,32.30005L19.97509765625,32.30005C20.40009765625,32.30005,20.71889765625,31.98125,20.71889765625,31.55625L20.71889765625,31.34375C20.71889765625,30.91875,20.40009765625,30.60005,19.97509765625,30.60005Z" fill="#00CC90" fill-opacity="1"/></g></g></svg>