<svg xmlns="http://www.w3.org/2000/svg" xmlns:xlink="http://www.w3.org/1999/xlink" fill="none" version="1.1" width="70" height="70" viewBox="0 0 70 70"><defs><clipPath id="master_svg0_324_5227"><rect x="0" y="0" width="70" height="70" rx="0"/></clipPath></defs><g clip-path="url(#master_svg0_324_5227)"><g><path d="M20.6814,2.6735967578124997L4.41144,10.7435567578125L36.952,10.7435567578125L20.6814,2.6735967578124997ZM32.774,10.7431467578125L8.58867,10.7431467578125L8.58867,25.2832267578125L17.5812,25.2832267578125C17.4579,24.8907267578125,17.3913,24.4827267578125,17.3834,24.0715267578125L17.3834,19.2250267578125C17.3841,17.2174267578125,18.8615,15.5906267578125,20.6829,15.5917267578125C22.5033,15.5924267578125,23.9788,17.2189267578125,23.9792,19.2250267578125L23.9792,24.0718267578125C23.9711,24.4831267578125,23.9046,24.8911267578125,23.7815,25.2836267578125L32.774,25.2836267578125L32.774,10.7431467578125ZM49.849,12.1487267578125C49.8567,10.6815367578125,49.5074,9.2344767578125,48.8312,7.9323467578125C48.8312,4.1278067578125,46.9892,1.0499267578125,44.8087,1.0499267578125C42.6275,1.0499267578125,40.8344,4.1274667578125,40.7616,7.9323467578125C40.0847,9.2342267578125,39.7354,10.6814667578125,39.7438,12.1487267578125C39.474,15.0863267578125,41.1001,17.8708267578125,43.791,19.0795267578125L43.791,25.2832267578125L45.8025,25.2832267578125L45.8025,19.0795267578125C48.493,17.8704267578125,50.1187,15.0861267578125,49.849,12.1487267578125ZM61.9657,12.1487267578125C61.9737,10.6815467578125,61.6245,9.2344367578125,60.9483,7.9323467578125C60.9483,4.1278067578125,59.1062,1.0499267578125,56.9253,1.0499267578125C54.7444,1.0499267578125,52.9515,4.1274667578125,52.8783,7.9323467578125C52.2017,9.2343167578125,51.8525,10.6815067578125,51.8608,12.1487267578125C51.591,15.0862267578125,53.217,17.8708267578125,55.9079,19.0795267578125L55.9079,25.2832267578125L57.9193,25.2832267578125L57.9193,19.0795267578125C60.6098,17.8704267578125,62.2354,15.0860267578125,61.9657,12.1487267578125ZM39.0803,69.9999267578125L50.5788,69.9999267578125L52.9627,26.0749267578125L45.4685,26.0749267578125L39.0803,69.9999267578125ZM62.7862,26.0749267578125L54.6984,26.0749267578125L53.5556,69.9999267578125L63.9201,69.9999267578125L62.7862,26.0749267578125ZM43.7328,26.0749267578125L35.6874,26.0749267578125L21.7584,69.9999267578125L36.1035,69.9999267578125L43.7328,26.0749267578125ZM64.5218,26.0749267578125L66.8965,69.9999267578125L70,69.9999267578125L70,26.0749267578125L64.5218,26.0749267578125ZM0,45.3833267578125L0,52.7043267578125L22.4133,52.7043267578125L25.3078,45.3833267578125L0,45.3833267578125ZM29.8169,33.9793267578125L32.9424,26.0749267578125L0,26.0749267578125L0,33.9793267578125L29.8169,33.9793267578125ZM0,36.0208267578125L0,43.3418267578125L26.1153,43.3418267578125L29.0097,36.0208267578125L0,36.0208267578125ZM18.7117,62.0668267578125L21.6062,54.7458267578125L0,54.7458267578125L0,62.0668267578125L18.7117,62.0668267578125ZM0,64.10842675781251L0,69.9999267578125L15.575,69.9999267578125L17.9043,64.10842675781251L0,64.10842675781251Z" fill="#ADADAD" fill-opacity="1"/></g></g></svg>