<svg xmlns="http://www.w3.org/2000/svg" xmlns:xlink="http://www.w3.org/1999/xlink" fill="none" version="1.1" width="16.363636016845703" height="20" viewBox="0 0 16.363636016845703 20"><g><path d="M8.18182,0C9.3,0,10.2782,0.233636,11.0855,0.669091C11.8945,1.10545,12.5309,1.74182,12.9673,2.55091C13.4036,3.35818,13.6364,4.33636,13.6364,5.45455L13.6364,8.18182C15.1426,8.18182,16.3636,9.40286,16.3636,10.9091L16.3636,17.2727C16.3636,18.779,15.1426,20,13.6364,20L2.72727,20C1.22104,20,1.19209e-7,18.779,0,17.2727L0,10.9091C0,9.40286,1.22104,8.18182,2.72727,8.18182L2.72727,5.45455C2.72727,4.33636,2.96091,3.35818,3.39636,2.55091C3.82346,1.75114,4.47841,1.09619,5.27818,0.669091C6.08545,0.232727,7.06364,0,8.18182,0ZM13.6618,10L2.72727,10C2.23497,9.99981,1.83197,10.3915,1.81818,10.8836L1.81818,17.2727C1.81799,17.765,2.20971,18.168,2.70182,18.1818L13.6364,18.1818C14.1287,18.182,14.5317,17.7903,14.5455,17.2982L14.5455,10.9091C14.5456,10.4168,14.1539,10.0138,13.6618,10ZM8.18182,11.8182C8.74692,11.8182,9.25344,12.1668,9.45532,12.6947C9.65721,13.2225,9.51263,13.8201,9.09182,14.1973L9.09091,15.4545C9.09091,15.9566,8.6839,16.3636,8.18182,16.3636C7.67974,16.3636,7.27273,15.9566,7.27273,15.4545L7.27273,14.1982C6.85134,13.8213,6.70625,13.2234,6.90798,12.6952C7.10974,12.1671,7.61647,11.8182,8.18182,11.8182ZM8.26545,1.81818L8.09818,1.81818C7.31091,1.81818,6.69182,1.96545,6.17364,2.24273C5.66072,2.51405,5.24132,2.93345,4.97,3.44636C4.69273,3.96364,4.54545,4.58364,4.54545,5.37091L4.54545,8.18182L11.8182,8.18182L11.8182,5.37091C11.8182,4.58364,11.6709,3.96455,11.3936,3.44636C11.1223,2.93345,10.7029,2.51405,10.19,2.24273C9.67273,1.96545,9.05273,1.81818,8.26545,1.81818Z" fill="#CCCCCC" fill-opacity="1"/></g></svg>