<svg xmlns="http://www.w3.org/2000/svg" xmlns:xlink="http://www.w3.org/1999/xlink" fill="none" version="1.1" width="18.333332061767578" height="18.33333396911621" viewBox="0 0 18.333332061767578 18.33333396911621"><g><path d="M9.16667,18.3333C4.10352,18.3333,0,14.2298,0,9.16667C0,4.10352,4.10352,0,9.16667,0C14.2298,0,18.3333,4.10352,18.3333,9.16667C18.3333,14.2298,14.2298,18.3333,9.16667,18.3333ZM9.16667,1.71875C5.0542,1.71875,1.71875,5.0542,1.71875,9.16667C1.71875,13.2791,5.0542,16.6146,9.16667,16.6146C13.2791,16.6146,16.6146,13.2791,16.6146,9.16667C16.6146,5.0542,13.2791,1.71875,9.16667,1.71875ZM11.7448,9.16667C11.4906,9.16667,11.2668,9.05387,11.1092,8.88021L11.1074,8.882L10.0278,7.68245L10.0278,12.8906C10.0278,13.3651,9.6429,13.75,9.16846,13.75C8.69401,13.75,8.30908,13.3651,8.30908,12.8906L8.30908,7.68245L7.22949,8.882L7.2277,8.88021C7.07015,9.05387,6.84456,9.16667,6.59212,9.16667C6.11768,9.16667,5.73275,8.78174,5.73275,8.30729C5.73275,8.08529,5.81868,7.88656,5.95654,7.73438L5.95475,7.73258L8.53288,4.868L8.53467,4.86979C8.69222,4.69613,8.91781,4.58333,9.17025,4.58333C9.42448,4.58333,9.65006,4.69613,9.80583,4.86979L9.80762,4.868L12.3857,7.73258L12.384,7.73438C12.5218,7.88656,12.6077,8.08529,12.6077,8.30729C12.6042,8.78174,12.2192,9.16667,11.7448,9.16667Z" fill="#CCCCCC" fill-opacity="1"/></g></svg>