<svg xmlns="http://www.w3.org/2000/svg" xmlns:xlink="http://www.w3.org/1999/xlink" fill="none" version="1.1" width="25.846155166625977" height="25.846155166625977" viewBox="0 0 25.846155166625977 25.846155166625977"><defs><clipPath id="master_svg0_3_4330"><rect x="0" y="0" width="25.846155166625977" height="25.846155166625977" rx="0"/></clipPath></defs><g clip-path="url(#master_svg0_3_4330)"><g><path d="M17.7526,0.923095703125C19.0629,0.923095703125,20.214,1.8410957031250001,20.4891,3.103405703125C20.7203,4.166785703125,21.6891,4.939405703125,22.7945,4.939405703125C24.4777,4.939405703125,25.8462,6.287095703125,25.8462,7.946325703125L25.8462,21.916195703125C25.8462,23.574895703125,24.4777,24.923095703125,22.7945,24.923095703125L3.05169,24.923095703125C1.36846,24.923095703125,0,23.574895703125,0,21.916195703125L0,7.946325703125C0,6.287555703125,1.36846,4.939405703125,3.05169,4.939405703125C4.15662,4.939405703125,5.12585,4.166785703125,5.35708,3.103405703125C5.63215,1.841557703125,6.78323,0.923095703125,8.094,0.923095703125L17.7526,0.923095703125ZM12.9231,7.846175703125C9.36185,7.846175703125,6.46154,10.746485703125,6.46154,14.307695703125C6.46154,17.868895703125,9.35815,20.769295703125,12.9231,20.769295703125C16.4843,20.769295703125,19.3846,17.868895703125,19.3846,14.307695703125C19.3846,10.746475703125,16.4843,7.846175703125,12.9231,7.846175703125ZM12.9231,10.615405703125C14.9575,10.615405703125,16.6122,12.273295703125,16.6154,14.307695703125C16.6154,16.345395703125,14.9575,17.999995703125,12.9231,17.999995703125C10.8854,17.999995703125,9.23077,16.342195703125,9.23077,14.307695703125C9.23077,12.269995703125,10.8886,10.615405703125,12.9231,10.615405703125Z" fill="#00CC90" fill-opacity="1"/></g></g></svg>