<svg xmlns="http://www.w3.org/2000/svg" xmlns:xlink="http://www.w3.org/1999/xlink" fill="none" version="1.1" width="34.30988693237305" height="39.19668960571289" viewBox="0 0 34.30988693237305 39.19668960571289"><g><path d="M16.7619,20.6476C22.5389,20.6476,27.2397,16.0174,27.2394,10.3238C27.2394,4.63059,22.539,0,16.7619,0C10.985,0,6.28455,4.63221,6.28455,10.3238C6.28451,16.0157,10.9849,20.6476,16.7619,20.6476ZM21.0796,21.6417L13.2291,21.6417C5.93376,21.6417,0,27.4843,0,34.668L0,35.4412C0,39.1967,5.83878,39.1967,13.2291,39.1967L21.0796,39.1967C28.1791,39.1967,34.3099,39.1967,34.3099,35.4412L34.3099,34.668C34.3098,27.4859,28.3751,21.6417,21.0796,21.6417Z" fill="#FFFFFF" fill-opacity="0.4000000059604645"/></g></svg>