<svg xmlns="http://www.w3.org/2000/svg" xmlns:xlink="http://www.w3.org/1999/xlink" fill="none" version="1.1" width="40" height="40" viewBox="0 0 40 40"><defs><clipPath id="master_svg0_43_3382"><rect x="0" y="0" width="40" height="40" rx="0"/></clipPath></defs><g clip-path="url(#master_svg0_43_3382)"><g><path d="M19.606870703125,21.292833154296876C25.383870703125,21.292833154296876,30.084670703125,16.662633154296874,30.084370703125,10.969033154296875C30.084370703125,5.275823154296875,25.383970703125,0.645233154296875,19.606870703125,0.645233154296875C13.829970703125,0.645233154296875,9.129520703125,5.277443154296875,9.129520703125,10.969033154296875C9.129480703125001,16.660933154296874,13.829870703125,21.292833154296876,19.606870703125,21.292833154296876ZM23.924570703125,22.286933154296875L16.074070703125003,22.286933154296875C8.778730703125,22.286933154296875,2.844970703125,28.129533154296876,2.844970703125,35.313233154296874L2.844970703125,36.08643315429688C2.844970703125,39.841933154296875,8.683750703125,39.841933154296875,16.074070703125003,39.841933154296875L23.924570703125,39.841933154296875C31.024070703125,39.841933154296875,37.154870703125,39.841933154296875,37.154870703125,36.08643315429688L37.154870703125,35.313233154296874C37.154770703125,28.131133154296876,31.220070703125,22.286933154296875,23.924570703125,22.286933154296875Z" fill="#FFFFFF" fill-opacity="0.4000000059604645"/></g></g></svg>