<svg xmlns="http://www.w3.org/2000/svg" xmlns:xlink="http://www.w3.org/1999/xlink" fill="none" version="1.1" width="24" height="24" viewBox="0 0 24 24"><defs><clipPath id="master_svg0_15_3253"><rect x="0" y="0" width="24" height="24" rx="0"/></clipPath></defs><g clip-path="url(#master_svg0_15_3253)"><g><path d="M19.0310162109375,23.249969482421875L4.9688362109375,23.249969482421875C3.4151862109374997,23.249969482421875,2.1566162109375,21.990369482421876,2.1566162109375,20.437769482421874L2.1566162109375,6.375529482421875C2.1566162109375,4.821879482421875,3.4151862109374997,3.562209482421875,4.9688362109375,3.562209482421875L7.0777162109375,3.562209482421875L7.0777162109375,2.156619482421875L8.9721262109375,2.156619482421875C9.5807462109375,1.319383482421875,10.7021162109375,0.749969482421875,11.9999262109375,0.749969482421875C13.2977162109375,0.749969482421875,14.4191162109375,1.319383482421875,15.0277162109375,2.156619482421875L16.921116210937498,2.156619482421875L16.921116210937498,3.562209482421875L19.0310162109375,3.562209482421875C20.5836162109375,3.562209482421875,21.8433162109375,4.821879482421875,21.8433162109375,6.375529482421875L21.8433162109375,20.437769482421874C21.8433162109375,21.990369482421876,20.5836162109375,23.249969482421875,19.0310162109375,23.249969482421875ZM15.5155162109375,3.562239482421875L13.9531162109375,3.562239482421875C13.9531162109375,2.785939482421875,13.0789162109375,2.156639482421875,11.9999462109375,2.156639482421875C10.9209962109375,2.156639482421875,10.0467362109375,2.785939482421875,10.0467362109375,3.562239482421875L8.4844162109375,3.562239482421875L8.4844162109375,6.375559482421875L15.5155162109375,6.375559482421875L15.5155162109375,3.562239482421875ZM20.4366162109375,6.375529482421875C20.4366162109375,5.598159482421875,19.8073162109375,4.968879482421875,19.0310162109375,4.968879482421875L16.921116210937498,4.968879482421875L16.921116210937498,7.781099482421875L7.0777662109375,7.781099482421875L7.0777662109375,4.968879482421875L4.9688762109375,4.968879482421875C4.1926062109375,4.968879482421875,3.5622062109375,5.598179482421875,3.5622062109375,6.375529482421875L3.5622062109375,20.437769482421874C3.5622062109375,21.214069482421873,4.1926262109375,21.843369482421874,4.9688762109375,21.843369482421874L19.0311162109375,21.843369482421874C19.8074162109375,21.843369482421874,20.4367162109375,21.214069482421873,20.4367162109375,20.437769482421874L20.4366162109375,6.375529482421875ZM16.921116210937498,19.031069482421874L7.0777662109375,19.031069482421874C6.6901762109375,19.031069482421874,6.3755062109375,18.716469482421875,6.3755062109375,18.327769482421875C6.3755062109375,17.939069482421875,6.6901562109375,17.624469482421876,7.0777662109375,17.624469482421876L16.921116210937498,17.624469482421876C17.309716210937502,17.624469482421876,17.6244162109375,17.939069482421875,17.6244162109375,18.327769482421875C17.6244162109375,18.716469482421875,17.309716210937502,19.031069482421874,16.921116210937498,19.031069482421874ZM16.921116210937498,15.515569482421874L7.0777662109375,15.515569482421874C6.6901762109375,15.515569482421874,6.3755062109375,15.200869482421876,6.3755062109375,14.812169482421876C6.3755062109375,14.424669482421875,6.6901562109375,14.108869482421875,7.0777662109375,14.108869482421875L16.921116210937498,14.108869482421875C17.309716210937502,14.108869482421875,17.6244162109375,14.424669482421875,17.6244162109375,14.812169482421876C17.6244162109375,15.200869482421876,17.309716210937502,15.515569482421874,16.921116210937498,15.515569482421874ZM16.921116210937498,11.999969482421875L7.0777662109375,11.999969482421875C6.6901762109375,11.999969482421875,6.3755062109375,11.685369482421875,6.3755062109375,11.296669482421875C6.3755062109375,10.907969482421874,6.6901562109375,10.593319482421874,7.0777662109375,10.593319482421874L16.921116210937498,10.593319482421874C17.309716210937502,10.593319482421874,17.6244162109375,10.907969482421874,17.6244162109375,11.296669482421875C17.6244162109375,11.685369482421875,17.309716210937502,11.999969482421875,16.921116210937498,11.999969482421875Z" fill="#CCCCCC" fill-opacity="1"/></g></g></svg>