<svg xmlns="http://www.w3.org/2000/svg" xmlns:xlink="http://www.w3.org/1999/xlink" fill="none" version="1.1" width="32" height="25.05198860168457" viewBox="0 0 32 25.05198860168457"><defs><clipPath id="master_svg0_1_05278"><rect x="0" y="0" width="32" height="25.05198860168457" rx="0"/></clipPath></defs><g clip-path="url(#master_svg0_1_05278)"><g><path d="M24.6066,4.98117L24.6066,4.6722C24.6066,2.09045,22.5384,0,19.9845,0L4.62488,0C2.07096,0,0,2.09045,0,4.6722L0,20.3798C0,22.9601,2.07096,25.052,4.62488,25.052L19.9831,25.052C22.537,25.052,24.608,22.9601,24.608,20.3798L24.608,19.9971Q30.6553,22.9281,31.4222,22.4257C32.189,21.9219,32.2252,3.08,31.4222,2.55252Q30.6191,2.02364,24.608,4.98117L24.6066,4.98117ZM9.851,7.49611L17.2386,12.5065L9.851,17.5169L9.851,7.49611Z" fill="#00CC90" fill-opacity="1"/></g></g></svg>