<svg xmlns="http://www.w3.org/2000/svg" xmlns:xlink="http://www.w3.org/1999/xlink" fill="none" version="1.1" width="32.138671875" height="30" viewBox="0 0 32.138671875 30"><defs><clipPath id="master_svg0_1_05556"><rect x="0" y="0" width="32.138671875" height="30" rx="0"/></clipPath></defs><g clip-path="url(#master_svg0_1_05556)"><g><path d="M30.786463671875,27.40674794921875L28.240663671875,27.40674794921875L28.240663671875,12.26724794921875C28.242263671875,10.62954794921875,27.910163671875,9.00880794921875,27.264663671875,7.50374794921875C26.000663671875,4.55857794921875,23.645063671875,2.21747794921875,20.692063671875,0.97177094921875C19.190363671875,0.32963294921875,17.573763671875,-0.00042478078125000006,15.940463671875,0.00165780965875C10.992263671875,0.00604722921875,6.521693671875,2.95602794921875,4.571463671875,7.50374794921875C3.926003671875,9.01147794921875,3.593923671875,10.63474794921875,3.595433671875,12.27484794921875L3.621653671875,27.40844794921875L1.253463671875,27.40844794921875C0.553397671875,27.44314794921875,0.007463371874999999,28.02754794921875,0.020492032875,28.72834794921875C0.033520771875,29.42914794921875,0.600801671875,29.99294794921875,1.301673671875,30.00154794921875L30.832163671875,30.00154794921875C31.564363671875,30.01064794921875,32.159063671875,29.41224794921875,32.145363671875,28.68014794921875C32.131763671875,27.94794794921875,31.515363671875,27.37214794921875,30.783963671875,27.40844794921875L30.786463671875,27.40674794921875ZM15.245263671875,26.14314794921875L15.245263671875,16.99854794921875L10.650963671875,16.99854794921875L16.961363671875,5.23451794921875L16.961363671875,14.81724794921875L21.398263671875,14.81724794921875L15.245263671875,26.14314794921875Z" fill="#00CC90" fill-opacity="1"/></g></g></svg>