<svg xmlns="http://www.w3.org/2000/svg" xmlns:xlink="http://www.w3.org/1999/xlink" fill="none" version="1.1" width="24.001598358154297" height="22.221996307373047" viewBox="0 0 24.001598358154297 22.221996307373047"><g><path d="M18.8,20.6008L18.8,12.6008C18.8,8.8208,15.8,5.4008,12,5.4008C8.2,5.4008,5.2,8.8208,5.2,12.6008L5.2,20.6008L3.6,20.6008C3.1332,20.6008,2.8,20.9368,2.8,21.4008C2.8,21.8648,3.1332,22.2008,3.6,22.2008L20.4,22.222C20.8668,22.222,21.2,21.8012,21.2,21.4008C21.2,21.0004,20.9332,20.6008,20.4,20.6008L18.8,20.6008ZM6.8,20.6008L6.8,13.0008C6.8,11.542,7.2668,10.1524,8.2668,9.0912C9.2,8.0304,10.5332,7.0008,12,7.0008C13.4,7.0008,14.7332,8.0304,15.7332,9.0912C16.7332,10.086,17.2,11.608,17.2,13.0008L17.2,20.6008L6.8,20.6008ZM12.2668,14.1312L13.4,13.0704C13.6,12.8712,13.6,12.6724,13.6,12.4072C13.6,12.208,13.5332,11.9432,13.4,11.744C13.0687,11.4123,12.5312,11.4123,12.2,11.744L9.5332,14.1976C9.2,14.5296,9.2,15.0596,9.5332,15.3252C9.7332,15.524,10.0668,15.6568,10.5332,15.6568L12.4,15.6568L10.8668,17.3144C10.6668,17.5136,10.6668,17.7124,10.6668,17.9776C10.6668,18.1768,10.7332,18.4416,10.8668,18.6408C11.0668,18.8396,11.3332,18.8396,11.5332,18.8396C11.8,18.8396,12,18.7736,12.2,18.6408L14.8668,16.1208C15.2,15.8556,15.3332,15.4576,15.3332,15.0596C15.2668,14.5956,14.9332,14.1316,14.2668,14.1316L12.2668,14.1316L12.2668,14.1312ZM3.9904,13.8008L1,13.8008C0.5332,13.8008,0,13.3368,0,12.806C0,12.2756,0.5332,11.8008,1,11.8008L4.0016,11.8008L3.9904,13.8008ZM20.0116,13.8008L23.0016,13.8008C23.4684,13.8008,24.0016,13.3368,24.0016,12.806C24.0016,12.2756,23.4684,11.8008,23.0016,11.8008L20,11.8008L20.0116,13.8008ZM5.1,7.7148L2.9856,5.6C2.6556,5.27,2.6068,4.5648,2.9816,4.1896C3.3572,3.8144,4.0696,3.856,4.4,4.1856L6.5224,6.3084L5.1,7.7148ZM11.0004,3.9904L11.0004,1C11.0004,0.5332,11.4644,0,11.9952,0C12.5256,0,13.0004,0.5332,13.0004,1L13.0004,4.0016L11.0004,3.9904ZM19.3008,7.7144L21.4152,5.6C21.7452,5.27,21.7944,4.5648,21.4192,4.1896C21.044,3.8144,20.3312,3.856,20.0012,4.1856L17.8784,6.3084L19.3008,7.7148L19.3008,7.7144Z" fill="#CCCCCC" fill-opacity="1"/></g></svg>