<svg xmlns="http://www.w3.org/2000/svg" xmlns:xlink="http://www.w3.org/1999/xlink" fill="none" version="1.1" width="24" height="24" viewBox="0 0 24 24"><defs><clipPath id="master_svg0_15_3249"><rect x="0" y="0" width="24" height="24" rx="0"/></clipPath></defs><g clip-path="url(#master_svg0_15_3249)"><g><path d="M18.8,21.200012646484375L18.8,13.200012646484375C18.8,9.420012646484375,15.8,6.000012646484375,12,6.000012646484375C8.2,6.000012646484375,5.2,9.420012646484375,5.2,13.200012646484375L5.2,21.200012646484375L3.6,21.200012646484375C3.1332,21.200012646484375,2.8,21.536012646484377,2.8,22.000012646484375C2.8,22.464012646484374,3.1332,22.800012646484376,3.6,22.800012646484376L20.4,22.821212646484376C20.8668,22.821212646484376,21.2,22.400412646484376,21.2,22.000012646484375C21.2,21.599612646484374,20.9332,21.200012646484375,20.4,21.200012646484375L18.8,21.200012646484375ZM6.8,21.200012646484375L6.8,13.600012646484375C6.8,12.141212646484375,7.2668,10.751612646484375,8.2668,9.690412646484376C9.2,8.629612646484375,10.5332,7.600012646484375,12,7.600012646484375C13.4,7.600012646484375,14.7332,8.629612646484375,15.7332,9.690412646484376C16.7332,10.685212646484375,17.2,12.207212646484376,17.2,13.600012646484375L17.2,21.200012646484375L6.8,21.200012646484375ZM12.2668,14.730412646484375L13.4,13.669612646484374C13.6,13.470412646484375,13.6,13.271612646484375,13.6,13.006412646484375C13.6,12.807212646484375,13.5332,12.542412646484374,13.4,12.343212646484375C13.0687,12.011512646484375,12.5312,12.011512646484375,12.2,12.343212646484375L9.5332,14.796812646484375C9.2,15.128812646484375,9.2,15.658812646484375,9.5332,15.924412646484376C9.7332,16.123212646484376,10.0668,16.256012646484375,10.5332,16.256012646484375L12.4,16.256012646484375L10.8668,17.913612646484374C10.6668,18.112812646484375,10.6668,18.311612646484374,10.6668,18.576812646484374C10.6668,18.776012646484375,10.7332,19.040812646484376,10.8668,19.240012646484374C11.0668,19.438812646484376,11.3332,19.438812646484376,11.5332,19.438812646484376C11.8,19.438812646484376,12,19.372812646484373,12.2,19.240012646484374L14.8668,16.720012646484374C15.2,16.454812646484378,15.3332,16.056812646484374,15.3332,15.658812646484375C15.2668,15.194812646484374,14.9332,14.730812646484376,14.2668,14.730812646484376L12.2668,14.730812646484376L12.2668,14.730412646484375ZM3.9904,14.400012646484376L1,14.400012646484376C0.5332,14.400012646484376,0,13.936012646484375,0,13.405212646484374C0,12.874812646484376,0.5332,12.400012646484376,1,12.400012646484376L4.0016,12.400012646484376L3.9904,14.400012646484376ZM20.0116,14.400012646484376L23.0016,14.400012646484376C23.4684,14.400012646484376,24.0016,13.936012646484375,24.0016,13.405212646484374C24.0016,12.874812646484376,23.4684,12.400012646484376,23.0016,12.400012646484376L20,12.400012646484376L20.0116,14.400012646484376ZM5.1,8.314012646484375L2.9856,6.199212646484375C2.6556,5.869212646484375,2.6068,5.164012646484375,2.9816,4.788812646484375C3.3572,4.413612646484375,4.0696,4.455212646484375,4.4,4.784812646484375L6.5224,6.907612646484375L5.1,8.314012646484375ZM11.0004,4.589612646484375L11.0004,1.599212646484375C11.0004,1.132412646484375,11.4644,0.599212646484375,11.9952,0.599212646484375C12.5256,0.599212646484375,13.0004,1.132412646484375,13.0004,1.599212646484375L13.0004,4.600812646484375L11.0004,4.589612646484375ZM19.3008,8.313612646484376L21.4152,6.199212646484375C21.7452,5.869212646484375,21.7944,5.164012646484375,21.4192,4.788812646484375C21.044,4.413612646484375,20.3312,4.455212646484375,20.0012,4.784812646484375L17.8784,6.907612646484375L19.3008,8.314012646484375L19.3008,8.313612646484376Z" fill="#CCCCCC" fill-opacity="1"/></g></g></svg>