<svg xmlns="http://www.w3.org/2000/svg" xmlns:xlink="http://www.w3.org/1999/xlink" fill="none" version="1.1" width="32" height="4" viewBox="0 0 32 4"><g style="mix-blend-mode:passthrough"><path d="M30,4L2,4L2,0L30,0L30,4ZM32,2Q32,2.0982537,31.9904,2.196034Q31.9807,2.293815,31.9616,2.390181Q31.9424,2.486546,31.9139,2.580569Q31.8854,2.674592,31.8478,2.765367Q31.8102,2.856141,31.7638,2.942793Q31.7175,3.0294499999999998,31.6629,3.11114Q31.6083,3.19284,31.546,3.26879Q31.4837,3.34474,31.4142,3.4142099999999997Q31.3447,3.48369,31.2688,3.54602Q31.1928,3.6083499999999997,31.1111,3.66294Q31.0294,3.71753,30.9428,3.76384Q30.8561,3.8101599999999998,30.7654,3.84776Q30.6746,3.88536,30.5806,3.91388Q30.4865,3.9424,30.3902,3.96157Q30.2938,3.98074,30.196,3.99037Q30.0983,4,30,4Q29.9017,4,29.804,3.99037Q29.7062,3.98074,29.6098,3.96157Q29.5135,3.9424,29.4194,3.91388Q29.3254,3.88536,29.2346,3.84776Q29.1439,3.8101599999999998,29.0572,3.76384Q28.9706,3.71753,28.8889,3.66294Q28.8072,3.6083499999999997,28.7312,3.54602Q28.6553,3.48369,28.5858,3.4142099999999997Q28.5163,3.34474,28.454,3.26879Q28.3916,3.19284,28.3371,3.11114Q28.2825,3.0294499999999998,28.2362,2.942793Q28.1898,2.856141,28.1522,2.765367Q28.1146,2.674592,28.0861,2.580569Q28.0576,2.486546,28.0384,2.390181Q28.0193,2.293815,28.0096,2.196034Q28,2.0982537,28,2Q28,1.9017463000000001,28.0096,1.803966Q28.0193,1.706185,28.0384,1.6098189999999999Q28.0576,1.513454,28.0861,1.4194309999999999Q28.1146,1.325408,28.1522,1.234633Q28.1898,1.143859,28.2362,1.057207Q28.2825,0.97055,28.3371,0.88886Q28.3916,0.8071600000000001,28.454,0.7312099999999999Q28.5163,0.65526,28.5858,0.58579Q28.6553,0.51631,28.7312,0.45398000000000005Q28.8072,0.39165000000000005,28.8889,0.3370599999999999Q28.9706,0.28247,29.0572,0.23615999999999993Q29.1439,0.18984,29.2346,0.15223999999999993Q29.3254,0.11464000000000008,29.4194,0.08611999999999997Q29.5135,0.057600000000000096,29.6098,0.038429999999999964Q29.7062,0.019260000000000055,29.804,0.009630000000000027Q29.9017,0,30,0Q30.0983,0,30.196,0.009630000000000027Q30.2938,0.019260000000000055,30.3902,0.038429999999999964Q30.4865,0.057600000000000096,30.5806,0.08611999999999997Q30.6746,0.11464000000000008,30.7654,0.15223999999999993Q30.8561,0.18984,30.9428,0.23615999999999993Q31.0294,0.28247,31.1111,0.3370599999999999Q31.1928,0.39165000000000005,31.2688,0.45398000000000005Q31.3447,0.51631,31.4142,0.58579Q31.4837,0.65526,31.546,0.7312099999999999Q31.6084,0.8071600000000001,31.6629,0.88886Q31.7175,0.97055,31.7638,1.057207Q31.8102,1.143859,31.8478,1.234633Q31.8854,1.325408,31.9139,1.4194309999999999Q31.9424,1.513454,31.9616,1.6098189999999999Q31.9807,1.706185,31.9904,1.803966Q32,1.9017463000000001,32,2ZM4,2Q4,2.0982537,3.99037,2.196034Q3.98074,2.293815,3.96157,2.390181Q3.9424,2.486546,3.91388,2.580569Q3.88536,2.674592,3.84776,2.765367Q3.8101599999999998,2.856141,3.76384,2.942793Q3.71753,3.0294499999999998,3.66294,3.11114Q3.6083499999999997,3.19284,3.54602,3.26879Q3.48369,3.34474,3.4142099999999997,3.4142099999999997Q3.34474,3.48369,3.26879,3.54602Q3.19284,3.6083499999999997,3.11114,3.66294Q3.0294499999999998,3.71753,2.942793,3.76384Q2.856141,3.8101599999999998,2.765367,3.84776Q2.674592,3.88536,2.580569,3.91388Q2.486546,3.9424,2.390181,3.96157Q2.293815,3.98074,2.196034,3.99037Q2.0982537,4,2,4Q1.9017463000000001,4,1.803966,3.99037Q1.706185,3.98074,1.6098189999999999,3.96157Q1.513454,3.9424,1.4194309999999999,3.91388Q1.325408,3.88536,1.234633,3.84776Q1.143859,3.8101599999999998,1.057207,3.76384Q0.97055,3.71753,0.88886,3.66294Q0.8071600000000001,3.6083499999999997,0.7312099999999999,3.54602Q0.65526,3.48369,0.58579,3.4142099999999997Q0.51631,3.34474,0.45398000000000005,3.26879Q0.39165000000000005,3.19284,0.3370599999999999,3.11114Q0.28247,3.0294499999999998,0.23615999999999993,2.942793Q0.18984,2.856141,0.15223999999999993,2.765367Q0.11464000000000008,2.674592,0.08611999999999997,2.580569Q0.057600000000000096,2.486546,0.038429999999999964,2.390181Q0.019260000000000055,2.293815,0.009630000000000027,2.196034Q0,2.0982537,0,2Q0,1.9017463000000001,0.009630000000000027,1.803966Q0.019260000000000055,1.706185,0.038429999999999964,1.6098189999999999Q0.057600000000000096,1.513454,0.08611999999999997,1.4194309999999999Q0.11464000000000008,1.325408,0.15223999999999993,1.234633Q0.18984,1.143859,0.23615999999999993,1.057207Q0.28247,0.97055,0.3370599999999999,0.88886Q0.39165000000000005,0.8071600000000001,0.45398000000000005,0.7312099999999999Q0.51631,0.65526,0.58579,0.58579Q0.65526,0.51631,0.7312099999999999,0.45398000000000005Q0.8071600000000001,0.39165000000000005,0.88886,0.3370599999999999Q0.97055,0.28247,1.057207,0.23615999999999993Q1.143859,0.18984,1.234633,0.15223999999999993Q1.325408,0.11464000000000008,1.4194309999999999,0.08611999999999997Q1.513454,0.057600000000000096,1.6098189999999999,0.038429999999999964Q1.706185,0.019260000000000055,1.803966,0.009630000000000027Q1.9017463000000001,0,2,0Q2.0982537,0,2.196034,0.009630000000000027Q2.293815,0.019260000000000055,2.390181,0.038429999999999964Q2.486546,0.057600000000000096,2.580569,0.08611999999999997Q2.674592,0.11464000000000008,2.765367,0.15223999999999993Q2.856141,0.18984,2.942793,0.23615999999999993Q3.0294499999999998,0.28247,3.11114,0.3370599999999999Q3.19284,0.39165000000000005,3.26879,0.45398000000000005Q3.34474,0.51631,3.4142099999999997,0.58579Q3.48369,0.65526,3.54602,0.7312099999999999Q3.6083499999999997,0.8071600000000001,3.66294,0.88886Q3.71753,0.97055,3.76384,1.057207Q3.8101599999999998,1.143859,3.84776,1.234633Q3.88536,1.325408,3.91388,1.4194309999999999Q3.9424,1.513454,3.96157,1.6098189999999999Q3.98074,1.706185,3.99037,1.803966Q4,1.9017463000000001,4,2Z" fill="#FFFFFF" fill-opacity="0.6000000238418579"/></g></svg>