<svg xmlns="http://www.w3.org/2000/svg" xmlns:xlink="http://www.w3.org/1999/xlink" fill="none" version="1.1" width="32" height="32" viewBox="0 0 32 32"><g style="mix-blend-mode:passthrough"><path d="M16,0Q15.9017,0,15.804,0.00963055Q15.7062,0.0192611,15.6098,0.0384294Q15.5135,0.0575978,15.4194,0.0861193Q15.3254,0.114641,15.2346,0.152241Q15.1439,0.189841,15.0572,0.236157Q14.9706,0.282474,14.8889,0.337061Q14.8072,0.391648,14.7312,0.453979Q14.6553,0.516311,14.5858,0.585786Q14.5163,0.655262,14.454,0.731213Q14.3916,0.807164,14.3371,0.888859Q14.2825,0.970554,14.2362,1.05721Q14.1898,1.14386,14.1522,1.23463Q14.1146,1.32541,14.0861,1.41943Q14.0576,1.51345,14.0384,1.60982Q14.0193,1.70619,14.0096,1.80397Q14,1.90175,14,2L14,14L2,14Q1.90175,14,1.80397,14.0096Q1.70619,14.0193,1.60982,14.0384Q1.51345,14.0576,1.41943,14.0861Q1.32541,14.1146,1.23463,14.1522Q1.14386,14.1898,1.05721,14.2362Q0.970554,14.2825,0.888859,14.3371Q0.807164,14.3916,0.731213,14.454Q0.655262,14.5163,0.585786,14.5858Q0.516311,14.6553,0.453979,14.7312Q0.391648,14.8072,0.337061,14.8889Q0.282474,14.9706,0.236157,15.0572Q0.189841,15.1439,0.152241,15.2346Q0.114641,15.3254,0.0861193,15.4194Q0.0575978,15.5135,0.0384294,15.6098Q0.0192611,15.7062,0.00963055,15.804Q0,15.9017,0,16Q0,16.0983,0.00963055,16.196Q0.0192611,16.2938,0.0384294,16.3902Q0.0575978,16.4865,0.0861193,16.5806Q0.114641,16.6746,0.152241,16.7654Q0.189841,16.8561,0.236157,16.9428Q0.282474,17.0294,0.337061,17.1111Q0.391648,17.1928,0.453979,17.2688Q0.516311,17.3447,0.585786,17.4142Q0.655262,17.4837,0.731213,17.546Q0.807164,17.6084,0.888859,17.6629Q0.970554,17.7175,1.05721,17.7638Q1.14386,17.8102,1.23463,17.8478Q1.32541,17.8854,1.41943,17.9139Q1.51345,17.9424,1.60982,17.9616Q1.70619,17.9807,1.80397,17.9904Q1.90175,18,2,18L14,18L14,30Q14,30.0983,14.0096,30.196Q14.0193,30.2938,14.0384,30.3902Q14.0576,30.4865,14.0861,30.5806Q14.1146,30.6746,14.1522,30.7654Q14.1898,30.8561,14.2362,30.9428Q14.2825,31.0294,14.3371,31.1111Q14.3916,31.1928,14.454,31.2688Q14.5163,31.3447,14.5858,31.4142Q14.6553,31.4837,14.7312,31.546Q14.8072,31.6084,14.8889,31.6629Q14.9706,31.7175,15.0572,31.7638Q15.1439,31.8102,15.2346,31.8478Q15.3254,31.8854,15.4194,31.9139Q15.5135,31.9424,15.6098,31.9616Q15.7062,31.9807,15.804,31.9904Q15.9017,32,16,32Q16.0983,32,16.196,31.9904Q16.2938,31.9807,16.3902,31.9616Q16.4865,31.9424,16.5806,31.9139Q16.6746,31.8854,16.7654,31.8478Q16.8561,31.8102,16.9428,31.7638Q17.0294,31.7175,17.1111,31.6629Q17.1928,31.6084,17.2688,31.546Q17.3447,31.4837,17.4142,31.4142Q17.4837,31.3447,17.546,31.2688Q17.6084,31.1928,17.6629,31.1111Q17.7175,31.0294,17.7638,30.9428Q17.8102,30.8561,17.8478,30.7654Q17.8854,30.6746,17.9139,30.5806Q17.9424,30.4865,17.9616,30.3902Q17.9807,30.2938,17.9904,30.196Q18,30.0983,18,30L18,18L30,18Q30.0983,18,30.196,17.9904Q30.2938,17.9807,30.3902,17.9616Q30.4865,17.9424,30.5806,17.9139Q30.6746,17.8854,30.7654,17.8478Q30.8561,17.8102,30.9428,17.7638Q31.0294,17.7175,31.1111,17.6629Q31.1928,17.6084,31.2688,17.546Q31.3447,17.4837,31.4142,17.4142Q31.4837,17.3447,31.546,17.2688Q31.6084,17.1928,31.6629,17.1111Q31.7175,17.0294,31.7638,16.9428Q31.8102,16.8561,31.8478,16.7654Q31.8854,16.6746,31.9139,16.5806Q31.9424,16.4865,31.9616,16.3902Q31.9807,16.2938,31.9904,16.196Q32,16.0983,32,16Q32,15.9017,31.9904,15.804Q31.9807,15.7062,31.9616,15.6098Q31.9424,15.5135,31.9139,15.4194Q31.8854,15.3254,31.8478,15.2346Q31.8102,15.1439,31.7638,15.0572Q31.7175,14.9706,31.6629,14.8889Q31.6084,14.8072,31.546,14.7312Q31.4837,14.6553,31.4142,14.5858Q31.3447,14.5163,31.2688,14.454Q31.1928,14.3916,31.1111,14.3371Q31.0294,14.2825,30.9428,14.2362Q30.8561,14.1898,30.7654,14.1522Q30.6746,14.1146,30.5806,14.0861Q30.4865,14.0576,30.3902,14.0384Q30.2938,14.0193,30.196,14.0096Q30.0983,14,30,14L18,14L18,2Q18,1.90175,17.9904,1.80397Q17.9807,1.70619,17.9616,1.60982Q17.9424,1.51345,17.9139,1.41943Q17.8854,1.32541,17.8478,1.23463Q17.8102,1.14386,17.7638,1.05721Q17.7175,0.970554,17.6629,0.888859Q17.6084,0.807164,17.546,0.731213Q17.4837,0.655262,17.4142,0.585786Q17.3447,0.516311,17.2688,0.453979Q17.1928,0.391648,17.1111,0.337061Q17.0294,0.282474,16.9428,0.236157Q16.8561,0.189841,16.7654,0.152241Q16.6746,0.114641,16.5806,0.0861193Q16.4865,0.0575978,16.3902,0.0384294Q16.2938,0.0192611,16.196,0.00963055Q16.0983,0,16,0Z" fill-rule="evenodd" fill="#FFFFFF" fill-opacity="0.6000000238418579"/></g></svg>